SplineFontDB: 3.0
FontName: Bailleul-BoldItalic
FullName: Bailleul Bold Italic
FamilyName: Bailleul Roman
Weight: Bold
Copyright: Copyright (c) 2019 Yomli\nCopyright (c) 1850 Bailleul et Cie\nCopyright (c) 1800 Justus Erich Walbaum
Version: 1
ItalicAngle: -16
UnderlinePosition: -125
UnderlineWidth: 50
Ascent: 800
Descent: 200
InvalidEm: 0
sfntRevision: 0x00013333
LayerCount: 2
Layer: 0 1 "Arri+AOgA-re" 1
Layer: 1 1 "Avant" 0
XUID: [1021 871 2113692927 15650]
StyleMap: 0x0021
FSType: 0
OS2Version: 2
OS2_WeightWidthSlopeOnly: 0
OS2_UseTypoMetrics: 0
CreationTime: 1201742810
ModificationTime: 1551980477
PfmFamily: 17
TTFWeight: 700
TTFWidth: 5
LineGap: 0
VLineGap: 0
Panose: 2 0 8 3 8 0 0 9 0 3
OS2TypoAscent: 721
OS2TypoAOffset: 0
OS2TypoDescent: -220
OS2TypoDOffset: 0
OS2TypoLinegap: 71
OS2WinAscent: 963
OS2WinAOffset: 0
OS2WinDescent: 255
OS2WinDOffset: 0
HheadAscent: 963
HheadAOffset: 0
HheadDescent: -255
HheadDOffset: 0
OS2SubXSize: 204
OS2SubYSize: 204
OS2SubXOff: 0
OS2SubYOff: 286
OS2SupXSize: 204
OS2SupYSize: 204
OS2SupXOff: 0
OS2SupYOff: 286
OS2StrikeYSize: 50
OS2StrikeYPos: 250
OS2Vendor: 'YOM '
OS2CodePages: 60000001.80d40000
OS2UnicodeRanges: 8000002f.40000048.00000000.00000000
Lookup: 1 0 0 "'smcp' Bas-de-casse vers petites capitales dans Latin lookup 0" { "sous-table 'smcp' Bas-de-casse vers petites capitales dans Latin lookup 0"  } ['smcp' ('latn' <'dflt' > ) ]
Lookup: 1 0 0 "'c2sc' Capitales vers petites capitales dans Latin lookup 0" { "sous-table 'c2sc' Capitales vers petites capitales dans Latin lookup 0"  } ['c2sc' ('latn' <'dflt' > ) ]
Lookup: 1 0 0 "'sinf' Indices scientifiques lookups0" { "sous-table 'sinf' Indices scientifiques lookups0"  } ['sinf' ('DFLT' <'dflt' > ) ]
Lookup: 1 0 0 "'numr' Num+AOkA-rateurs lookups0" { "sous-table 'numr' Num+AOkA-rateurs lookups0"  } ['numr' ('DFLT' <'dflt' > ) ]
Lookup: 1 0 0 "'dnom' D+AOkA-nominateurs lookups0" { "sous-table 'dnom' D+AOkA-nominateurs lookups0"  } ['dnom' ('DFLT' <'dflt' > ) ]

StartChar: .notdef
Encoding: 229 -1 0
Width: 432
Flags: W
TeX: 0 0
HStem: 0 33<66 333> 633 33<66 333>
VStem: 33 33<33 633> 333 33<33 633>
LayerCount: 2
Fore
SplineSet
33 0 m 1,0,-1
 33 666 l 1,1,-1
 366 666 l 1,2,-1
 366 0 l 1,3,-1
 33 0 l 1,0,-1
66 33 m 1,4,-1
 333 33 l 1,5,-1
 333 633 l 1,6,-1
 66 633 l 1,7,-1
 66 33 l 1,4,-1
EndSplineSet
EndChar

StartChar: exclam
Encoding: 1 33 4
Width: 318
Flags: W
TeX: 721 6
HStem: -12 162<43.1785 111.276> 707 20G<249.75 281.25>
VStem: 2 150.5<28.0524 109.948>
LayerCount: 2
Fore
SplineSet
102 208 m 1,0,-1
 158 562 l 2,1,2
 169 632 169 632 173 648 c 0,3,4
 183 682 183 682 208.5 704.5 c 128,-1,5
 234 727 234 727 265.5 727 c 128,-1,6
 297 727 297 727 310 704.5 c 128,-1,7
 323 682 323 682 313 648 c 0,8,9
 308 632 308 632 279 562 c 2,10,-1
 132 208 l 1,11,-1
 102 208 l 1,0,-1
2 69 m 128,-1,13
 12 103 12 103 40.5 126.5 c 128,-1,14
 69 150 69 150 100.5 150 c 128,-1,15
 132 150 132 150 147 126.5 c 128,-1,16
 162 103 162 103 152.5 69 c 128,-1,17
 143 35 143 35 114 11.5 c 128,-1,18
 85 -12 85 -12 53.5 -12 c 128,-1,19
 22 -12 22 -12 7 11.5 c 128,-1,12
 -8 35 -8 35 2 69 c 128,-1,13
EndSplineSet
EndChar

StartChar: quotedbl
Encoding: 2 34 5
Width: 481
Flags: W
TeX: 727 -403
HStem: 396 331<124.044 171.956 309.044 356.956>
VStem: 96 104<458.453 719.38> 281 104<458.453 719.38>
LayerCount: 2
Fore
SplineSet
197 625 m 2,0,-1
 176 438 l 2,1,2
 172 396 172 396 148 396 c 128,-1,3
 124 396 124 396 120 438 c 2,4,-1
 99 625 l 2,5,6
 96 648 96 648 96 668 c 0,7,8
 96 727 96 727 148 727 c 128,-1,9
 200 727 200 727 200 668 c 0,10,11
 200 648 200 648 197 625 c 2,0,-1
382 625 m 2,12,-1
 361 438 l 2,13,14
 357 396 357 396 333 396 c 128,-1,15
 309 396 309 396 305 438 c 2,16,-1
 284 625 l 2,17,18
 281 648 281 648 281 668 c 0,19,20
 281 727 281 727 333 727 c 128,-1,21
 385 727 385 727 385 668 c 0,22,23
 385 648 385 648 382 625 c 2,12,-1
EndSplineSet
EndChar

StartChar: numbersign
Encoding: 3 35 6
Width: 556
Flags: W
TeX: 694 0
HStem: 0 21G<89 179.786 281 371.786> 201 84<27 117 217 309 409 499> 409 84<57 147 247 339 439 529> 674 20G<184.214 275 376.214 467>
LayerCount: 2
Fore
SplineSet
281 0 m 1,0,-1
 309 201 l 1,1,-1
 205 201 l 1,2,-1
 177 0 l 1,3,-1
 89 0 l 1,4,-1
 117 201 l 1,5,-1
 27 201 l 1,6,-1
 27 285 l 1,7,-1
 129 285 l 1,8,-1
 147 409 l 1,9,-1
 57 409 l 1,10,-1
 57 493 l 1,11,-1
 159 493 l 1,12,-1
 187 694 l 1,13,-1
 275 694 l 1,14,-1
 247 493 l 1,15,-1
 351 493 l 1,16,-1
 379 694 l 1,17,-1
 467 694 l 1,18,-1
 439 493 l 1,19,-1
 529 493 l 1,20,-1
 529 409 l 1,21,-1
 427 409 l 1,22,-1
 409 285 l 1,23,-1
 499 285 l 1,24,-1
 499 201 l 1,25,-1
 397 201 l 1,26,-1
 369 0 l 1,27,-1
 281 0 l 1,0,-1
321 285 m 1,28,-1
 339 409 l 1,29,-1
 235 409 l 1,30,-1
 217 285 l 1,31,-1
 321 285 l 1,28,-1
EndSplineSet
EndChar

StartChar: dollar
Encoding: 4 36 7
Width: 587
Flags: W
TeX: 800 106
HStem: -12 36<144.924 190> 497 21G<514 549.819> 670 36<319.008 386 435 451.743>
VStem: 514 31<497 526.05>
LayerCount: 2
Fore
SplineSet
309 266 m 1,0,-1
 239 24 l 1,1,2
 294 27 294 27 337 55 c 128,-1,3
 380 83 380 83 396 138 c 0,4,5
 409 184 409 184 385 212.5 c 128,-1,6
 361 241 361 241 309 266 c 1,0,-1
324 457 m 1,7,-1
 386 670 l 1,8,9
 340 670 340 670 301 641.5 c 128,-1,10
 262 613 262 613 249 565 c 0,11,12
 238 528 238 528 258 504 c 128,-1,13
 278 480 278 480 324 457 c 1,7,-1
165 -99 m 1,14,-1
 190 -12 l 1,15,16
 85 -10 85 -10 -2 34 c 1,17,-1
 48 234 l 1,18,-1
 79 234 l 1,19,20
 61 159 61 159 93 96 c 128,-1,21
 125 33 125 33 200 24 c 1,22,-1
 274 282 l 1,23,24
 245 295 245 295 230 303 c 128,-1,25
 215 311 215 311 191.5 326 c 128,-1,26
 168 341 168 341 156.5 356 c 128,-1,27
 145 371 145 371 134 391.5 c 128,-1,28
 123 412 123 412 123 438.5 c 128,-1,29
 123 465 123 465 132 497 c 0,30,31
 160 595 160 595 236 648.5 c 128,-1,32
 312 702 312 702 396 706 c 1,33,-1
 421 793 l 1,34,-1
 460 793 l 1,35,-1
 435 706 l 1,36,37
 492 703 492 703 585 663 c 1,38,-1
 545 497 l 1,39,-1
 514 497 l 1,40,41
 521 559 521 559 497 605 c 128,-1,42
 473 651 473 651 423 665 c 1,43,-1
 359 441 l 1,44,45
 388 428 388 428 403.5 419.5 c 128,-1,46
 419 411 419 411 444 395 c 128,-1,47
 469 379 469 379 481 362.5 c 128,-1,48
 493 346 493 346 503.5 322.5 c 128,-1,49
 514 299 514 299 513.5 268 c 128,-1,50
 513 237 513 237 503 200 c 0,51,52
 478 114 478 114 400.5 55 c 128,-1,53
 323 -4 323 -4 229 -12 c 1,54,-1
 204 -99 l 1,55,-1
 165 -99 l 1,14,-1
EndSplineSet
EndChar

StartChar: percent
Encoding: 5 37 8
Width: 733
Flags: W
TeX: 712 18
HStem: -12 36<457.862 532.797> 298 36<525.203 600.138> 360 36<130.868 205.83> 670 36<198.398 273.819> 702 20G<637.28 706>
LayerCount: 2
Fore
SplineSet
465 161 m 128,-1,1
 426 24 426 24 490 24 c 128,-1,2
 554 24 554 24 593 161 c 128,-1,3
 632 298 632 298 568 298 c 128,-1,0
 504 298 504 298 465 161 c 128,-1,1
368 161 m 128,-1,5
 390 237 390 237 449 285.5 c 128,-1,6
 508 334 508 334 578.5 334 c 128,-1,7
 649 334 649 334 680.5 285.5 c 128,-1,8
 712 237 712 237 690 161 c 128,-1,9
 668 85 668 85 609 36.5 c 128,-1,10
 550 -12 550 -12 479.5 -12 c 128,-1,11
 409 -12 409 -12 377.5 36.5 c 128,-1,4
 346 85 346 85 368 161 c 128,-1,5
41.5 533 m 128,-1,13
 63 609 63 609 122 657.5 c 128,-1,14
 181 706 181 706 252 706 c 128,-1,15
 323 706 323 706 354 657.5 c 128,-1,16
 385 609 385 609 363 533 c 128,-1,17
 341 457 341 457 282 408.5 c 128,-1,18
 223 360 223 360 152.5 360 c 128,-1,19
 82 360 82 360 51 408.5 c 128,-1,12
 20 457 20 457 41.5 533 c 128,-1,13
138 533 m 128,-1,21
 99 396 99 396 163 396 c 128,-1,22
 227 396 227 396 266.5 533 c 128,-1,23
 306 670 306 670 241.5 670 c 128,-1,20
 177 670 177 670 138 533 c 128,-1,21
27 -28 m 1,24,-1
 654 722 l 1,25,-1
 706 722 l 1,26,-1
 79 -28 l 1,27,-1
 27 -28 l 1,24,-1
EndSplineSet
EndChar

StartChar: ampersand
Encoding: 6 38 9
Width: 781
Flags: W
TeX: 721 12
HStem: -18 86<476.254 558.694> -18 70<151.467 274.088> 263 174<638.613 739.055> 653 29<505.364 577.125>
VStem: 6 138<106.887 261.015> 291 138<191.083 433.063> 585 77<553.403 650.041> 624 146<286.207 384.126>
LayerCount: 2
Fore
SplineSet
291 335 m 0,0,1
 291 385 291 385 295 434 c 1,2,3
 216 407 216 407 180 352 c 128,-1,4
 144 297 144 297 144 208 c 0,5,6
 144 139 144 139 172.5 95.5 c 128,-1,7
 201 52 201 52 258 52 c 0,8,9
 280 52 280 52 303 63.5 c 128,-1,10
 326 75 326 75 335 90 c 1,11,12
 291 208 291 208 291 335 c 0,0,1
585 609 m 128,-1,14
 585 653 585 653 548 653 c 0,15,16
 513 653 513 653 487 621.5 c 128,-1,17
 461 590 461 590 450 553.5 c 128,-1,18
 439 517 439 517 436 484 c 1,19,20
 493 498 493 498 539 531.5 c 128,-1,13
 585 565 585 565 585 609 c 128,-1,14
668 148 m 2,21,-1
 698 145 l 1,22,23
 596 -18 596 -18 473 -18 c 0,24,25
 437 -18 437 -18 405.5 6.5 c 128,-1,26
 374 31 374 31 356 70 c 1,27,28
 276 -18 276 -18 193.5 -18 c 128,-1,29
 111 -18 111 -18 58.5 32 c 128,-1,30
 6 82 6 82 6 164 c 0,31,32
 6 220 6 220 31.5 269.5 c 128,-1,33
 57 319 57 319 102.5 355 c 128,-1,34
 148 391 148 391 196.5 417 c 128,-1,35
 245 443 245 443 301 463 c 1,36,37
 311 512 311 512 344 560.5 c 128,-1,38
 377 609 377 609 434 645.5 c 128,-1,39
 491 682 491 682 554 682 c 0,40,41
 662 682 662 682 662 610 c 0,42,43
 662 584 662 584 646.5 561.5 c 128,-1,44
 631 539 631 539 606.5 524.5 c 128,-1,45
 582 510 582 510 551 496 c 128,-1,46
 520 482 520 482 490.5 474.5 c 128,-1,47
 461 467 461 467 435 459 c 1,48,49
 429 425 429 425 429 384 c 0,50,51
 429 284 429 284 441 188 c 1,52,-1
 539 331 l 2,53,54
 578 388 578 388 609 412.5 c 128,-1,55
 640 437 640 437 684 437 c 0,56,57
 718 437 718 437 744 411 c 128,-1,58
 770 385 770 385 770 346 c 0,59,60
 770 308 770 308 749.5 285.5 c 128,-1,61
 729 263 729 263 694 263 c 0,62,63
 624 263 624 263 624 333 c 0,64,65
 624 357 624 357 635 385 c 1,66,67
 618 383 618 383 603 372.5 c 128,-1,68
 588 362 588 362 577 349 c 128,-1,69
 566 336 566 336 553.5 319 c 128,-1,70
 541 302 541 302 532 285 c 2,71,-1
 447 158 l 1,72,73
 455 68 455 68 542 68 c 0,74,75
 565 67 565 67 586.5 76.5 c 128,-1,76
 608 86 608 86 616 92 c 128,-1,77
 624 98 624 98 645.5 122.5 c 128,-1,78
 667 147 667 147 668 148 c 2,21,-1
EndSplineSet
EndChar

StartChar: quoteright
Encoding: 212 8217 10
Width: 205
Flags: W
TeX: 727 -403
HStem: 571 156<242.907 303.188>
VStem: 203 161<592.659 687.436>
LayerCount: 2
Fore
SplineSet
167 396 m 1,0,-1
 163 424 l 1,1,2
 213 445 213 445 252.5 488 c 128,-1,3
 292 531 292 531 304 581 c 1,4,5
 278 571 278 571 254 571 c 0,6,7
 225 571 225 571 209.5 592 c 128,-1,8
 194 613 194 613 203 646 c 0,9,10
 213 682 213 682 242 704.5 c 128,-1,11
 271 727 271 727 305 727 c 0,12,13
 352 727 352 727 364 692 c 128,-1,14
 376 657 376 657 361 605 c 0,15,16
 341 535 341 535 289 481 c 128,-1,17
 237 427 237 427 167 396 c 1,0,-1
EndSplineSet
EndChar

StartChar: parenleft
Encoding: 8 40 11
Width: 410
Flags: W
TeX: 727 261
HStem: 707 20G<500.5 595.667>
LayerCount: 2
Fore
SplineSet
589 727 m 1,0,-1
 598 700 l 1,1,2
 374 553 374 553 282.5 233 c 128,-1,3
 191 -87 191 -87 330 -234 c 1,4,-1
 306 -261 l 1,5,6
 186 -161 186 -161 145 -42 c 128,-1,7
 104 77 104 77 148.5 233 c 128,-1,8
 193 389 193 389 302.5 508 c 128,-1,9
 412 627 412 627 589 727 c 1,0,-1
EndSplineSet
EndChar

StartChar: parenright
Encoding: 9 41 12
Width: 410
Flags: W
TeX: 727 261
HStem: 707 20G<220.481 299>
LayerCount: 2
Fore
SplineSet
-44 -261 m 1,0,-1
 -53 -234 l 1,1,2
 171 -87 171 -87 262.5 233 c 128,-1,3
 354 553 354 553 214 700 c 1,4,-1
 239 727 l 1,5,6
 359 627 359 627 399.5 508 c 128,-1,7
 440 389 440 389 395.5 233 c 128,-1,8
 351 77 351 77 242 -42 c 128,-1,9
 133 -161 133 -161 -44 -261 c 1,0,-1
EndSplineSet
EndChar

StartChar: asterisk
Encoding: 10 42 13
Width: 408
Flags: W
TeX: 715 -391
HStem: 396 120.5<96.7808 170.138 237.862 311.219> 533 114<49.9559 129.517 278.483 358.044> 707 20G<191.5 216.5>
VStem: 75 109.5<411.613 494.196> 144 120<626.508 715.137> 223.5 109.5<411.613 494.196>
LayerCount: 2
Fore
SplineSet
204 530 m 1,0,-1
 203 530 l 1,1,2
 196 507 196 507 191.5 477 c 128,-1,3
 187 447 187 447 184.5 432.5 c 128,-1,4
 182 418 182 418 170.5 407 c 128,-1,5
 159 396 159 396 136 396 c 0,6,7
 116 396 116 396 95.5 412.5 c 128,-1,8
 75 429 75 429 75 453 c 0,9,10
 75 478 75 478 91.5 491 c 128,-1,11
 108 504 108 504 138 516.5 c 128,-1,12
 168 529 168 529 185 544 c 1,13,14
 151 543 151 543 121 538 c 128,-1,15
 91 533 91 533 86 533 c 0,16,17
 35 533 35 533 35 579 c 0,18,19
 35 607 35 607 49.5 627 c 128,-1,20
 64 647 64 647 90 647 c 0,21,22
 111 647 111 647 143.5 611 c 128,-1,23
 176 575 176 575 190 570 c 1,24,25
 188 587 188 587 166 626.5 c 128,-1,26
 144 666 144 666 144 679 c 0,27,28
 144 704 144 704 161.5 715.5 c 128,-1,29
 179 727 179 727 204 727 c 128,-1,30
 229 727 229 727 246.5 715.5 c 128,-1,31
 264 704 264 704 264 679 c 0,32,33
 264 666 264 666 242 626.5 c 128,-1,34
 220 587 220 587 218 570 c 1,35,36
 232 575 232 575 264.5 611 c 128,-1,37
 297 647 297 647 318 647 c 0,38,39
 344 647 344 647 358.5 627 c 128,-1,40
 373 607 373 607 373 579 c 0,41,42
 373 533 373 533 322 533 c 0,43,44
 317 533 317 533 287 538 c 128,-1,45
 257 543 257 543 223 544 c 1,46,47
 240 529 240 529 270 516.5 c 128,-1,48
 300 504 300 504 316.5 491 c 128,-1,49
 333 478 333 478 333 453 c 0,50,51
 333 429 333 429 312.5 412.5 c 128,-1,52
 292 396 292 396 272 396 c 0,53,54
 249 396 249 396 237.5 407 c 128,-1,55
 226 418 226 418 223.5 432.5 c 128,-1,56
 221 447 221 447 216.5 477 c 128,-1,57
 212 507 212 507 204 530 c 1,0,-1
EndSplineSet
EndChar

StartChar: plus
Encoding: 11 43 14
Width: 600
Flags: W
TeX: 502 0
HStem: 0 21G<248 352> 201 104<47 248 352 553>
VStem: 248 104<0 201 305 506>
LayerCount: 2
Fore
SplineSet
248 0 m 1,0,-1
 248 201 l 1,1,-1
 47 201 l 1,2,-1
 47 305 l 1,3,-1
 248 305 l 1,4,-1
 248 506 l 1,5,-1
 352 506 l 1,6,-1
 352 305 l 1,7,-1
 553 305 l 1,8,-1
 553 201 l 1,9,-1
 352 201 l 1,10,-1
 352 0 l 1,11,-1
 248 0 l 1,0,-1
EndSplineSet
EndChar

StartChar: comma
Encoding: 12 44 15
Width: 278
Flags: W
TeX: 132 192
HStem: -6 156<73.1738 175.219>
VStem: 48 182<17.1602 111.681>
LayerCount: 2
Fore
SplineSet
86 -181 m 1,0,-1
 73 -153 l 1,1,2
 120 -132 120 -132 149.5 -89 c 128,-1,3
 179 -46 179 -46 176 4 c 1,4,5
 151 -6 151 -6 125 -6 c 0,6,7
 94 -6 94 -6 71 15 c 128,-1,8
 48 36 48 36 48 69 c 0,9,10
 48 105 48 105 72 127.5 c 128,-1,11
 96 150 96 150 132 150 c 0,12,13
 183 150 183 150 206.5 115 c 128,-1,14
 230 80 230 80 230 28 c 0,15,16
 230 -42 230 -42 191 -96 c 128,-1,17
 152 -150 152 -150 86 -181 c 1,0,-1
EndSplineSet
EndChar

StartChar: hyphen
Encoding: 13 45 16
Width: 407
Flags: W
TeX: 266 -206
HStem: 188 96<34 373>
LayerCount: 2
Fore
SplineSet
34 188 m 1,0,-1
 34 284 l 1,1,-1
 373 284 l 1,2,-1
 373 188 l 1,3,-1
 34 188 l 1,0,-1
EndSplineSet
EndChar

StartChar: period
Encoding: 14 46 17
Width: 278
Flags: W
TeX: 132 6
HStem: -12 162<83.7262 194.274>
VStem: 58 162<13.7262 124.274>
LayerCount: 2
Fore
SplineSet
58 69 m 128,-1,1
 58 103 58 103 81.5 126.5 c 128,-1,2
 105 150 105 150 139 150 c 128,-1,3
 173 150 173 150 196.5 126.5 c 128,-1,4
 220 103 220 103 220 69 c 128,-1,5
 220 35 220 35 196.5 11.5 c 128,-1,6
 173 -12 173 -12 139 -12 c 128,-1,7
 105 -12 105 -12 81.5 11.5 c 128,-1,0
 58 35 58 35 58 69 c 128,-1,1
EndSplineSet
EndChar

StartChar: slash
Encoding: 15 47 18
Width: 361
Flags: W
TeX: 727 12
HStem: 707 20G<454.388 565>
LayerCount: 2
Fore
SplineSet
1 -12 m 1,0,-1
 467 727 l 1,1,-1
 565 727 l 1,2,-1
 100 -12 l 1,3,-1
 1 -12 l 1,0,-1
EndSplineSet
EndChar

StartChar: zero
Encoding: 16 48 19
Width: 563
Flags: W
TeX: 706 12
HStem: -14 34<166.525 248.984> 674 34<346.035 428.26>
LayerCount: 2
Fore
SplineSet
76.322265625 347 m 128,-1,1
 94.322265625 409 94.322265625 409 122.822265625 469 c 128,-1,2
 151.322265625 529 151.322265625 529 191.822265625 585 c 128,-1,3
 232.322265625 641 232.322265625 641 286.822265625 674.5 c 128,-1,4
 341.322265625 708 341.322265625 708 400.322265625 708 c 128,-1,5
 459.322265625 708 459.322265625 708 494.322265625 674.5 c 128,-1,6
 529.322265625 641 529.322265625 641 538.322265625 585 c 128,-1,7
 547.322265625 529 547.322265625 529 541.322265625 469 c 128,-1,8
 535.322265625 409 535.322265625 409 517.822265625 347 c 128,-1,9
 500.322265625 285 500.322265625 285 471.322265625 225 c 128,-1,10
 442.322265625 165 442.322265625 165 402.322265625 109 c 128,-1,11
 362.322265625 53 362.322265625 53 308.322265625 19.5 c 128,-1,12
 254.322265625 -14 254.322265625 -14 194.822265625 -14 c 128,-1,13
 135.322265625 -14 135.322265625 -14 100.322265625 19.5 c 128,-1,14
 65.322265625 53 65.322265625 53 55.822265625 109 c 128,-1,15
 46.322265625 165 46.322265625 165 52.322265625 225 c 128,-1,0
 58.322265625 285 58.322265625 285 76.322265625 347 c 128,-1,1
221.322265625 347 m 128,-1,17
 164.322265625 149 164.322265625 149 158.322265625 84.5 c 128,-1,18
 152.322265625 20 152.322265625 20 202.822265625 20 c 128,-1,19
 253.322265625 20 253.322265625 20 284.822265625 84.5 c 128,-1,20
 316.322265625 149 316.322265625 149 373.322265625 347 c 128,-1,21
 430.322265625 545 430.322265625 545 436.322265625 609.5 c 128,-1,22
 442.322265625 674 442.322265625 674 391.822265625 674 c 128,-1,23
 341.322265625 674 341.322265625 674 309.822265625 609.5 c 128,-1,16
 278.322265625 545 278.322265625 545 221.322265625 347 c 128,-1,17
EndSplineSet
Substitution2: "sous-table 'sinf' Indices scientifiques lookups0" zero.inferior
Substitution2: "sous-table 'numr' Num+AOkA-rateurs lookups0" zero.numerator
Substitution2: "sous-table 'dnom' D+AOkA-nominateurs lookups0" zero.denominator
Substitution2: "sous-table 'subs' Indice lookups0" zero.subscript
Substitution2: "sous-table 'sups' Exposant lookups0" zero.superior
EndChar

StartChar: one
Encoding: 17 49 20
Width: 553
Flags: W
TeX: 715 0
HStem: 0 33<34 126 279 355> 489 21G<176.846 213>
LayerCount: 2
Fore
SplineSet
25 0 m 1,0,-1
 34 33 l 1,1,-1
 126 33 l 1,2,-1
 277 560 l 1,3,4
 243 530 243 530 183 489 c 1,5,-1
 175 515 l 1,6,7
 238 555 238 555 314.5 614 c 128,-1,8
 391 673 391 673 428 709 c 1,9,-1
 473 709 l 1,10,-1
 279 33 l 1,11,-1
 364 33 l 1,12,-1
 355 0 l 1,13,-1
 25 0 l 1,0,-1
EndSplineSet
Substitution2: "sous-table 'sinf' Indices scientifiques lookups0" one.inferior
Substitution2: "sous-table 'numr' Num+AOkA-rateurs lookups0" one.numerator
Substitution2: "sous-table 'dnom' D+AOkA-nominateurs lookups0" one.denominator
Substitution2: "sous-table 'subs' Indice lookups0" one.subscript
Substitution2: "sous-table 'sups' Exposant lookups0" one.superior
EndChar

StartChar: two
Encoding: 18 50 21
Width: 656
Flags: W
TeX: 706 0
HStem: 0 127<205.357 396.357> 651 55<325.422 507.357>
LayerCount: 2
Fore
SplineSet
228.357421875 569 m 1,0,1
 224.357421875 544 224.357421875 544 231.357421875 549 c 0,2,3
 243.357421875 557 243.357421875 557 261.357421875 565 c 0,4,5
 275.357421875 571 275.357421875 571 288.357421875 571 c 0,6,7
 343.357421875 571 343.357421875 571 321.357421875 505 c 0,8,9
 308.357421875 466 308.357421875 466 287.357421875 449.5 c 0,10,11
 264.357421875 431 264.357421875 431 236.357421875 431 c 0,12,13
 199.357421875 431 199.357421875 431 185.357421875 463 c 0,14,15
 170.357421875 496 170.357421875 496 188.357421875 543 c 0,16,17
 223.357421875 636 223.357421875 636 292.357421875 670 c 0,18,19
 364.357421875 706 364.357421875 706 462.357421875 706 c 0,20,21
 552.357421875 706 552.357421875 706 595.857421875 654 c 0,22,23
 637.357421875 604 637.357421875 604 610.357421875 516 c 0,24,25
 586.357421875 439 586.357421875 439 535.357421875 400.5 c 0,26,27
 448.357421875 336 448.357421875 336 404.357421875 299 c 0,28,29
 205.357421875 127 l 5,30,-1
 350.357421875 127 l 2,31,32
 405.357421875 127 405.357421875 127 446.856445312 153.163085938 c 0,33,34
 487.357421875 179 487.357421875 179 512.357421875 216 c 1,35,-1
 534.357421875 208 l 1,36,-1
 396.357421875 0 l 1,37,-1
 -4.642578125 0 l 1,38,-1
 0.357421875 32 l 1,39,-1
 188.357421875 171 l 2,40,41
 227.357421875 199 227.357421875 199 274.357421875 238 c 0,42,43
 306.357421875 264 306.357421875 264 352.357421875 307 c 128,-1,44
 398.357421875 350 398.357421875 350 427.357421875 394 c 0,45,46
 454.357421875 435 454.357421875 435 469.357421875 484 c 0,47,48
 491.357421875 557 491.357421875 557 472.857421875 603 c 0,49,50
 453.357421875 651 453.357421875 651 387.857421875 651 c 128,-1,51
 322.357421875 651 322.357421875 651 283.357421875 631 c 128,-1,52
 244.357421875 611 244.357421875 611 228.357421875 569 c 1,0,1
EndSplineSet
Substitution2: "sous-table 'sinf' Indices scientifiques lookups0" two.inferior
Substitution2: "sous-table 'numr' Num+AOkA-rateurs lookups0" two.numerator
Substitution2: "sous-table 'dnom' D+AOkA-nominateurs lookups0" two.denominator
Substitution2: "sous-table 'subs' Indice lookups0" two.subscript
Substitution2: "sous-table 'sups' Exposant lookups0" two.superior
EndChar

StartChar: three
Encoding: 19 51 22
Width: 594
Flags: W
TeX: 694 12
HStem: -13 29<-20 53.8149> 391 33<166.515 204.222> 628 87<270.457 393.5>
VStem: 288 154<214.802 362.314> 358 146<538.569 610.079>
LayerCount: 2
Fore
SplineSet
168 391 m 1,0,-1
 161 424 l 1,1,2
 185 433 185 433 211 440 c 128,-1,3
 237 447 237 447 263.5 459.5 c 128,-1,4
 290 472 290 472 310.5 485 c 128,-1,5
 331 498 331 498 344.5 519 c 128,-1,6
 358 540 358 540 358 565 c 128,-1,7
 358 590 358 590 339 609 c 128,-1,8
 320 628 320 628 285 628 c 0,9,10
 239 628 239 628 166 575 c 1,11,-1
 149 595 l 1,12,13
 251 715 251 715 365 715 c 0,14,15
 422 715 422 715 463 683 c 128,-1,16
 504 651 504 651 504 597 c 0,17,18
 504 544 504 544 444 505 c 128,-1,19
 384 466 384 466 301 445 c 1,20,-1
 301 443 l 1,21,22
 442 407 442 407 442 300 c 0,23,24
 442 237 442 237 396 177.5 c 128,-1,25
 350 118 350 118 280 77.5 c 128,-1,26
 210 37 210 37 129.5 12 c 128,-1,27
 49 -13 49 -13 -20 -13 c 1,28,-1
 -20 16 l 1,29,30
 89 23 89 23 188.5 107 c 128,-1,31
 288 191 288 191 288 289 c 0,32,33
 288 327 288 327 267 361 c 128,-1,34
 246 395 246 395 205 395 c 0,35,36
 180 395 180 395 168 391 c 1,0,-1
EndSplineSet
Substitution2: "sous-table 'sinf' Indices scientifiques lookups0" three.inferior
Substitution2: "sous-table 'numr' Num+AOkA-rateurs lookups0" three.numerator
Substitution2: "sous-table 'dnom' D+AOkA-nominateurs lookups0" three.denominator
Substitution2: "sous-table 'subs' Indice lookups0" three.subscript
Substitution2: "sous-table 'sups' Exposant lookups0" three.superior
EndChar

StartChar: four
Encoding: 20 52 23
Width: 556
Flags: W
TeX: 715 0
HStem: 0 21G<188 330.758> 198 82<103 247 407 459>
LayerCount: 2
Fore
SplineSet
359 545 m 1,0,-1
 357 545 l 1,1,-1
 103 280 l 1,2,-1
 276 280 l 1,3,-1
 359 545 l 1,0,-1
23 237 m 1,4,-1
 468 706 l 1,5,-1
 532 706 l 1,6,-1
 407 280 l 1,7,-1
 484 280 l 1,8,-1
 459 198 l 1,9,-1
 382 198 l 1,10,-1
 325 0 l 1,11,-1
 188 0 l 1,12,-1
 247 198 l 1,13,-1
 23 198 l 1,14,-1
 23 237 l 1,4,-1
EndSplineSet
Substitution2: "sous-table 'sinf' Indices scientifiques lookups0" four.inferior
Substitution2: "sous-table 'numr' Num+AOkA-rateurs lookups0" four.numerator
Substitution2: "sous-table 'dnom' D+AOkA-nominateurs lookups0" four.denominator
Substitution2: "sous-table 'subs' Indice lookups0" four.subscript
Substitution2: "sous-table 'sups' Exposant lookups0" four.superior
EndChar

StartChar: five
Encoding: 21 53 24
Width: 556
Flags: W
TeX: 762 12
HStem: -12 30<-36 39.0586> 572 122<236 454>
VStem: 180 41<484 566.906> 269 144<212.238 381.725> 486 30<713.048 731>
LayerCount: 2
Fore
SplineSet
454 572 m 1,0,-1
 231 572 l 1,1,2
 228 561 228 561 224.5 544.5 c 128,-1,3
 221 528 221 528 221 515 c 0,4,5
 221 503 221 503 229.5 495.5 c 128,-1,6
 238 488 238 488 248 484 c 0,7,8
 281 472 281 472 311 455.5 c 128,-1,9
 341 439 341 439 363.5 417 c 128,-1,10
 386 395 386 395 399.5 366.5 c 128,-1,11
 413 338 413 338 413 302 c 0,12,13
 413 224 413 224 371 166.5 c 128,-1,14
 329 109 329 109 263.5 70.5 c 128,-1,15
 198 32 198 32 118.5 11.5 c 128,-1,16
 39 -9 39 -9 -36 -12 c 1,17,-1
 -36 18 l 1,18,19
 37 25 37 25 94 55 c 128,-1,20
 151 85 151 85 190 126.5 c 128,-1,21
 229 168 229 168 249 216.5 c 128,-1,22
 269 265 269 265 269 310 c 0,23,24
 269 352 269 352 250.5 384.5 c 128,-1,25
 232 417 232 417 201 448 c 0,26,27
 190 459 190 459 185 466 c 128,-1,28
 180 473 180 473 180 484 c 0,29,30
 180 492 180 492 182 501 c 128,-1,31
 184 510 184 510 189 528 c 2,32,-1
 236 694 l 1,33,-1
 434 694 l 2,34,35
 449 694 449 694 459 698 c 128,-1,36
 469 702 469 702 474.5 708 c 128,-1,37
 480 714 480 714 482.5 720 c 128,-1,38
 485 726 485 726 486 731 c 1,39,-1
 516 731 l 1,40,-1
 454 572 l 1,0,-1
EndSplineSet
Substitution2: "sous-table 'sinf' Indices scientifiques lookups0" five.inferior
Substitution2: "sous-table 'numr' Num+AOkA-rateurs lookups0" five.numerator
Substitution2: "sous-table 'dnom' D+AOkA-nominateurs lookups0" five.denominator
Substitution2: "sous-table 'subs' Indice lookups0" five.subscript
Substitution2: "sous-table 'sups' Exposant lookups0" five.superior
EndChar

StartChar: six
Encoding: 22 54 25
Width: 636
Flags: W
TeX: 706 12
HStem: -15 29<208.497 310.963> 373 70<312.757 432.5> 696 20G<531 583.333>
VStem: 51 120<83.5491 235.473> 416 146<186.649 343.008>
LayerCount: 2
Fore
SplineSet
575 716 m 1,0,-1
 585 692 l 1,1,2
 483 647 483 647 402 569 c 128,-1,3
 321 491 321 491 272 393 c 1,4,-1
 274 391 l 1,5,6
 323 443 323 443 399 443 c 0,7,8
 466 443 466 443 514 403 c 128,-1,9
 562 363 562 363 562 282 c 0,10,11
 562 251 562 251 550 213 c 128,-1,12
 538 175 538 175 513 134.5 c 128,-1,13
 488 94 488 94 451.5 61 c 128,-1,14
 415 28 415 28 361 6.5 c 128,-1,15
 307 -15 307 -15 245 -15 c 0,16,17
 151 -15 151 -15 101 41.5 c 128,-1,18
 51 98 51 98 51 183 c 0,19,20
 51 266 51 266 101 351 c 128,-1,21
 151 436 151 436 229 504.5 c 128,-1,22
 307 573 307 573 397 628 c 128,-1,23
 487 683 487 683 575 716 c 1,0,-1
416 264 m 0,24,25
 416 309 416 309 395.5 341 c 128,-1,26
 375 373 375 373 331 373 c 0,27,28
 285 373 285 373 251 340 c 128,-1,29
 217 307 217 307 201 261 c 128,-1,30
 185 215 185 215 178 178.5 c 128,-1,31
 171 142 171 142 171 122 c 0,32,33
 171 78 171 78 192 46 c 128,-1,34
 213 14 213 14 258 14 c 0,35,36
 297 14 297 14 329 40.5 c 128,-1,37
 361 67 361 67 379 107 c 128,-1,38
 397 147 397 147 406.5 188 c 128,-1,39
 416 229 416 229 416 264 c 0,24,25
EndSplineSet
Substitution2: "sous-table 'sinf' Indices scientifiques lookups0" six.inferior
Substitution2: "sous-table 'numr' Num+AOkA-rateurs lookups0" six.numerator
Substitution2: "sous-table 'dnom' D+AOkA-nominateurs lookups0" six.denominator
Substitution2: "sous-table 'subs' Indice lookups0" six.subscript
Substitution2: "sous-table 'sups' Exposant lookups0" six.superior
EndChar

StartChar: seven
Encoding: 23 55 26
Width: 590
Flags: W
TeX: 694 0
HStem: 0 21G<131 287> 503 21G<151 188.5> 565 129<215.116 506>
VStem: 151 31<503 524.918>
LayerCount: 2
Fore
SplineSet
278 0 m 1,0,-1
 131 0 l 1,1,2
 166 83 166 83 244 203.5 c 128,-1,3
 322 324 322 324 369.5 386.5 c 128,-1,4
 417 449 417 449 506 565 c 1,5,-1
 279 565 l 2,6,7
 234 565 234 565 214.5 553.5 c 128,-1,8
 195 542 195 542 182 503 c 1,9,-1
 151 503 l 1,10,-1
 212 694 l 1,11,-1
 587 694 l 1,12,13
 508 539 508 539 462 445.5 c 128,-1,14
 416 352 416 352 356 214 c 128,-1,15
 296 76 296 76 278 0 c 1,0,-1
EndSplineSet
Substitution2: "sous-table 'sinf' Indices scientifiques lookups0" seven.inferior
Substitution2: "sous-table 'numr' Num+AOkA-rateurs lookups0" seven.numerator
Substitution2: "sous-table 'dnom' D+AOkA-nominateurs lookups0" seven.denominator
Substitution2: "sous-table 'subs' Indice lookups0" seven.subscript
Substitution2: "sous-table 'sups' Exposant lookups0" seven.superior
EndChar

StartChar: eight
Encoding: 24 56 27
Width: 701
Flags: W
TeX: 706 12
HStem: -15 29<218.887 355.01> 678 29<388.209 511.566>
VStem: 46 111<65.5855 208.682> 213 129<498.351 612.828> 407 138<104.438 227.694> 558 103<506.311 636.976>
LayerCount: 2
Fore
SplineSet
342 585 m 0,0,1
 342 556 342 556 353 525 c 128,-1,2
 364 494 364 494 380 470 c 128,-1,3
 396 446 396 446 413 418 c 1,4,5
 558 466 558 466 558 572 c 0,6,7
 558 619 558 619 531.5 648.5 c 128,-1,8
 505 678 505 678 448 678 c 0,9,10
 399 678 399 678 370.5 651 c 128,-1,11
 342 624 342 624 342 585 c 0,0,1
46 136 m 0,12,13
 46 267 46 267 300 371 c 1,14,15
 249 432 249 432 231 470 c 128,-1,16
 213 508 213 508 213 545 c 0,17,18
 213 613 213 613 286.5 660 c 128,-1,19
 360 707 360 707 452 707 c 0,20,21
 539 707 539 707 600 671 c 128,-1,22
 661 635 661 635 661 571 c 0,23,24
 661 537 661 537 642 510 c 128,-1,25
 623 483 623 483 582 460.5 c 128,-1,26
 541 438 541 438 513.5 426 c 128,-1,27
 486 414 486 414 431 395 c 1,28,29
 545 267 545 267 545 188 c 0,30,31
 545 105 545 105 471.5 45 c 128,-1,32
 398 -15 398 -15 291 -15 c 0,33,34
 190 -15 190 -15 118 23.5 c 128,-1,35
 46 62 46 62 46 136 c 0,12,13
157 143 m 0,36,37
 157 86 157 86 189.5 50 c 128,-1,38
 222 14 222 14 287 14 c 0,39,40
 349 14 349 14 378 45 c 128,-1,41
 407 76 407 76 407 128 c 0,42,43
 407 168 407 168 391.5 211 c 128,-1,44
 376 254 376 254 363.5 277.5 c 128,-1,45
 351 301 351 301 318 350 c 1,46,47
 247 318 247 318 202 262 c 128,-1,48
 157 206 157 206 157 143 c 0,36,37
EndSplineSet
Substitution2: "sous-table 'sinf' Indices scientifiques lookups0" eight.inferior
Substitution2: "sous-table 'numr' Num+AOkA-rateurs lookups0" eight.numerator
Substitution2: "sous-table 'dnom' D+AOkA-nominateurs lookups0" eight.denominator
Substitution2: "sous-table 'subs' Indice lookups0" eight.subscript
Substitution2: "sous-table 'sups' Exposant lookups0" eight.superior
EndChar

StartChar: nine
Encoding: 25 57 28
Width: 636
Flags: W
TeX: 706 12
HStem: 249 70<233.5 353.243> 678 29<355.037 457.503>
VStem: 104 146<348.992 505.351> 495 120<456.527 608.451>
LayerCount: 2
Fore
SplineSet
91 -24 m 1,0,-1
 81 0 l 1,1,2
 183 45 183 45 264 123 c 128,-1,3
 345 201 345 201 394 299 c 1,4,-1
 392 301 l 1,5,6
 343 249 343 249 267 249 c 0,7,8
 200 249 200 249 152 289 c 128,-1,9
 104 329 104 329 104 410 c 0,10,11
 104 441 104 441 116 479 c 128,-1,12
 128 517 128 517 153 557.5 c 128,-1,13
 178 598 178 598 214.5 631 c 128,-1,14
 251 664 251 664 305 685.5 c 128,-1,15
 359 707 359 707 421 707 c 0,16,17
 515 707 515 707 565 650.5 c 128,-1,18
 615 594 615 594 615 509 c 0,19,20
 615 426 615 426 565 341 c 128,-1,21
 515 256 515 256 437 187.5 c 128,-1,22
 359 119 359 119 269 64 c 128,-1,23
 179 9 179 9 91 -24 c 1,0,-1
250 428 m 0,24,25
 250 383 250 383 270.5 351 c 128,-1,26
 291 319 291 319 335 319 c 0,27,28
 381 319 381 319 415 352 c 128,-1,29
 449 385 449 385 465 431 c 128,-1,30
 481 477 481 477 488 513.5 c 128,-1,31
 495 550 495 550 495 570 c 0,32,33
 495 614 495 614 474 646 c 128,-1,34
 453 678 453 678 408 678 c 0,35,36
 369 678 369 678 337 651.5 c 128,-1,37
 305 625 305 625 287 585 c 128,-1,38
 269 545 269 545 259.5 504 c 128,-1,39
 250 463 250 463 250 428 c 0,24,25
EndSplineSet
Substitution2: "sous-table 'sinf' Indices scientifiques lookups0" nine.inferior
Substitution2: "sous-table 'numr' Num+AOkA-rateurs lookups0" nine.numerator
Substitution2: "sous-table 'dnom' D+AOkA-nominateurs lookups0" nine.denominator
Substitution2: "sous-table 'subs' Indice lookups0" nine.subscript
Substitution2: "sous-table 'sups' Exposant lookups0" nine.superior
EndChar

StartChar: colon
Encoding: 26 58 29
Width: 256
Flags: W
TeX: 461 6
HStem: -12 162<113.724 181.822> 334 162<213.178 281.82>
VStem: 72.5 150.5<28.0524 109.948> 172 150.5<374.052 455.948>
LayerCount: 2
Fore
SplineSet
172 415 m 128,-1,1
 182 449 182 449 210.5 472.5 c 128,-1,2
 239 496 239 496 270.5 496 c 128,-1,3
 302 496 302 496 317 472.5 c 128,-1,4
 332 449 332 449 322.5 415 c 128,-1,5
 313 381 313 381 284.5 357.5 c 128,-1,6
 256 334 256 334 224 334 c 128,-1,7
 192 334 192 334 177 357.5 c 128,-1,0
 162 381 162 381 172 415 c 128,-1,1
72.5 69 m 128,-1,9
 82 103 82 103 111 126.5 c 128,-1,10
 140 150 140 150 171.5 150 c 128,-1,11
 203 150 203 150 218 126.5 c 128,-1,12
 233 103 233 103 223 69 c 128,-1,13
 213 35 213 35 184.5 11.5 c 128,-1,14
 156 -12 156 -12 124.5 -12 c 128,-1,15
 93 -12 93 -12 78 11.5 c 128,-1,8
 63 35 63 35 72.5 69 c 128,-1,9
EndSplineSet
EndChar

StartChar: semicolon
Encoding: 27 59 30
Width: 256
Flags: W
TeX: 461 192
HStem: -6 156<102.907 163.188> 334 162<213.178 281.82>
VStem: 63 161<15.6592 110.436> 172 150.5<374.052 455.948>
LayerCount: 2
Fore
SplineSet
27 -181 m 1,0,-1
 23 -153 l 1,1,2
 73 -132 73 -132 112.5 -89 c 128,-1,3
 152 -46 152 -46 164 4 c 1,4,5
 138 -6 138 -6 114 -6 c 0,6,7
 85 -6 85 -6 69.5 15 c 128,-1,8
 54 36 54 36 63 69 c 0,9,10
 73 105 73 105 102 127.5 c 128,-1,11
 131 150 131 150 165 150 c 0,12,13
 212 150 212 150 224 115 c 128,-1,14
 236 80 236 80 221 28 c 0,15,16
 201 -42 201 -42 149 -96 c 128,-1,17
 97 -150 97 -150 27 -181 c 1,0,-1
172 415 m 128,-1,19
 182 449 182 449 210.5 472.5 c 128,-1,20
 239 496 239 496 270.5 496 c 128,-1,21
 302 496 302 496 317 472.5 c 128,-1,22
 332 449 332 449 322.5 415 c 128,-1,23
 313 381 313 381 284.5 357.5 c 128,-1,24
 256 334 256 334 224 334 c 128,-1,25
 192 334 192 334 177 357.5 c 128,-1,18
 162 381 162 381 172 415 c 128,-1,19
EndSplineSet
EndChar

StartChar: less
Encoding: 28 60 31
Width: 600
Flags: W
TeX: 514 12
LayerCount: 2
Fore
SplineSet
553 514 m 1,0,-1
 553 412 l 1,1,-1
 181 253 l 1,2,-1
 553 94 l 1,3,-1
 553 -8 l 1,4,-1
 47 210 l 1,5,-1
 47 296 l 1,6,-1
 553 514 l 1,0,-1
EndSplineSet
EndChar

StartChar: equal
Encoding: 29 61 32
Width: 600
Flags: W
TeX: 384 -118
HStem: 97 104<47 553> 305 104<47 553>
LayerCount: 2
Fore
SplineSet
47 305 m 1,0,-1
 47 409 l 1,1,-1
 553 409 l 1,2,-1
 553 305 l 1,3,-1
 47 305 l 1,0,-1
47 97 m 1,4,-1
 47 201 l 1,5,-1
 553 201 l 1,6,-1
 553 97 l 1,7,-1
 47 97 l 1,4,-1
EndSplineSet
EndChar

StartChar: greater
Encoding: 30 62 33
Width: 600
Flags: W
TeX: 514 12
LayerCount: 2
Fore
SplineSet
47 -8 m 1,0,-1
 47 94 l 1,1,-1
 419 253 l 1,2,-1
 47 412 l 1,3,-1
 47 514 l 1,4,-1
 553 296 l 1,5,-1
 553 210 l 1,6,-1
 47 -8 l 1,0,-1
EndSplineSet
EndChar

StartChar: question
Encoding: 31 63 34
Width: 445
Flags: W
TeX: 721 6
HStem: -12 162<191.18 259.822> 697 30<372.551 456.033>
VStem: 150.5 150.5<28.0524 109.948>
LayerCount: 2
Fore
SplineSet
245 208 m 1,0,-1
 255 242 l 2,1,2
 264 272 264 272 276 293.5 c 128,-1,3
 288 315 288 315 301.5 328 c 128,-1,4
 315 341 315 341 329.5 352 c 128,-1,5
 344 363 344 363 359.5 376.5 c 128,-1,6
 375 390 375 390 390 408 c 128,-1,7
 405 426 405 426 420 457.5 c 128,-1,8
 435 489 435 489 447 531 c 0,9,10
 458 568 458 568 462.5 588.5 c 128,-1,11
 467 609 467 609 468.5 638.5 c 128,-1,12
 470 668 470 668 456.5 682.5 c 128,-1,13
 443 697 443 697 415 697 c 0,14,15
 395 697 395 697 378.5 686.5 c 128,-1,16
 362 676 362 676 356 657 c 0,17,18
 353 648 353 648 351.5 625 c 128,-1,19
 350 602 350 602 347 591 c 0,20,21
 339 562 339 562 319.5 546.5 c 128,-1,22
 300 531 300 531 274 531 c 128,-1,23
 248 531 248 531 238.5 551 c 128,-1,24
 229 571 229 571 238 602 c 0,25,26
 255 660 255 660 315 693.5 c 128,-1,27
 375 727 375 727 432 727 c 0,28,29
 632 727 632 727 574 526 c 0,30,31
 560 476 560 476 534.5 440 c 128,-1,32
 509 404 509 404 481.5 386 c 128,-1,33
 454 368 454 368 422.5 353 c 128,-1,34
 391 338 391 338 366 327.5 c 128,-1,35
 341 317 341 317 320 297.5 c 128,-1,36
 299 278 299 278 291 251 c 2,37,-1
 279 208 l 1,38,-1
 245 208 l 1,0,-1
150.5 69 m 128,-1,40
 160 103 160 103 188.5 126.5 c 128,-1,41
 217 150 217 150 249 150 c 128,-1,42
 281 150 281 150 296 126.5 c 128,-1,43
 311 103 311 103 301 69 c 128,-1,44
 291 35 291 35 262.5 11.5 c 128,-1,45
 234 -12 234 -12 202.5 -12 c 128,-1,46
 171 -12 171 -12 156 11.5 c 128,-1,39
 141 35 141 35 150.5 69 c 128,-1,40
EndSplineSet
EndChar

StartChar: at
Encoding: 32 64 35
Width: 800
Flags: W
TeX: 727 12
HStem: -12 72<317.727 555.389> 157 60<299.5 420.756> 157 48<556.425 631.829> 491 60<414.234 501.646> 655 72<312.251 537.178>
VStem: 30 114<229.031 474.625> 248 90<233.796 401.43> 510 44<243 423> 698 72<300.814 503.789>
LayerCount: 2
Fore
SplineSet
338 306 m 0,0,1
 338 266 338 266 354 241.5 c 128,-1,2
 370 217 370 217 392 217 c 0,3,4
 432 217 432 217 471 279 c 128,-1,5
 510 341 510 341 510 423 c 0,6,7
 510 491 510 491 468 491 c 0,8,9
 425 491 425 491 381.5 436 c 128,-1,10
 338 381 338 381 338 306 c 0,0,1
533 499 m 1,11,-1
 543 535 l 1,12,-1
 622 535 l 1,13,-1
 561 285 l 2,14,15
 554 260 554 260 554 243 c 0,16,17
 554 205 554 205 589 205 c 0,18,19
 629 205 629 205 663.5 273 c 128,-1,20
 698 341 698 341 698 410 c 0,21,22
 698 505 698 505 620.5 580 c 128,-1,23
 543 655 543 655 420 655 c 0,24,25
 380 655 380 655 342 644.5 c 128,-1,26
 304 634 304 634 267.5 609.5 c 128,-1,27
 231 585 231 585 204 549.5 c 128,-1,28
 177 514 177 514 160.5 460 c 128,-1,29
 144 406 144 406 144 341 c 0,30,31
 144 219 144 219 228.5 139.5 c 128,-1,32
 313 60 313 60 430 60 c 0,33,34
 542 60 542 60 642 111 c 1,35,-1
 654 53 l 1,36,37
 533 -12 533 -12 431 -12 c 0,38,39
 351 -12 351 -12 282.5 11 c 128,-1,40
 214 34 214 34 168.5 71 c 128,-1,41
 123 108 123 108 91 155 c 128,-1,42
 59 202 59 202 44.5 249 c 128,-1,43
 30 296 30 296 30 341 c 0,44,45
 30 510 30 510 144 618.5 c 128,-1,46
 258 727 258 727 420 727 c 0,47,48
 568 727 568 727 669 636.5 c 128,-1,49
 770 546 770 546 770 411 c 0,50,51
 770 320 770 320 715 238.5 c 128,-1,52
 660 157 660 157 573 157 c 0,53,54
 544 157 544 157 525 163.5 c 128,-1,55
 506 170 506 170 496.5 184.5 c 128,-1,56
 487 199 487 199 484 207 c 128,-1,57
 481 215 481 215 476 234 c 1,58,-1
 474 234 l 1,59,60
 466 214 466 214 430 185.5 c 128,-1,61
 394 157 394 157 351 157 c 0,62,63
 248 157 248 157 248 288 c 0,64,65
 248 330 248 330 261 375 c 128,-1,66
 274 420 274 420 298.5 460 c 128,-1,67
 323 500 323 500 364 525.5 c 128,-1,68
 405 551 405 551 455 551 c 0,69,70
 517 551 517 551 531 499 c 1,71,-1
 533 499 l 1,11,-1
EndSplineSet
EndChar

StartChar: A
Encoding: 33 65 36
Width: 617
Flags: W
TeX: 727 0
HStem: 0 30<-81 -10 26 109 234 328 490 558> 236 30<169 319> 695 20G<404.533 452.139>
VStem: 328 162<30 152.949>
LayerCount: 2
Fore
SplineSet
-90 0 m 1,0,-1
 -81 30 l 1,1,-1
 -10 30 l 1,2,-1
 417 715 l 1,3,-1
 451 715 l 1,4,-1
 490 30 l 1,5,-1
 567 30 l 1,6,-1
 558 0 l 1,7,-1
 225 0 l 1,8,-1
 234 30 l 1,9,-1
 328 30 l 1,10,-1
 321 236 l 1,11,-1
 151 236 l 1,12,-1
 26 30 l 1,13,-1
 118 30 l 1,14,-1
 109 0 l 1,15,-1
 -90 0 l 1,0,-1
319 266 m 1,16,-1
 311 497 l 1,17,-1
 309 497 l 1,18,-1
 169 266 l 1,19,-1
 319 266 l 1,16,-1
EndSplineSet
Substitution2: "sous-table 'c2sc' Capitales vers petites capitales dans Latin lookup 0" a.sc
EndChar

StartChar: B
Encoding: 34 66 37
Width: 716
Flags: W
TeX: 715 0
HStem: 0 30<-36.2881 52.7119 197.712 336.147> 375 30<305.712 436.077> 685 30<159.712 240.712 385.712 508.731>
LayerCount: 2
Fore
SplineSet
296.711914062 375 m 1,0,-1
 197.711914062 30 l 1,1,-1
 250.711914062 30 l 2,2,3
 331.711914062 30 331.711914062 30 382.211914062 71 c 128,-1,4
 432.711914062 112 432.711914062 112 460.711914062 211 c 0,5,6
 485.711914062 299 485.711914062 299 465.211914062 337 c 128,-1,7
 444.711914062 375 444.711914062 375 365.711914062 375 c 2,8,-1
 296.711914062 375 l 1,0,-1
385.711914062 685 m 1,9,-1
 305.711914062 405 l 1,10,-1
 364.711914062 405 l 2,11,12
 426.711914062 405 426.711914062 405 462.711914062 437 c 128,-1,13
 498.711914062 469 498.711914062 469 519.711914062 544 c 0,14,15
 541.711914062 620 541.711914062 620 525.211914062 652.5 c 128,-1,16
 508.711914062 685 508.711914062 685 439.711914062 685 c 2,17,-1
 385.711914062 685 l 1,9,-1
-45.2880859375 0 m 1,18,-1
 -36.2880859375 30 l 1,19,-1
 52.7119140625 30 l 1,20,-1
 240.711914062 685 l 1,21,-1
 151.711914062 685 l 1,22,-1
 159.711914062 715 l 1,23,-1
 511.711914062 715 l 2,24,25
 610.711914062 715 610.711914062 715 656.211914062 683.5 c 128,-1,26
 701.711914062 652 701.711914062 652 677.711914062 568 c 0,27,28
 654.711914062 488 654.711914062 488 591.711914062 445.5 c 128,-1,29
 528.711914062 403 528.711914062 403 449.711914062 397 c 1,30,-1
 449.711914062 395 l 1,31,32
 508.711914062 393 508.711914062 393 550.711914062 373 c 128,-1,33
 592.711914062 353 592.711914062 353 612.211914062 307 c 128,-1,34
 631.711914062 261 631.711914062 261 612.711914062 196 c 0,35,36
 587.711914062 108 587.711914062 108 514.211914062 54 c 128,-1,37
 440.711914062 0 440.711914062 0 325.711914062 0 c 2,38,-1
 -45.2880859375 0 l 1,18,-1
EndSplineSet
Substitution2: "sous-table 'c2sc' Capitales vers petites capitales dans Latin lookup 0" b.sc
EndChar

StartChar: C
Encoding: 35 67 38
Width: 756
Flags: W
TeX: 727 12
HStem: -12 30<266.014 409.528> 697 30<457.984 600.312>
VStem: 622 27<223.193 248> 679 28<466 490.085>
LayerCount: 2
Fore
SplineSet
766 669 m 1,0,-1
 707 466 l 1,1,-1
 679 466 l 1,2,3
 699 560 699 560 657.5 628.5 c 128,-1,4
 616 697 616 697 536 697 c 0,5,6
 333 697 333 697 236 358 c 0,7,8
 227 325 227 325 220.5 299 c 128,-1,9
 214 273 214 273 208 236 c 128,-1,10
 202 199 202 199 202 171 c 128,-1,11
 202 143 202 143 207.5 113 c 128,-1,12
 213 83 213 83 228 63 c 128,-1,13
 243 43 243 43 270 30.5 c 128,-1,14
 297 18 297 18 335 18 c 0,15,16
 416 18 416 18 501 87 c 128,-1,17
 586 156 586 156 622 248 c 1,18,-1
 649 248 l 1,19,-1
 592 46 l 1,20,21
 445 -12 445 -12 323 -12 c 0,22,23
 165 -12 165 -12 99 91 c 128,-1,24
 33 194 33 194 80 358 c 0,25,26
 127 521 127 521 252 624 c 128,-1,27
 377 727 377 727 535 727 c 0,28,29
 642 727 642 727 766 669 c 1,0,-1
EndSplineSet
Substitution2: "sous-table 'c2sc' Capitales vers petites capitales dans Latin lookup 0" c.sc
EndChar

StartChar: D
Encoding: 36 68 39
Width: 842
Flags: W
TeX: 715 0
HStem: 0 30<-21.0078 67.9922 212.992 402.084> 685 30<174.992 255.992 400.992 592.39>
LayerCount: 2
Fore
SplineSet
400.9921875 685 m 1,0,-1
 212.9921875 30 l 1,1,-1
 265.9921875 30 l 2,2,3
 300.9921875 30 300.9921875 30 324.4921875 31.5 c 128,-1,4
 347.9921875 33 347.9921875 33 381.4921875 39.5 c 128,-1,5
 414.9921875 46 414.9921875 46 438.9921875 58.5 c 128,-1,6
 462.9921875 71 462.9921875 71 492.4921875 95 c 128,-1,7
 521.9921875 119 521.9921875 119 544.9921875 153.5 c 128,-1,8
 567.9921875 188 567.9921875 188 591.4921875 239.5 c 128,-1,9
 614.9921875 291 614.9921875 291 633.9921875 357 c 128,-1,10
 652.9921875 423 652.9921875 423 659.4921875 475 c 128,-1,11
 665.9921875 527 665.9921875 527 662.9921875 561 c 128,-1,12
 659.9921875 595 659.9921875 595 645.9921875 619.5 c 128,-1,13
 631.9921875 644 631.9921875 644 616.9921875 656.5 c 128,-1,14
 601.9921875 669 601.9921875 669 576.9921875 675.5 c 128,-1,15
 551.9921875 682 551.9921875 682 533.9921875 683.5 c 128,-1,16
 515.9921875 685 515.9921875 685 488.9921875 685 c 2,17,-1
 400.9921875 685 l 1,0,-1
-30.0078125 0 m 1,18,-1
 -21.0078125 30 l 1,19,-1
 67.9921875 30 l 1,20,-1
 255.9921875 685 l 1,21,-1
 166.9921875 685 l 1,22,-1
 174.9921875 715 l 1,23,-1
 534.9921875 715 l 2,24,25
 710.9921875 715 710.9921875 715 781.9921875 632.5 c 128,-1,26
 852.9921875 550 852.9921875 550 797.9921875 357 c 0,27,28
 769.9921875 258 769.9921875 258 723.9921875 187.5 c 128,-1,29
 677.9921875 117 677.9921875 117 616.4921875 76.5 c 128,-1,30
 554.9921875 36 554.9921875 36 485.4921875 18 c 128,-1,31
 415.9921875 0 415.9921875 0 329.9921875 0 c 2,32,-1
 -30.0078125 0 l 1,18,-1
EndSplineSet
Substitution2: "sous-table 'c2sc' Capitales vers petites capitales dans Latin lookup 0" d.sc
EndChar

StartChar: E
Encoding: 37 69 40
Width: 726
Flags: W
TeX: 715 0
HStem: 0 30<-36 53 198 396.572> 350 30<299 368.562> 489 21G<642 675.752> 685 30<160 241 386 557.333>
VStem: 597 28<216.551 241> 642 28<489 513.338>
LayerCount: 2
Fore
SplineSet
-45 0 m 1,0,-1
 -36 30 l 1,1,-1
 53 30 l 1,2,-1
 241 685 l 1,3,-1
 152 685 l 1,4,-1
 160 715 l 1,5,-1
 735 715 l 1,6,-1
 670 489 l 1,7,-1
 642 489 l 1,8,9
 658 598 658 598 609 641.5 c 128,-1,10
 560 685 560 685 453 685 c 2,11,-1
 386 685 l 1,12,-1
 299 380 l 1,13,14
 452 380 452 380 494 525 c 1,15,-1
 522 525 l 1,16,-1
 428 199 l 1,17,-1
 400 199 l 1,18,19
 424 283 424 283 395.5 316.5 c 128,-1,20
 367 350 367 350 290 350 c 1,21,-1
 198 30 l 1,22,-1
 296 30 l 2,23,24
 339 30 339 30 379 40 c 128,-1,25
 419 50 419 50 460.5 72.5 c 128,-1,26
 502 95 502 95 538 138 c 128,-1,27
 574 181 574 181 597 241 c 1,28,-1
 625 241 l 1,29,-1
 556 0 l 1,30,-1
 -45 0 l 1,0,-1
EndSplineSet
Substitution2: "sous-table 'c2sc' Capitales vers petites capitales dans Latin lookup 0" e.sc
EndChar

StartChar: F
Encoding: 38 70 41
Width: 667
Flags: W
TeX: 715 0
HStem: 0 30<-36 53 198 285> 338 30<295 392.832> 489 21G<655 687.752> 685 30<160 241 386 569.501>
VStem: 419 28<187 211.463> 655 27<489 513.338>
LayerCount: 2
Fore
SplineSet
747 715 m 1,0,-1
 682 489 l 1,1,-1
 655 489 l 1,2,3
 671 598 671 598 621.5 641.5 c 128,-1,4
 572 685 572 685 465 685 c 2,5,-1
 386 685 l 1,6,-1
 295 368 l 1,7,8
 341 368 341 368 369 372 c 128,-1,9
 397 376 397 376 427.5 390.5 c 128,-1,10
 458 405 458 405 479 436.5 c 128,-1,11
 500 468 500 468 514 519 c 1,12,-1
 542 519 l 1,13,-1
 447 187 l 1,14,-1
 419 187 l 1,15,16
 434 238 434 238 431.5 269.5 c 128,-1,17
 429 301 429 301 406.5 315.5 c 128,-1,18
 384 330 384 330 358 334 c 128,-1,19
 332 338 332 338 287 338 c 1,20,-1
 198 30 l 1,21,-1
 293 30 l 1,22,-1
 285 0 l 1,23,-1
 -45 0 l 1,24,-1
 -36 30 l 1,25,-1
 53 30 l 1,26,-1
 241 685 l 1,27,-1
 152 685 l 1,28,-1
 160 715 l 1,29,-1
 747 715 l 1,0,-1
EndSplineSet
Substitution2: "sous-table 'c2sc' Capitales vers petites capitales dans Latin lookup 0" f.sc
EndChar

StartChar: G
Encoding: 39 71 42
Width: 851
Flags: W
TeX: 727 12
HStem: -12 30<261.979 420.565> 323 30<502 575 720 802> 495 21G<709 742.714> 697 30<470.061 635.067>
VStem: 709 28<495 519.5>
LayerCount: 2
Fore
SplineSet
493 323 m 1,0,-1
 502 353 l 1,1,-1
 811 353 l 1,2,-1
 802 323 l 1,3,-1
 720 323 l 1,4,-1
 648 72 l 1,5,6
 452 -12 452 -12 322 -12 c 0,7,8
 165 -12 165 -12 97.5 89.5 c 128,-1,9
 30 191 30 191 79 361 c 0,10,11
 126 526 126 526 263 626.5 c 128,-1,12
 400 727 400 727 558 727 c 0,13,14
 667 727 667 727 789 677 c 1,15,-1
 737 495 l 1,16,-1
 709 495 l 1,17,18
 723 586 723 586 684 641.5 c 128,-1,19
 645 697 645 697 561 697 c 0,20,21
 494 697 494 697 439.5 669.5 c 128,-1,22
 385 642 385 642 346.5 592.5 c 128,-1,23
 308 543 308 543 281.5 486.5 c 128,-1,24
 255 430 255 430 234 358 c 0,25,26
 225 325 225 325 218.5 299 c 128,-1,27
 212 273 212 273 206 236 c 128,-1,28
 200 199 200 199 200 171 c 128,-1,29
 200 143 200 143 205.5 113 c 128,-1,30
 211 83 211 83 225.5 63 c 128,-1,31
 240 43 240 43 267 30.5 c 128,-1,32
 294 18 294 18 332 18 c 0,33,34
 403 18 403 18 454 48 c 128,-1,35
 505 78 505 78 523 140 c 2,36,-1
 575 323 l 1,37,-1
 493 323 l 1,0,-1
EndSplineSet
Substitution2: "sous-table 'c2sc' Capitales vers petites capitales dans Latin lookup 0" g.sc
EndChar

StartChar: H
Encoding: 40 72 43
Width: 792
Flags: W
TeX: 715 0
HStem: 0 30<-41 48 193 274 372 461 606 687> 350 30<294 553> 685 30<155 236 381 470 568 649 794 883>
LayerCount: 2
Fore
SplineSet
-50 0 m 1,0,-1
 -41 30 l 1,1,-1
 48 30 l 1,2,-1
 236 685 l 1,3,-1
 147 685 l 1,4,-1
 155 715 l 1,5,-1
 479 715 l 1,6,-1
 470 685 l 1,7,-1
 381 685 l 1,8,-1
 294 380 l 1,9,-1
 561 380 l 1,10,-1
 649 685 l 1,11,-1
 560 685 l 1,12,-1
 568 715 l 1,13,-1
 892 715 l 1,14,-1
 883 685 l 1,15,-1
 794 685 l 1,16,-1
 606 30 l 1,17,-1
 695 30 l 1,18,-1
 687 0 l 1,19,-1
 363 0 l 1,20,-1
 372 30 l 1,21,-1
 461 30 l 1,22,-1
 553 350 l 1,23,-1
 285 350 l 1,24,-1
 193 30 l 1,25,-1
 283 30 l 1,26,-1
 274 0 l 1,27,-1
 -50 0 l 1,0,-1
EndSplineSet
Substitution2: "sous-table 'c2sc' Capitales vers petites capitales dans Latin lookup 0" h.sc
EndChar

StartChar: I
Encoding: 41 73 44
Width: 384
Flags: W
TeX: 715 0
HStem: 0 30<-36 53 198 279> 685 30<160 241 386 475>
LayerCount: 2
Fore
SplineSet
-45 0 m 1,0,-1
 -36 30 l 1,1,-1
 53 30 l 1,2,-1
 241 685 l 1,3,-1
 152 685 l 1,4,-1
 160 715 l 1,5,-1
 484 715 l 1,6,-1
 475 685 l 1,7,-1
 386 685 l 1,8,-1
 198 30 l 1,9,-1
 288 30 l 1,10,-1
 279 0 l 1,11,-1
 -45 0 l 1,0,-1
EndSplineSet
Substitution2: "sous-table 'c2sc' Capitales vers petites capitales dans Latin lookup 0" i.sc
EndChar

StartChar: J
Encoding: 42 74 45
Width: 487
Flags: W
TeX: 715 12
HStem: -12 30<32.782 127.617> 685 30<263 344 489 578>
LayerCount: 2
Fore
SplineSet
255 685 m 1,0,-1
 263 715 l 1,1,-1
 587 715 l 1,2,-1
 578 685 l 1,3,-1
 489 685 l 1,4,-1
 342 172 l 2,5,6
 317 84 317 84 260.5 36 c 128,-1,7
 204 -12 204 -12 93 -12 c 0,8,9
 20 -12 20 -12 -21.5 17 c 128,-1,10
 -63 46 -63 46 -43 116 c 0,11,12
 -35 145 -35 145 -12 168 c 128,-1,13
 11 191 11 191 46 191 c 0,14,15
 76 191 76 191 86 172 c 128,-1,16
 96 153 96 153 87 123 c 128,-1,17
 78 93 78 93 54 75.5 c 128,-1,18
 30 58 30 58 27 47 c 0,19,20
 23 34 23 34 35.5 26 c 128,-1,21
 48 18 48 18 67 18 c 0,22,23
 113 18 113 18 139.5 40.5 c 128,-1,24
 166 63 166 63 181 116 c 2,25,-1
 344 685 l 1,26,-1
 255 685 l 1,0,-1
EndSplineSet
Substitution2: "sous-table 'c2sc' Capitales vers petites capitales dans Latin lookup 0" j.sc
EndChar

StartChar: K
Encoding: 43 75 46
Width: 821
Flags: W
TeX: 715 0
HStem: 0 30<-36 53 198 279 350 434 609 668> 362 30<302 346> 685 30<160 241 386 475 561 649 690 787>
LayerCount: 2
Fore
SplineSet
-45 0 m 1,0,-1
 -36 30 l 1,1,-1
 53 30 l 1,2,-1
 241 685 l 1,3,-1
 152 685 l 1,4,-1
 160 715 l 1,5,-1
 484 715 l 1,6,-1
 475 685 l 1,7,-1
 386 685 l 1,8,-1
 302 392 l 1,9,-1
 353 392 l 1,10,-1
 649 685 l 1,11,-1
 553 685 l 1,12,-1
 561 715 l 1,13,-1
 796 715 l 1,14,-1
 787 685 l 1,15,-1
 690 685 l 1,16,-1
 477 478 l 1,17,-1
 609 30 l 1,18,-1
 676 30 l 1,19,-1
 668 0 l 1,20,-1
 341 0 l 1,21,-1
 350 30 l 1,22,-1
 434 30 l 1,23,-1
 346 362 l 1,24,-1
 293 362 l 1,25,-1
 198 30 l 1,26,-1
 288 30 l 1,27,-1
 279 0 l 1,28,-1
 -45 0 l 1,0,-1
EndSplineSet
Substitution2: "sous-table 'c2sc' Capitales vers petites capitales dans Latin lookup 0" k.sc
EndChar

StartChar: L
Encoding: 44 76 47
Width: 664
Flags: W
TeX: 715 0
HStem: 0 30<-51 38 183 391.333> 685 30<145 226 371 460>
VStem: 596 28<225.694 250>
LayerCount: 2
Fore
SplineSet
-60 0 m 1,0,-1
 -51 30 l 1,1,-1
 38 30 l 1,2,-1
 226 685 l 1,3,-1
 137 685 l 1,4,-1
 145 715 l 1,5,-1
 469 715 l 1,6,-1
 460 685 l 1,7,-1
 371 685 l 1,8,-1
 183 30 l 1,9,-1
 292 30 l 2,10,11
 335 30 335 30 375 40 c 128,-1,12
 415 50 415 50 457 73.5 c 128,-1,13
 499 97 499 97 535 142 c 128,-1,14
 571 187 571 187 596 250 c 1,15,-1
 624 250 l 1,16,-1
 552 0 l 1,17,-1
 -60 0 l 1,0,-1
EndSplineSet
Substitution2: "sous-table 'c2sc' Capitales vers petites capitales dans Latin lookup 0" l.sc
EndChar

StartChar: M
Encoding: 45 77 48
Width: 939
Flags: W
TeX: 715 12
HStem: 0 30<-36 57 85 180 505 605 750 834> 685 30<160 245 938 1031>
LayerCount: 2
Fore
SplineSet
-45 0 m 1,0,-1
 -36 30 l 1,1,-1
 57 30 l 1,2,-1
 245 685 l 1,3,-1
 152 685 l 1,4,-1
 160 715 l 1,5,-1
 414 715 l 1,6,-1
 448 197 l 1,7,-1
 797 715 l 1,8,-1
 1039 715 l 1,9,-1
 1031 685 l 1,10,-1
 938 685 l 1,11,-1
 750 30 l 1,12,-1
 843 30 l 1,13,-1
 834 0 l 1,14,-1
 497 0 l 1,15,-1
 505 30 l 1,16,-1
 605 30 l 1,17,-1
 777 631 l 1,18,-1
 775 631 l 1,19,-1
 342 -18 l 1,20,-1
 310 -18 l 1,21,-1
 259 631 l 1,22,-1
 257 631 l 1,23,-1
 85 30 l 1,24,-1
 188 30 l 1,25,-1
 180 0 l 1,26,-1
 -45 0 l 1,0,-1
EndSplineSet
Substitution2: "sous-table 'c2sc' Capitales vers petites capitales dans Latin lookup 0" m.sc
EndChar

StartChar: N
Encoding: 46 78 49
Width: 783
Flags: W
TeX: 715 12
HStem: 0 30<-52 41 69 163> 685 30<145 229 649 743 771 864>
LayerCount: 2
Fore
SplineSet
-60 0 m 1,0,-1
 -52 30 l 1,1,-1
 41 30 l 1,2,-1
 229 685 l 1,3,-1
 136 685 l 1,4,-1
 145 715 l 1,5,-1
 412 715 l 1,6,-1
 615 243 l 1,7,-1
 617 243 l 1,8,-1
 743 685 l 1,9,-1
 640 685 l 1,10,-1
 649 715 l 1,11,-1
 873 715 l 1,12,-1
 864 685 l 1,13,-1
 771 685 l 1,14,-1
 571 -18 l 1,15,-1
 547 -18 l 1,16,-1
 249 649 l 1,17,-1
 247 649 l 1,18,-1
 69 30 l 1,19,-1
 172 30 l 1,20,-1
 163 0 l 1,21,-1
 -60 0 l 1,0,-1
EndSplineSet
Substitution2: "sous-table 'c2sc' Capitales vers petites capitales dans Latin lookup 0" n.sc
EndChar

StartChar: O
Encoding: 47 79 50
Width: 814
Flags: W
TeX: 727 12
HStem: -12 30<264.923 405.46> 697 30<448.81 591.931>
LayerCount: 2
Fore
SplineSet
79.548828125 358 m 0,0,1
 126.548828125 521 126.548828125 521 251.548828125 624 c 128,-1,2
 376.548828125 727 376.548828125 727 534.548828125 727 c 128,-1,3
 692.548828125 727 692.548828125 727 758.048828125 624 c 128,-1,4
 823.548828125 521 823.548828125 521 777.548828125 358 c 0,5,6
 730.548828125 194 730.548828125 194 605.548828125 91 c 128,-1,7
 480.548828125 -12 480.548828125 -12 322.548828125 -12 c 128,-1,8
 164.548828125 -12 164.548828125 -12 98.548828125 91 c 128,-1,9
 32.548828125 194 32.548828125 194 79.548828125 358 c 0,0,1
243.548828125 358 m 0,10,11
 232.548828125 319 232.548828125 319 225.548828125 288 c 128,-1,12
 218.548828125 257 218.548828125 257 211.548828125 214.5 c 128,-1,13
 204.548828125 172 204.548828125 172 208.048828125 140 c 128,-1,14
 211.548828125 108 211.548828125 108 222.548828125 78.5 c 128,-1,15
 233.548828125 49 233.548828125 49 261.548828125 33.5 c 128,-1,16
 289.548828125 18 289.548828125 18 331.048828125 18 c 128,-1,17
 372.548828125 18 372.548828125 18 409.048828125 33.5 c 128,-1,18
 445.548828125 49 445.548828125 49 473.548828125 78.5 c 128,-1,19
 501.548828125 108 501.548828125 108 523.548828125 140 c 128,-1,20
 545.548828125 172 545.548828125 172 563.048828125 214.5 c 128,-1,21
 580.548828125 257 580.548828125 257 591.548828125 288 c 128,-1,22
 602.548828125 319 602.548828125 319 613.548828125 358 c 0,23,24
 624.548828125 396 624.548828125 396 631.548828125 427 c 128,-1,25
 638.548828125 458 638.548828125 458 645.048828125 500.5 c 128,-1,26
 651.548828125 543 651.548828125 543 648.048828125 575 c 128,-1,27
 644.548828125 607 644.548828125 607 633.548828125 636.5 c 128,-1,28
 622.548828125 666 622.548828125 666 595.048828125 681.5 c 128,-1,29
 567.548828125 697 567.548828125 697 525.548828125 697 c 128,-1,30
 483.548828125 697 483.548828125 697 447.048828125 681.5 c 128,-1,31
 410.548828125 666 410.548828125 666 382.548828125 636.5 c 128,-1,32
 354.548828125 607 354.548828125 607 333.048828125 575 c 128,-1,33
 311.548828125 543 311.548828125 543 293.548828125 500.5 c 128,-1,34
 275.548828125 458 275.548828125 458 265.048828125 427 c 128,-1,35
 254.548828125 396 254.548828125 396 243.548828125 358 c 0,10,11
EndSplineSet
Substitution2: "sous-table 'c2sc' Capitales vers petites capitales dans Latin lookup 0" o.sc
EndChar

StartChar: P
Encoding: 48 80 51
Width: 711
Flags: W
TeX: 715 0
HStem: 0 30<-35.667 53.333 198.333 295.333> 323 30<291.333 454.989> 685 30<160.333 241.333 386.333 541.591>
LayerCount: 2
Fore
SplineSet
386.333007812 685 m 1,0,-1
 291.333007812 353 l 1,1,-1
 372.333007812 353 l 2,2,3
 450.333007812 353 450.333007812 353 490.333007812 390 c 128,-1,4
 530.333007812 427 530.333007812 427 556.333007812 519 c 128,-1,5
 582.333007812 611 582.333007812 611 563.833007812 648 c 128,-1,6
 545.333007812 685 545.333007812 685 467.333007812 685 c 2,7,-1
 386.333007812 685 l 1,0,-1
-44.6669921875 0 m 1,8,-1
 -35.6669921875 30 l 1,9,-1
 53.3330078125 30 l 1,10,-1
 241.333007812 685 l 1,11,-1
 152.333007812 685 l 1,12,-1
 160.333007812 715 l 1,13,-1
 526.333007812 715 l 2,14,15
 552.333007812 715 552.333007812 715 566.333007812 714.5 c 128,-1,16
 580.333007812 714 580.333007812 714 609.333007812 710.5 c 128,-1,17
 638.333007812 707 638.333007812 707 655.333007812 700 c 128,-1,18
 672.333007812 693 672.333007812 693 692.333007812 678.5 c 128,-1,19
 712.333007812 664 712.333007812 664 720.833007812 644 c 128,-1,20
 729.333007812 624 729.333007812 624 730.833007812 592 c 128,-1,21
 732.333007812 560 732.333007812 560 720.333007812 519 c 0,22,23
 706.333007812 469 706.333007812 469 678.833007812 432 c 128,-1,24
 651.333007812 395 651.333007812 395 620.333007812 374.5 c 128,-1,25
 589.333007812 354 589.333007812 354 548.333007812 342 c 128,-1,26
 507.333007812 330 507.333007812 330 472.333007812 326.5 c 128,-1,27
 437.333007812 323 437.333007812 323 394.333007812 323 c 2,28,-1
 282.333007812 323 l 1,29,-1
 198.333007812 30 l 1,30,-1
 303.333007812 30 l 1,31,-1
 295.333007812 0 l 1,32,-1
 -44.6669921875 0 l 1,8,-1
EndSplineSet
Substitution2: "sous-table 'c2sc' Capitales vers petites capitales dans Latin lookup 0" p.sc
EndChar

StartChar: Q
Encoding: 49 81 52
Width: 810
Flags: W
TeX: 727 191
HStem: -197 104<443.716 565.07> -58 88<248.317 347.048> 695 32<440.507 589.102>
VStem: 62.2158 144<125.756 311.242> 644.216 145.5<417.634 594.625>
LayerCount: 2
Fore
SplineSet
273.715820312 463 m 128,-1,1
 258.215820312 420 258.215820312 420 239.215820312 354 c 128,-1,2
 220.215820312 288 220.215820312 288 211.715820312 236 c 128,-1,3
 203.215820312 184 203.215820312 184 206.215820312 133.5 c 128,-1,4
 209.215820312 83 209.215820312 83 240.215820312 56.5 c 128,-1,5
 271.215820312 30 271.215820312 30 329.215820312 30 c 128,-1,6
 387.215820312 30 387.215820312 30 433.215820312 56.5 c 128,-1,7
 479.215820312 83 479.215820312 83 511.215820312 133.5 c 128,-1,8
 543.215820312 184 543.215820312 184 564.715820312 236 c 128,-1,9
 586.215820312 288 586.215820312 288 605.215820312 354 c 128,-1,10
 624.215820312 420 624.215820312 420 633.215820312 463 c 128,-1,11
 642.215820312 506 642.215820312 506 644.215820312 552.5 c 128,-1,12
 646.215820312 599 646.215820312 599 635.215820312 628 c 128,-1,13
 624.215820312 657 624.215820312 657 595.215820312 676 c 128,-1,14
 566.215820312 695 566.215820312 695 519.715820312 695 c 128,-1,15
 473.215820312 695 473.215820312 695 433.215820312 676 c 128,-1,16
 393.215820312 657 393.215820312 657 366.215820312 628 c 128,-1,17
 339.215820312 599 339.215820312 599 314.215820312 552.5 c 128,-1,0
 289.215820312 506 289.215820312 506 273.715820312 463 c 128,-1,1
208.215820312 16 m 1,18,19
 140.215820312 40 140.215820312 40 103.215820312 93 c 0,20,21
 68.2158203125 145 68.2158203125 145 62.2158203125 196 c 0,22,23
 53.2158203125 286 53.2158203125 286 74.2158203125 358 c 0,24,25
 94.2158203125 429 94.2158203125 429 133.215820312 492.5 c 128,-1,26
 172.215820312 556 172.215820312 556 228.215820312 609.5 c 128,-1,27
 284.215820312 663 284.215820312 663 362.215820312 695 c 128,-1,28
 440.215820312 727 440.215820312 727 528.715820312 727 c 128,-1,29
 617.215820312 727 617.215820312 727 676.715820312 695 c 128,-1,30
 736.215820312 663 736.215820312 663 761.715820312 609 c 128,-1,31
 787.215820312 555 787.215820312 555 789.715820312 492 c 128,-1,32
 792.215820312 429 792.215820312 429 772.715820312 360.5 c 128,-1,33
 753.215820312 292 753.215820312 292 712.215820312 228 c 0,34,35
 606.215820312 60 606.215820312 60 427.215820312 11 c 1,36,37
 445.215820312 2 445.215820312 2 453.215820312 -19 c 0,38,39
 481.215820312 -93 481.215820312 -93 549.215820312 -93 c 128,-1,40
 617.215820312 -93 617.215820312 -93 670.215820312 -39 c 1,41,-1
 695.215820312 -39 l 1,42,43
 602.215820312 -197 602.215820312 -197 480.215820312 -197 c 0,44,45
 407.215820312 -197 407.215820312 -197 362.215820312 -101 c 0,46,47
 344.215820312 -59 344.215820312 -59 283.215820312 -58 c 0,48,49
 189.215820312 -58 189.215820312 -58 105.215820312 -139 c 1,50,-1
 77.2158203125 -139 l 1,51,52
 120.215820312 -54 120.215820312 -54 204.215820312 14 c 0,53,54
 206.215820312 15 206.215820312 15 208.215820312 16 c 1,18,19
EndSplineSet
Substitution2: "sous-table 'c2sc' Capitales vers petites capitales dans Latin lookup 0" q.sc
EndChar

StartChar: R
Encoding: 50 82 53
Width: 725
Flags: W
TeX: 715 0
HStem: 0 30<-35.7139 53.2861 198.286 295.286 578.986 619.286> 350 30<299.286 425.438> 685 30<160.286 241.286 386.286 502.456>
LayerCount: 2
Fore
SplineSet
386.286132812 684 m 1,0,-1
 299.286132812 380 l 1,1,-1
 357.286132812 380 l 2,2,3
 419.286132812 380 419.286132812 380 453.786132812 410.5 c 128,-1,4
 488.286132812 441 488.286132812 441 514.286132812 532 c 0,5,6
 541.286132812 625 541.286132812 625 520.786132812 654.5 c 128,-1,7
 500.286132812 684 500.286132812 684 423.286132812 684 c 2,8,-1
 386.286132812 684 l 1,0,-1
295.286132812 0 m 1,9,-1
 -44.7138671875 0 l 1,10,-1
 -35.7138671875 30 l 1,11,-1
 53.2861328125 30 l 1,12,-1
 241.286132812 685 l 1,13,-1
 152.286132812 685 l 1,14,-1
 160.286132812 715 l 1,15,-1
 469.286132812 715 l 2,16,17
 497.286132812 715 497.286132812 715 515.286132812 714.5 c 128,-1,18
 533.286132812 714 533.286132812 714 561.286132812 710.5 c 128,-1,19
 589.286132812 707 589.286132812 707 606.286132812 701.5 c 128,-1,20
 623.286132812 696 623.286132812 696 641.786132812 684 c 128,-1,21
 660.286132812 672 660.286132812 672 669.286132812 655.5 c 128,-1,22
 678.286132812 639 678.286132812 639 679.786132812 613.5 c 128,-1,23
 681.286132812 588 681.286132812 588 672.286132812 556 c 0,24,25
 649.286132812 476 649.286132812 476 590.286132812 433.5 c 128,-1,26
 531.286132812 391 531.286132812 391 446.286132812 371 c 1,27,-1
 445.286132812 369 l 1,28,29
 547.286132812 360 547.286132812 360 581.286132812 319 c 128,-1,30
 615.286132812 278 615.286132812 278 585.286132812 171 c 0,31,32
 577.286132812 143 577.286132812 143 573.286132812 128 c 128,-1,33
 569.286132812 113 569.286132812 113 566.786132812 90.5 c 128,-1,34
 564.286132812 68 564.286132812 68 569.786132812 57 c 128,-1,35
 575.286132812 46 575.286132812 46 589.286132812 37 c 128,-1,36
 603.286132812 28 603.286132812 28 627.286132812 28 c 1,37,-1
 619.286132812 0 l 1,38,-1
 521.286132812 0 l 2,39,40
 493.286132812 0 493.286132812 0 472.786132812 7 c 128,-1,41
 452.286132812 14 452.286132812 14 441.286132812 23.5 c 128,-1,42
 430.286132812 33 430.286132812 33 425.786132812 51 c 128,-1,43
 421.286132812 69 421.286132812 69 419.786132812 83 c 128,-1,44
 418.286132812 97 418.286132812 97 423.286132812 122 c 128,-1,45
 428.286132812 147 428.286132812 147 431.786132812 161 c 128,-1,46
 435.286132812 175 435.286132812 175 443.286132812 202 c 0,47,48
 457.286132812 250 457.286132812 250 456.286132812 280.5 c 128,-1,49
 455.286132812 311 455.286132812 311 438.786132812 325.5 c 128,-1,50
 422.286132812 340 422.286132812 340 401.786132812 345 c 128,-1,51
 381.286132812 350 381.286132812 350 348.286132812 350 c 2,52,-1
 290.286132812 350 l 1,53,-1
 198.286132812 30 l 1,54,-1
 303.286132812 30 l 1,55,-1
 295.286132812 0 l 1,9,-1
EndSplineSet
Substitution2: "sous-table 'c2sc' Capitales vers petites capitales dans Latin lookup 0" r.sc
EndChar

StartChar: S
Encoding: 51 83 54
Width: 583
Flags: W
TeX: 727 12
HStem: -12 36<134.224 293.223> 691 36<311.417 446.1>
VStem: 505 32<512 541.195>
LayerCount: 2
Fore
SplineSet
-15 35 m 1,0,-1
 36 241 l 1,1,-1
 69 241 l 1,2,3
 49 158 49 158 86 91 c 128,-1,4
 123 24 123 24 207 24 c 0,5,6
 268 24 268 24 317.5 53 c 128,-1,7
 367 82 367 82 384 142 c 0,8,9
 398 190 398 190 370 223 c 128,-1,10
 342 256 342 256 294 277.5 c 128,-1,11
 246 299 246 299 199 323.5 c 128,-1,12
 152 348 152 348 128 395.5 c 128,-1,13
 104 443 104 443 124 512 c 0,14,15
 145 584 145 584 193 634.5 c 128,-1,16
 241 685 241 685 295 706 c 128,-1,17
 349 727 349 727 403 727 c 0,18,19
 481 727 481 727 578 683 c 1,20,-1
 537 512 l 1,21,-1
 505 512 l 1,22,23
 513 589 513 589 479.5 640 c 128,-1,24
 446 691 446 691 377 691 c 0,25,26
 331 691 331 691 292.5 660.5 c 128,-1,27
 254 630 254 630 241 582 c 0,28,29
 229 539 229 539 257.5 510 c 128,-1,30
 286 481 286 481 332.5 460.5 c 128,-1,31
 379 440 379 440 424.5 414 c 128,-1,32
 470 388 470 388 492 335.5 c 128,-1,33
 514 283 514 283 492 206 c 0,34,35
 464 110 464 110 377.5 49 c 128,-1,36
 291 -12 291 -12 188 -12 c 0,37,38
 73 -12 73 -12 -15 35 c 1,0,-1
EndSplineSet
Substitution2: "sous-table 'c2sc' Capitales vers petites capitales dans Latin lookup 0" s.sc
EndChar

StartChar: T
Encoding: 52 84 55
Width: 688
Flags: W
TeX: 715 0
HStem: 0 30<106 195 340 421> 685 30<263.242 383 528 638.429>
VStem: 70 28<473 497.551> 691 28<473 497.551>
LayerCount: 2
Fore
SplineSet
97 0 m 1,0,-1
 106 30 l 1,1,-1
 195 30 l 1,2,-1
 383 685 l 1,3,-1
 348 685 l 2,4,5
 253 685 253 685 189 622.5 c 128,-1,6
 125 560 125 560 98 473 c 1,7,-1
 70 473 l 1,8,-1
 139 715 l 1,9,-1
 788 715 l 1,10,-1
 719 473 l 1,11,-1
 691 473 l 1,12,13
 714 560 714 560 685.5 622.5 c 128,-1,14
 657 685 657 685 562 685 c 2,15,-1
 528 685 l 1,16,-1
 340 30 l 1,17,-1
 429 30 l 1,18,-1
 421 0 l 1,19,-1
 97 0 l 1,0,-1
EndSplineSet
Substitution2: "sous-table 'c2sc' Capitales vers petites capitales dans Latin lookup 0" t.sc
EndChar

StartChar: U
Encoding: 53 85 56
Width: 838
Flags: W
TeX: 715 6
HStem: -12 36<294.516 466.728> 685 30<175 256 401 503 666 755 788 879>
LayerCount: 2
Fore
SplineSet
167 685 m 1,0,-1
 175 715 l 1,1,-1
 511 715 l 1,2,-1
 503 685 l 1,3,-1
 401 685 l 1,4,-1
 256 178 l 2,5,6
 233 97 233 97 268 60.5 c 128,-1,7
 303 24 303 24 378 24 c 0,8,9
 460 24 460 24 524 64.5 c 128,-1,10
 588 105 588 105 615 198 c 2,11,-1
 755 685 l 1,12,-1
 657 685 l 1,13,-1
 666 715 l 1,14,-1
 888 715 l 1,15,-1
 879 685 l 1,16,-1
 788 685 l 1,17,-1
 650 204 l 2,18,19
 636 154 636 154 612 116 c 128,-1,20
 588 78 588 78 559 54 c 128,-1,21
 530 30 530 30 492.5 15 c 128,-1,22
 455 0 455 0 417 -6 c 128,-1,23
 379 -12 379 -12 334 -12 c 0,24,25
 190 -12 190 -12 134.5 28.5 c 128,-1,26
 79 69 79 69 112 184 c 2,27,-1
 256 685 l 1,28,-1
 167 685 l 1,0,-1
EndSplineSet
Substitution2: "sous-table 'c2sc' Capitales vers petites capitales dans Latin lookup 0" u.sc
EndChar

StartChar: V
Encoding: 54 86 57
Width: 664
Flags: W
TeX: 715 12
HStem: 685 30<99 163 327 423 544 628 665 735>
VStem: 163 164<532.531 685>
LayerCount: 2
Fore
SplineSet
195 -12 m 1,0,-1
 163 685 l 1,1,-1
 90 685 l 1,2,-1
 99 715 l 1,3,-1
 432 715 l 1,4,-1
 423 685 l 1,5,-1
 327 685 l 1,6,-1
 339 217 l 1,7,-1
 341 217 l 1,8,-1
 628 685 l 1,9,-1
 535 685 l 1,10,-1
 544 715 l 1,11,-1
 744 715 l 1,12,-1
 735 685 l 1,13,-1
 665 685 l 1,14,-1
 225 -12 l 1,15,-1
 195 -12 l 1,0,-1
EndSplineSet
Substitution2: "sous-table 'c2sc' Capitales vers petites capitales dans Latin lookup 0" v.sc
EndChar

StartChar: W
Encoding: 55 87 58
Width: 1052
Flags: W
TeX: 715 12
HStem: 685 30<108 167 324 413 519 600 765 854 960 1041 1070 1134>
VStem: 167 157<441.05 685> 612 153<324.5 661> 626 145<227 324.5>
LayerCount: 2
Fore
SplineSet
187 -12 m 1,0,-1
 167 685 l 1,1,-1
 100 685 l 1,2,-1
 108 715 l 1,3,-1
 422 715 l 1,4,-1
 413 685 l 1,5,-1
 324 685 l 1,6,-1
 330 227 l 1,7,-1
 332 227 l 1,8,-1
 600 685 l 1,9,-1
 511 685 l 1,10,-1
 519 715 l 1,11,-1
 862 715 l 1,12,-1
 854 685 l 1,13,-1
 765 685 l 1,14,-1
 771 227 l 1,15,-1
 773 227 l 1,16,-1
 1041 685 l 1,17,-1
 951 685 l 1,18,-1
 960 715 l 1,19,-1
 1142 715 l 1,20,-1
 1134 685 l 1,21,-1
 1070 685 l 1,22,-1
 660 -12 l 1,23,-1
 626 -12 l 1,24,-1
 612 661 l 1,25,-1
 610 661 l 1,26,-1
 222 -12 l 1,27,-1
 187 -12 l 1,0,-1
EndSplineSet
Substitution2: "sous-table 'c2sc' Capitales vers petites capitales dans Latin lookup 0" w.sc
EndChar

StartChar: X
Encoding: 56 88 59
Width: 702
Flags: W
TeX: 715 0
HStem: 0 30<-51 27 62 143 269 364 534 598> 685 30<134 192 366 463 541 622 659 743>
LayerCount: 2
Fore
SplineSet
-60 0 m 1,0,-1
 -51 30 l 1,1,-1
 27 30 l 1,2,-1
 289 318 l 1,3,-1
 192 685 l 1,4,-1
 125 685 l 1,5,-1
 134 715 l 1,6,-1
 472 715 l 1,7,-1
 463 685 l 1,8,-1
 366 685 l 1,9,-1
 422 465 l 1,10,-1
 622 685 l 1,11,-1
 533 685 l 1,12,-1
 541 715 l 1,13,-1
 752 715 l 1,14,-1
 743 685 l 1,15,-1
 659 685 l 1,16,-1
 430 434 l 1,17,-1
 534 30 l 1,18,-1
 606 30 l 1,19,-1
 598 0 l 1,20,-1
 260 0 l 1,21,-1
 269 30 l 1,22,-1
 364 30 l 1,23,-1
 297 287 l 1,24,-1
 62 30 l 1,25,-1
 152 30 l 1,26,-1
 143 0 l 1,27,-1
 -60 0 l 1,0,-1
EndSplineSet
Substitution2: "sous-table 'c2sc' Capitales vers petites capitales dans Latin lookup 0" x.sc
EndChar

StartChar: Y
Encoding: 57 89 60
Width: 625
Flags: W
TeX: 715 0
HStem: 0 30<68 168 313 404> 685 30<104 168 340 446 561 649 688 761>
LayerCount: 2
Fore
SplineSet
60 0 m 1,0,-1
 68 30 l 1,1,-1
 168 30 l 1,2,-1
 262 358 l 1,3,-1
 168 685 l 1,4,-1
 95 685 l 1,5,-1
 104 715 l 1,6,-1
 454 715 l 1,7,-1
 446 685 l 1,8,-1
 340 685 l 1,9,-1
 417 406 l 1,10,-1
 649 685 l 1,11,-1
 553 685 l 1,12,-1
 561 715 l 1,13,-1
 770 715 l 1,14,-1
 761 685 l 1,15,-1
 688 685 l 1,16,-1
 407 358 l 1,17,-1
 313 30 l 1,18,-1
 412 30 l 1,19,-1
 404 0 l 1,20,-1
 60 0 l 1,0,-1
EndSplineSet
Substitution2: "sous-table 'c2sc' Capitales vers petites capitales dans Latin lookup 0" y.sc
EndChar

StartChar: Z
Encoding: 58 90 61
Width: 735
Flags: W
TeX: 715 0
HStem: 0 30<166 397.054> 685 30<395.375 589>
VStem: 168 28<484 508.5> 601 28<219.6 244>
LayerCount: 2
Fore
SplineSet
196 484 m 1,0,-1
 168 484 l 1,1,-1
 234 715 l 1,2,-1
 785 715 l 1,3,-1
 166 30 l 1,4,-1
 292 30 l 2,5,6
 352 30 352 30 407.5 48 c 128,-1,7
 463 66 463 66 516.5 116 c 128,-1,8
 570 166 570 166 601 244 c 1,9,-1
 629 244 l 1,10,-1
 559 0 l 1,11,-1
 -30 0 l 1,12,-1
 589 685 l 1,13,-1
 498 685 l 2,14,15
 457 685 457 685 416 675.5 c 128,-1,16
 375 666 375 666 332 644.5 c 128,-1,17
 289 623 289 623 253 581.5 c 128,-1,18
 217 540 217 540 196 484 c 1,0,-1
EndSplineSet
Substitution2: "sous-table 'c2sc' Capitales vers petites capitales dans Latin lookup 0" z.sc
EndChar

StartChar: bracketleft
Encoding: 59 91 62
Width: 376
Flags: W
TeX: 715 249
HStem: -249 36<174 283> 679 36<430 549>
LayerCount: 2
Fore
SplineSet
47 -249 m 1,0,-1
 323 715 l 1,1,-1
 560 715 l 1,2,-1
 549 679 l 1,3,-1
 430 679 l 1,4,-1
 174 -213 l 1,5,-1
 293 -213 l 1,6,-1
 283 -249 l 1,7,-1
 47 -249 l 1,0,-1
EndSplineSet
EndChar

StartChar: backslash
Encoding: 60 92 63
Width: 389
Flags: W
TeX: 727 12
HStem: 707 20G<5 118.388>
LayerCount: 2
Fore
SplineSet
278 -12 m 1,0,-1
 5 727 l 1,1,-1
 111 727 l 1,2,-1
 384 -12 l 1,3,-1
 278 -12 l 1,0,-1
EndSplineSet
EndChar

StartChar: bracketright
Encoding: 61 93 64
Width: 376
Flags: W
TeX: 715 249
HStem: -249 36<-39 80> 679 36<227 336>
LayerCount: 2
Fore
SplineSet
463 715 m 1,0,-1
 187 -249 l 1,1,-1
 -50 -249 l 1,2,-1
 -39 -213 l 1,3,-1
 80 -213 l 1,4,-1
 336 679 l 1,5,-1
 217 679 l 1,6,-1
 227 715 l 1,7,-1
 463 715 l 1,0,-1
EndSplineSet
EndChar

StartChar: asciicircum
Encoding: 62 94 65
Width: 556
Flags: W
TeX: 694 -329
HStem: 674 20G<222.301 333.699>
LayerCount: 2
Fore
SplineSet
55 329 m 1,0,-1
 232 694 l 1,1,-1
 324 694 l 1,2,-1
 501 329 l 1,3,-1
 397 329 l 1,4,-1
 278 590 l 1,5,-1
 158 329 l 1,6,-1
 55 329 l 1,0,-1
EndSplineSet
EndChar

StartChar: underscore
Encoding: 63 95 66
Width: 500
Flags: W
TeX: -75 125
HStem: -125 50<0 500>
LayerCount: 2
Fore
SplineSet
0 -125 m 1,0,-1
 0 -75 l 1,1,-1
 500 -75 l 1,2,-1
 500 -125 l 1,3,-1
 0 -125 l 1,0,-1
EndSplineSet
EndChar

StartChar: quoteleft
Encoding: 211 8216 67
Width: 205
Flags: W
TeX: 727 -403
HStem: 396 156<224.812 283.57> 707 20G<326 363.857>
LayerCount: 2
Fore
SplineSet
361 727 m 1,0,-1
 365 699 l 1,1,2
 315 678 315 678 275 635 c 128,-1,3
 235 592 235 592 224 542 c 1,4,5
 250 552 250 552 274 552 c 0,6,7
 303 552 303 552 318.5 531 c 128,-1,8
 334 510 334 510 324 477 c 0,9,10
 314 441 314 441 285 418.5 c 128,-1,11
 256 396 256 396 223 396 c 0,12,13
 176 396 176 396 164 431 c 128,-1,14
 152 466 152 466 167 518 c 0,15,16
 187 588 187 588 239 642 c 128,-1,17
 291 696 291 696 361 727 c 1,0,-1
EndSplineSet
EndChar

StartChar: a
Encoding: 65 97 68
Width: 665
Flags: W
TeX: 502 12
HStem: -12 42<139.611 252.48> 470 20G<462.238 598> 472 30<324.841 399.48>
VStem: 31 144<45.0103 211.352> 350 136<40.5 136.826>
LayerCount: 2
Fore
SplineSet
421 374 m 0,0,1
 421 391 421 391 419 408.5 c 128,-1,2
 417 426 417 426 411 440 c 128,-1,3
 405 454 405 454 393.5 463 c 128,-1,4
 382 472 382 472 364 472 c 0,5,6
 340 472 340 472 317 450.5 c 128,-1,7
 294 429 294 429 273 395 c 128,-1,8
 252 361 252 361 234 318 c 128,-1,9
 216 275 216 275 203 232.5 c 128,-1,10
 190 190 190 190 182.5 151.5 c 128,-1,11
 175 113 175 113 175 87 c 0,12,13
 175 60 175 60 182 45 c 128,-1,14
 189 30 189 30 212 30 c 0,15,16
 238 30 238 30 264 47 c 128,-1,17
 290 64 290 64 313 92.5 c 128,-1,18
 336 121 336 121 356 157 c 128,-1,19
 376 193 376 193 390 231.5 c 128,-1,20
 404 270 404 270 412.5 307 c 128,-1,21
 421 344 421 344 421 374 c 0,0,1
507 174 m 2,22,23
 501 152 501 152 496.5 137.5 c 128,-1,24
 492 123 492 123 490 112.5 c 128,-1,25
 488 102 488 102 487 94.5 c 128,-1,26
 486 87 486 87 486 80 c 0,27,28
 486 72 486 72 490.5 65 c 128,-1,29
 495 58 495 58 507 58 c 128,-1,30
 519 58 519 58 533.5 71 c 128,-1,31
 548 84 548 84 562 102 c 128,-1,32
 576 120 576 120 588 138 c 128,-1,33
 600 156 600 156 606 166 c 1,34,-1
 630 150 l 1,35,36
 609 119 609 119 589 90 c 128,-1,37
 569 61 569 61 544.5 38.5 c 128,-1,38
 520 16 520 16 489.5 2 c 128,-1,39
 459 -12 459 -12 418 -12 c 0,40,41
 387 -12 387 -12 368.5 7 c 128,-1,42
 350 26 350 26 350 55 c 0,43,44
 350 67 350 67 351.5 78 c 128,-1,45
 353 89 353 89 355 100 c 1,46,-1
 353 102 l 1,47,48
 336 78 336 78 316.5 57.5 c 128,-1,49
 297 37 297 37 274 21.5 c 128,-1,50
 251 6 251 6 224 -3 c 128,-1,51
 197 -12 197 -12 166 -12 c 0,52,53
 97 -12 97 -12 64 28.5 c 128,-1,54
 31 69 31 69 31 134 c 0,55,56
 31 171 31 171 43 212.5 c 128,-1,57
 55 254 55 254 77 295 c 128,-1,58
 99 336 99 336 128.5 373.5 c 128,-1,59
 158 411 158 411 192.5 439.5 c 128,-1,60
 227 468 227 468 265.5 485 c 128,-1,61
 304 502 304 502 343 502 c 0,62,63
 388 502 388 502 414.5 476.5 c 128,-1,64
 441 451 441 451 445 406 c 1,65,-1
 447 406 l 1,66,-1
 467 490 l 1,67,-1
 598 490 l 1,68,-1
 507 174 l 2,22,23
EndSplineSet
Substitution2: "sous-table 'smcp' Bas-de-casse vers petites capitales dans Latin lookup 0" a.sc
EndChar

StartChar: b
Encoding: 66 98 69
Width: 599
Flags: W
TeX: 715 12
HStem: -12 34<143 264.796> 466 40<345.817 463> 690 25<137 203>
VStem: 21 138<28.6343 170.394> 443 138<269.986 440.16>
LayerCount: 2
Fore
SplineSet
131 690 m 1,0,-1
 137 715 l 1,1,-1
 218 715 l 2,2,3
 284 715 284 715 348 721 c 1,4,-1
 247 392 l 1,5,-1
 249 390 l 1,6,7
 293 449 293 449 332 477.5 c 128,-1,8
 371 506 371 506 435 506 c 0,9,10
 491 506 491 506 536 468.5 c 128,-1,11
 581 431 581 431 581 348 c 0,12,13
 581 261 581 261 521.5 177 c 128,-1,14
 462 93 462 93 365 40.5 c 128,-1,15
 268 -12 268 -12 167 -12 c 0,16,17
 119 -12 119 -12 86.5 -2 c 128,-1,18
 54 8 54 8 41.5 24.5 c 128,-1,19
 29 41 29 41 25 53 c 128,-1,20
 21 65 21 65 21 78 c 0,21,22
 21 107 21 107 51 196 c 2,23,-1
 203 690 l 1,24,-1
 131 690 l 1,0,-1
443 377 m 0,25,26
 443 415 443 415 426.5 440.5 c 128,-1,27
 410 466 410 466 377 466 c 0,28,29
 328 466 328 466 285 413 c 128,-1,30
 242 360 242 360 217 290 c 128,-1,31
 192 220 192 220 175.5 162 c 128,-1,32
 159 104 159 104 159 84 c 0,33,34
 159 67 159 67 161 55.5 c 128,-1,35
 163 44 163 44 175 33 c 128,-1,36
 187 22 187 22 209 22 c 0,37,38
 268 22 268 22 325 93 c 128,-1,39
 382 164 382 164 412.5 245.5 c 128,-1,40
 443 327 443 327 443 377 c 0,25,26
EndSplineSet
Substitution2: "sous-table 'smcp' Bas-de-casse vers petites capitales dans Latin lookup 0" b.sc
EndChar

StartChar: c
Encoding: 67 99 70
Width: 559
Flags: W
TeX: 502 12
HStem: -16 37<210.832 334.453> 474 29<325.686 412.584>
VStem: 32 146<72.3543 238.141> 422 129<343.722 441.768>
LayerCount: 2
Fore
SplineSet
466 161 m 1,0,-1
 497 149 l 1,1,2
 457 78 457 78 388 31 c 128,-1,3
 319 -16 319 -16 236 -16 c 0,4,5
 144 -16 144 -16 88 31.5 c 128,-1,6
 32 79 32 79 32 161 c 0,7,8
 32 216 32 216 61.5 277.5 c 128,-1,9
 91 339 91 339 138 389 c 128,-1,10
 185 439 185 439 252 471 c 128,-1,11
 319 503 319 503 387 503 c 0,12,13
 451 503 451 503 501 468 c 128,-1,14
 551 433 551 433 551 379 c 0,15,16
 551 313 551 313 474 312 c 0,17,18
 441 312 441 312 425.5 325.5 c 128,-1,19
 410 339 410 339 410 360 c 0,20,21
 410 367 410 367 416 393 c 128,-1,22
 422 419 422 419 422 432 c 0,23,24
 422 474 422 474 370 474 c 0,25,26
 330 474 330 474 292.5 430.5 c 128,-1,27
 255 387 255 387 231 327.5 c 128,-1,28
 207 268 207 268 192.5 212 c 128,-1,29
 178 156 178 156 178 124 c 0,30,31
 178 72 178 72 202.5 46.5 c 128,-1,32
 227 21 227 21 279 21 c 0,33,34
 336 21 336 21 387.5 63.5 c 128,-1,35
 439 106 439 106 466 161 c 1,0,-1
EndSplineSet
Substitution2: "sous-table 'smcp' Bas-de-casse vers petites capitales dans Latin lookup 0" c.sc
EndChar

StartChar: d
Encoding: 68 100 71
Width: 722
Flags: W
TeX: 715 12
HStem: -12 61<150.031 269.383> 471 34<339.632 439.409> 690 25<506 571>
VStem: 29 146<62.6942 234.688> 390 129<61.5906 146.871>
LayerCount: 2
Fore
SplineSet
175 126 m 0,0,1
 175 49 175 49 239 49 c 0,2,3
 300 49 300 49 355 113 c 128,-1,4
 410 177 410 177 438.5 254 c 128,-1,5
 467 331 467 331 467 385 c 0,6,7
 467 420 467 420 447.5 445.5 c 128,-1,8
 428 471 428 471 392 471 c 0,9,10
 338 471 338 471 284.5 402.5 c 128,-1,11
 231 334 231 334 203 254 c 128,-1,12
 175 174 175 174 175 126 c 0,0,1
665 174 m 1,13,-1
 687 162 l 1,14,15
 666 128 666 128 646 103.5 c 128,-1,16
 626 79 626 79 597 50 c 128,-1,17
 568 21 568 21 533.5 4.5 c 128,-1,18
 499 -12 499 -12 463.5 -12 c 128,-1,19
 428 -12 428 -12 409 9 c 128,-1,20
 390 30 390 30 390 66 c 0,21,22
 390 95 390 95 401 131 c 1,23,-1
 399 133 l 1,24,-1
 399 131 l 1,25,26
 302 -12 302 -12 175 -12 c 0,27,28
 111 -12 111 -12 70 21.5 c 128,-1,29
 29 55 29 55 29 133 c 0,30,31
 29 212 29 212 79.5 299 c 128,-1,32
 130 386 130 386 211 445.5 c 128,-1,33
 292 505 292 505 372 505 c 0,34,35
 419 505 419 505 449 481.5 c 128,-1,36
 479 458 479 458 487 421 c 1,37,-1
 489 421 l 1,38,-1
 571 690 l 1,39,-1
 499 690 l 1,40,-1
 506 715 l 1,41,-1
 594 715 l 2,42,43
 654 715 654 715 714 721 c 1,44,-1
 565 227 l 2,45,46
 519 112 519 112 519 86.5 c 128,-1,47
 519 61 519 61 549 61 c 0,48,49
 571 61 571 61 608.5 102 c 128,-1,50
 646 143 646 143 665 174 c 1,13,-1
EndSplineSet
Substitution2: "sous-table 'smcp' Bas-de-casse vers petites capitales dans Latin lookup 0" d.sc
EndChar

StartChar: e
Encoding: 69 101 72
Width: 526
Flags: W
TeX: 502 12
HStem: -16 42<112.854 309.201> 474 29<305.916 384.202>
VStem: 32 138<49.332 222.148> 397 111<367.373 462.935>
LayerCount: 2
Fore
SplineSet
449 175 m 1,0,-1
 481 168 l 1,1,2
 438 90 438 90 366.5 37 c 128,-1,3
 295 -16 295 -16 198 -16 c 0,4,5
 32 -16 32 -16 32 144 c 0,6,7
 32 230 32 230 81 313.5 c 128,-1,8
 130 397 130 397 212 450 c 128,-1,9
 294 503 294 503 381 503 c 0,10,11
 434 503 434 503 471 482 c 128,-1,12
 508 461 508 461 508 419 c 0,13,14
 508 398 508 398 493.5 377 c 128,-1,15
 479 356 479 356 460 340 c 128,-1,16
 441 324 441 324 407 306 c 128,-1,17
 373 288 373 288 349.5 278 c 128,-1,18
 326 268 326 268 285.5 254 c 128,-1,19
 245 240 245 240 231 236 c 128,-1,20
 217 232 217 232 185 222 c 1,21,22
 170 165 170 165 170 118 c 0,23,24
 170 26 170 26 254 26 c 0,25,26
 360 26 360 26 449 175 c 1,0,-1
397 422 m 0,27,28
 397 445 397 445 384.5 459.5 c 128,-1,29
 372 474 372 474 350 474 c 0,30,31
 303 474 303 474 268 418.5 c 128,-1,32
 233 363 233 363 195 252 c 1,33,34
 397 320 397 320 397 422 c 0,27,28
EndSplineSet
Substitution2: "sous-table 'smcp' Bas-de-casse vers petites capitales dans Latin lookup 0" e.sc
EndChar

StartChar: f
Encoding: 70 102 73
Width: 427
Flags: W
TeX: 727 0
HStem: -180 34<-121 -20.0472> 465 25<79 169 326 420> 702 25<389.767 442.958>
VStem: -200 119<-145.536 -58.5939> 449 103<635.137 693.928>
LayerCount: 2
Fore
SplineSet
169 465 m 1,0,-1
 72 465 l 1,1,-1
 79 490 l 1,2,-1
 174 490 l 1,3,4
 184 526 184 526 205.5 564.5 c 128,-1,5
 227 603 227 603 258 641 c 128,-1,6
 289 679 289 679 334 703 c 128,-1,7
 379 727 379 727 431 727 c 0,8,9
 477 727 477 727 514.5 705 c 128,-1,10
 552 683 552 683 552 648 c 0,11,12
 552 619 552 619 534 601.5 c 128,-1,13
 516 584 516 584 484 584 c 0,14,15
 459 584 459 584 442 595.5 c 128,-1,16
 425 607 425 607 425 624 c 0,17,18
 425 637 425 637 437 651.5 c 128,-1,19
 449 666 449 666 449 677 c 128,-1,20
 449 688 449 688 441 695 c 128,-1,21
 433 702 433 702 422 702 c 0,22,23
 387 702 387 702 366 656 c 128,-1,24
 345 610 345 610 326 490 c 1,25,-1
 426 490 l 1,26,-1
 420 465 l 1,27,-1
 320 465 l 1,28,29
 310 400 310 400 289.5 323.5 c 128,-1,30
 269 247 269 247 230 155 c 128,-1,31
 191 63 191 63 144.5 -9.5 c 128,-1,32
 98 -82 98 -82 34 -131 c 128,-1,33
 -30 -180 -30 -180 -97 -180 c 0,34,35
 -145 -180 -145 -180 -172.5 -155 c 128,-1,36
 -200 -130 -200 -130 -200 -95 c 0,37,38
 -200 -32 -200 -32 -128 -32 c 0,39,40
 -102 -32 -102 -32 -85 -43.5 c 128,-1,41
 -68 -55 -68 -55 -68 -72 c 0,42,43
 -68 -80 -68 -80 -74.5 -98 c 128,-1,44
 -81 -116 -81 -116 -81 -123 c 0,45,46
 -81 -146 -81 -146 -55 -146 c 0,47,48
 6 -146 6 -146 39.5 -63 c 128,-1,49
 73 20 73 20 127 267 c 2,50,-1
 169 465 l 1,0,-1
EndSplineSet
Substitution2: "sous-table 'smcp' Bas-de-casse vers petites capitales dans Latin lookup 0" f.sc
EndChar

StartChar: g
Encoding: 71 103 74
Width: 678
Flags: W
TeX: 502 220
HStem: -223 29<119.789 328.766> 6 131<130.988 432.888> 189 29<281.612 370.633> 227 21<144.918 175> 467 36<557.972 605.995> 474 29<323.291 419.122>
VStem: -65 103<-146.191 -40.6552> 24 95<81 187.962> 140 120<261.629 407.001> 439 107<295.178 430.43> 477 77<-75.5378 30> 606 102<407.434 466.702>
LayerCount: 2
Fore
SplineSet
554 10 m 0,0,1
 554 -61 554 -61 503 -115 c 128,-1,2
 452 -169 452 -169 373.5 -196 c 128,-1,3
 295 -223 295 -223 204 -223 c 0,4,5
 152 -223 152 -223 109 -217.5 c 128,-1,6
 66 -212 66 -212 24 -199 c 128,-1,7
 -18 -186 -18 -186 -41.5 -160 c 128,-1,8
 -65 -134 -65 -134 -65 -97 c 0,9,10
 -65 -5 -65 -5 100 16 c 1,11,-1
 100 19 l 1,12,13
 24 42 24 42 24 120 c 0,14,15
 24 175 24 175 67.5 210.5 c 128,-1,16
 111 246 111 246 175 248 c 1,17,-1
 175 250 l 1,18,19
 140 274 140 274 140 327 c 0,20,21
 140 406 140 406 206.5 454.5 c 128,-1,22
 273 503 273 503 366 503 c 0,23,24
 474 503 474 503 524 432 c 1,25,26
 530 463 530 463 554 483 c 128,-1,27
 578 503 578 503 617 503 c 0,28,29
 657 503 657 503 682.5 484.5 c 128,-1,30
 708 466 708 466 708 434 c 0,31,32
 708 388 708 388 650 387 c 0,33,34
 627 387 627 387 612.5 396 c 128,-1,35
 598 405 598 405 598 420 c 0,36,37
 598 427 598 427 602 437 c 128,-1,38
 606 447 606 447 606 453 c 0,39,40
 606 468 606 468 587 467 c 0,41,42
 566 467 566 467 556 445.5 c 128,-1,43
 546 424 546 424 546 402 c 0,44,45
 546 398 546 398 548 384.5 c 128,-1,46
 550 371 550 371 550 363 c 0,47,48
 550 289 550 289 487.5 239 c 128,-1,49
 425 189 425 189 334 189 c 0,50,51
 250 189 250 189 199 227 c 1,52,53
 165 226 165 226 142 215.5 c 128,-1,54
 119 205 119 205 119 182 c 0,55,56
 119 151 119 151 168 144 c 128,-1,57
 217 137 217 137 337 137 c 0,58,59
 382 137 382 137 417.5 131.5 c 128,-1,60
 453 126 453 126 485.5 114 c 128,-1,61
 518 102 518 102 536 76 c 128,-1,62
 554 50 554 50 554 10 c 0,0,1
38 -94 m 0,63,64
 38 -143 38 -143 92 -168.5 c 128,-1,65
 146 -194 146 -194 211 -194 c 0,66,67
 328 -194 328 -194 402.5 -153 c 128,-1,68
 477 -112 477 -112 477 -65 c 0,69,70
 477 -46 477 -46 459 -31.5 c 128,-1,71
 441 -17 441 -17 418.5 -10.5 c 128,-1,72
 396 -4 396 -4 354 0.5 c 128,-1,73
 312 5 312 5 287.5 5.5 c 128,-1,74
 263 6 263 6 218 6 c 0,75,76
 38 6 38 6 38 -94 c 0,63,64
260 287 m 0,77,78
 260 256 260 256 276 237 c 128,-1,79
 292 218 292 218 323 218 c 0,80,81
 357 218 357 218 382 240.5 c 128,-1,82
 407 263 407 263 418 297.5 c 128,-1,83
 429 332 429 332 434 359 c 128,-1,84
 439 386 439 386 439 408 c 0,85,86
 439 474 439 474 372 474 c 0,87,88
 339 474 339 474 315 454 c 128,-1,89
 291 434 291 434 280 403 c 128,-1,90
 269 372 269 372 264.5 344 c 128,-1,91
 260 316 260 316 260 287 c 0,77,78
EndSplineSet
Substitution2: "sous-table 'smcp' Bas-de-casse vers petites capitales dans Latin lookup 0" g.sc
EndChar

StartChar: h
Encoding: 72 104 75
Width: 607
Flags: W
TeX: 715 0
HStem: -10 79<376 476.5> 0 21G<3 136.686> 430 48<317.235 441> 684 30<146 199> 701 20G<302.5 331.268>
LayerCount: 2
Fore
SplineSet
131 0 m 1,0,-1
 3 0 l 1,1,-1
 199 684 l 1,2,-1
 137 684 l 1,3,-1
 146 714 l 1,4,-1
 200 714 l 2,5,6
 268 714 268 714 337 721 c 1,7,-1
 245 400 l 1,8,-1
 247 400 l 1,9,10
 314 478 314 478 407 478 c 0,11,12
 475 478 475 478 504 438 c 128,-1,13
 533 398 533 398 511 322 c 2,14,-1
 458 137 l 1,15,16
 449 104 449 104 449 84 c 0,17,18
 449 69 449 69 465 69 c 0,19,20
 488 69 488 69 534 133 c 2,21,-1
 547 150 l 1,22,-1
 571 136 l 1,23,24
 513 51 513 51 475.5 20.5 c 128,-1,25
 438 -10 438 -10 390 -10 c 0,26,27
 362 -10 362 -10 345 1 c 128,-1,28
 328 12 328 12 322.5 25.5 c 128,-1,29
 317 39 317 39 318.5 61.5 c 128,-1,30
 320 84 320 84 323 95.5 c 128,-1,31
 326 107 326 107 331 126 c 1,32,-1
 392 338 l 2,33,34
 418 430 418 430 350 430 c 0,35,36
 312 430 312 430 272.5 393.5 c 128,-1,37
 233 357 233 357 216 299 c 2,38,-1
 131 0 l 1,0,-1
EndSplineSet
Substitution2: "sous-table 'smcp' Bas-de-casse vers petites capitales dans Latin lookup 0" h.sc
EndChar

StartChar: i
Encoding: 73 105 76
Width: 399
Flags: W
TeX: 706 0
HStem: -12 77<107.25 212.296> 465 25<77 182> 552 163<257.271 367.729>
VStem: 38 138<40 142.227> 231 163<578.271 688.729>
LayerCount: 2
Fore
SplineSet
182 465 m 1,0,-1
 70 465 l 1,1,-1
 77 490 l 1,2,-1
 177 490 l 2,3,4
 251 490 251 490 326 494 c 1,5,-1
 189 124 l 2,6,7
 176 93 176 93 176 84 c 0,8,9
 176 65 176 65 204 65 c 0,10,11
 248 65 248 65 352 178 c 1,12,-1
 381 165 l 1,13,14
 360 139 360 139 331 108.5 c 128,-1,15
 302 78 302 78 273 51 c 128,-1,16
 244 24 244 24 204.5 6 c 128,-1,17
 165 -12 165 -12 126.5 -12 c 128,-1,18
 88 -12 88 -12 63 7 c 128,-1,19
 38 26 38 26 38 54 c 0,20,21
 38 74 38 74 58 138 c 2,22,-1
 182 465 l 1,0,-1
231 633.5 m 128,-1,24
 231 667 231 667 255 691 c 128,-1,25
 279 715 279 715 312.5 715 c 128,-1,26
 346 715 346 715 370 691 c 128,-1,27
 394 667 394 667 394 633.5 c 128,-1,28
 394 600 394 600 370 576 c 128,-1,29
 346 552 346 552 312.5 552 c 128,-1,30
 279 552 279 552 255 576 c 128,-1,23
 231 600 231 600 231 633.5 c 128,-1,24
EndSplineSet
Substitution2: "sous-table 'smcp' Bas-de-casse vers petites capitales dans Latin lookup 0" i.sc
EndChar

StartChar: j
Encoding: 74 106 77
Width: 354
Flags: W
TeX: 706 220
HStem: -186 25<-140 -89.1406> 465 25<82 150> 552 163<232.816 342.73>
VStem: 206 163<579.037 687.963>
LayerCount: 2
Fore
SplineSet
-140 -186 m 1,0,-1
 -140 -161 l 1,1,2
 -108 -156 -108 -156 -84.5 -147 c 128,-1,3
 -61 -138 -61 -138 -45 -124 c 128,-1,4
 -29 -110 -29 -110 -17 -91.5 c 128,-1,5
 -5 -73 -5 -73 3 -50 c 128,-1,6
 11 -27 11 -27 19 1 c 128,-1,7
 27 29 27 29 36 61 c 2,8,-1
 150 465 l 1,9,-1
 77 465 l 1,10,-1
 82 490 l 1,11,-1
 166 490 l 2,12,13
 229 490 229 490 292 493 c 1,14,-1
 153 2 l 2,15,16
 136 -47 136 -47 123 -72 c 128,-1,17
 110 -97 110 -97 79.5 -121.5 c 128,-1,18
 49 -146 49 -146 -2 -160 c 128,-1,19
 -53 -174 -53 -174 -140 -186 c 1,0,-1
206 633.5 m 128,-1,21
 206 667 206 667 230.5 691 c 128,-1,22
 255 715 255 715 288 715 c 128,-1,23
 321 715 321 715 345 691 c 128,-1,24
 369 667 369 667 369 633.5 c 128,-1,25
 369 600 369 600 345 576 c 128,-1,26
 321 552 321 552 288 552 c 128,-1,27
 255 552 255 552 230.5 576 c 128,-1,20
 206 600 206 600 206 633.5 c 128,-1,21
EndSplineSet
Substitution2: "sous-table 'smcp' Bas-de-casse vers petites capitales dans Latin lookup 0" j.sc
EndChar

StartChar: k
Encoding: 75 107 78
Width: 630
Flags: W
TeX: 715 0
HStem: -12 51<371 486.815> 0 21G<4 148.608> 296 30<235 311.672> 442 60<442.841 524.5> 685 30<117 195>
VStem: 294 130<44.3849 157.536> 331 122<151.932 261.913> 473 113<381.081 441.788>
LayerCount: 2
Fore
SplineSet
195 685 m 1,0,-1
 107 685 l 1,1,-1
 117 715 l 1,2,-1
 192 715 l 2,3,4
 231 715 231 715 270 717 c 128,-1,5
 309 719 309 719 347 721 c 1,6,-1
 235 326 l 1,7,8
 262 326 262 326 281.5 330 c 128,-1,9
 301 334 301 334 317 344 c 128,-1,10
 333 354 333 354 349 371.5 c 128,-1,11
 365 389 365 389 385 417 c 0,12,13
 394 429 394 429 405 443.5 c 128,-1,14
 416 458 416 458 431 471 c 128,-1,15
 446 484 446 484 465 493 c 128,-1,16
 484 502 484 502 509 502 c 0,17,18
 540 502 540 502 563 482.5 c 128,-1,19
 586 463 586 463 586 428 c 0,20,21
 586 399 586 399 567 380.5 c 128,-1,22
 548 362 548 362 519 362 c 0,23,24
 496 362 496 362 483 375.5 c 128,-1,25
 470 389 470 389 470 409 c 0,26,27
 470 414 470 414 471.5 420 c 128,-1,28
 473 426 473 426 473 431 c 0,29,30
 473 442 473 442 462 442 c 0,31,32
 445 442 445 442 431 425.5 c 128,-1,33
 417 409 417 409 401 387.5 c 128,-1,34
 385 366 385 366 364.5 345 c 128,-1,35
 344 324 344 324 316 315 c 1,36,-1
 316 313 l 1,37,38
 340 309 340 309 364.5 301.5 c 128,-1,39
 389 294 389 294 408.5 281.5 c 128,-1,40
 428 269 428 269 440.5 249.5 c 128,-1,41
 453 230 453 230 453 203 c 0,42,43
 453 188 453 188 448.5 168.5 c 128,-1,44
 444 149 444 149 438.5 129.5 c 128,-1,45
 433 110 433 110 428.5 93 c 128,-1,46
 424 76 424 76 424 66 c 256,47,48
 424 56 424 56 432.5 47.5 c 128,-1,49
 441 39 441 39 455 39 c 0,50,51
 473 39 473 39 490 52 c 128,-1,52
 507 65 507 65 521.5 84 c 128,-1,53
 536 103 536 103 547.5 125.5 c 128,-1,54
 559 148 559 148 566 167 c 1,55,-1
 592 157 l 1,56,57
 576 120 576 120 559 89 c 128,-1,58
 542 58 542 58 520 35.5 c 128,-1,59
 498 13 498 13 468 0.5 c 128,-1,60
 438 -12 438 -12 395 -12 c 0,61,62
 347 -12 347 -12 320.5 12 c 128,-1,63
 294 36 294 36 294 76 c 0,64,65
 294 96 294 96 300 118.5 c 128,-1,66
 306 141 306 141 312.5 164 c 128,-1,67
 319 187 319 187 325 209.5 c 128,-1,68
 331 232 331 232 331 252 c 0,69,70
 331 268 331 268 322.5 277 c 128,-1,71
 314 286 314 286 301.5 290 c 128,-1,72
 289 294 289 294 274.5 295 c 128,-1,73
 260 296 260 296 248 296 c 2,74,-1
 226 296 l 1,75,-1
 143 0 l 1,76,-1
 4 0 l 1,77,-1
 195 685 l 1,0,-1
EndSplineSet
Substitution2: "sous-table 'smcp' Bas-de-casse vers petites capitales dans Latin lookup 0" k.sc
EndChar

StartChar: l
Encoding: 76 108 79
Width: 368
Flags: W
TeX: 715 0
HStem: -12 77<82 202.5> 690 25<141 217>
VStem: 17 138<43 152.75>
LayerCount: 2
Fore
SplineSet
133 690 m 1,0,-1
 141 715 l 1,1,-1
 222 715 l 2,2,3
 294 715 294 715 366 721 c 1,4,-1
 167 124 l 2,5,6
 155 93 155 93 155 85 c 0,7,8
 155 65 155 65 181 65 c 0,9,10
 224 65 224 65 307 189 c 1,11,-1
 331 178 l 1,12,13
 221 -12 221 -12 100 -12 c 0,14,15
 64 -12 64 -12 40.5 8.5 c 128,-1,16
 17 29 17 29 17 57 c 0,17,18
 17 78 17 78 36 145 c 2,19,-1
 217 690 l 1,20,-1
 133 690 l 1,0,-1
EndSplineSet
Substitution2: "sous-table 'smcp' Bas-de-casse vers petites capitales dans Latin lookup 0" l.sc
EndChar

StartChar: m
Encoding: 77 109 80
Width: 993
Flags: W
TeX: 502 0
HStem: -12 60<749 837.547> 0 21G<22 166.667 335 481.275> 442 60<391.597 482.5 698.472 801> 460 30<67 150>
VStem: 443 136<336.985 434.213> 667 136<53.8031 157.711> 761 136<317.305 433.213>
LayerCount: 2
Fore
SplineSet
67 490 m 1,0,-1
 139 490 l 2,1,2
 159 490 159 490 178.5 491 c 128,-1,3
 198 492 198 492 218 493 c 0,4,5
 257 496 257 496 297 496 c 1,6,-1
 264 362 l 1,7,-1
 266 362 l 1,8,9
 283 389 283 389 306 414 c 128,-1,10
 329 439 329 439 356 458.5 c 128,-1,11
 383 478 383 478 413 490 c 128,-1,12
 443 502 443 502 473 502 c 0,13,14
 492 502 492 502 511 497 c 128,-1,15
 530 492 530 492 545 481 c 128,-1,16
 560 470 560 470 569.5 453 c 128,-1,17
 579 436 579 436 579 413 c 0,18,19
 579 388 579 388 571 367 c 1,20,-1
 573 367 l 1,21,22
 591 394 591 394 614 418.5 c 128,-1,23
 637 443 637 443 665 461.5 c 128,-1,24
 693 480 693 480 724.5 491 c 128,-1,25
 756 502 756 502 791 502 c 0,26,27
 811 502 811 502 830 496.5 c 128,-1,28
 849 491 849 491 864 479.5 c 128,-1,29
 879 468 879 468 888 451 c 128,-1,30
 897 434 897 434 897 411 c 0,31,32
 897 401 897 401 895 386.5 c 128,-1,33
 893 372 893 372 887 354 c 2,34,-1
 818 137 l 2,35,36
 814 125 814 125 808.5 107.5 c 128,-1,37
 803 90 803 90 803 79 c 0,38,39
 803 70 803 70 807 59 c 128,-1,40
 811 48 811 48 825 48 c 256,41,42
 839 48 839 48 854.5 61 c 128,-1,43
 870 74 870 74 884.5 92.5 c 128,-1,44
 899 111 899 111 912 131.5 c 128,-1,45
 925 152 925 152 935 167 c 1,46,-1
 959 155 l 1,47,48
 944 126 944 126 924 96 c 128,-1,49
 904 66 904 66 879.5 42 c 128,-1,50
 855 18 855 18 824.5 3 c 128,-1,51
 794 -12 794 -12 758 -12 c 0,52,53
 740 -12 740 -12 724 -7 c 128,-1,54
 708 -2 708 -2 695 8.5 c 128,-1,55
 682 19 682 19 674.5 35 c 128,-1,56
 667 51 667 51 667 72 c 0,57,58
 667 90 667 90 672.5 108 c 128,-1,59
 678 126 678 126 683 143 c 2,60,-1
 747 336 l 2,61,62
 753 356 753 356 757 369 c 128,-1,63
 761 382 761 382 761 395 c 0,64,65
 761 418 761 418 748.5 430 c 128,-1,66
 736 442 736 442 718 442 c 0,67,68
 691 442 691 442 662.5 421.5 c 128,-1,69
 634 401 634 401 608.5 365.5 c 128,-1,70
 583 330 583 330 561 282.5 c 128,-1,71
 539 235 539 235 524 182 c 2,72,-1
 476 0 l 1,73,-1
 335 0 l 1,74,-1
 431 338 l 2,75,76
 436 355 436 355 439.5 369 c 128,-1,77
 443 383 443 383 443 396 c 0,78,79
 443 418 443 418 434 430 c 128,-1,80
 425 442 425 442 404 442 c 0,81,82
 385 442 385 442 364.5 428 c 128,-1,83
 344 414 344 414 324.5 391.5 c 128,-1,84
 305 369 305 369 287 340.5 c 128,-1,85
 269 312 269 312 254.5 283 c 128,-1,86
 240 254 240 254 228.5 227 c 128,-1,87
 217 200 217 200 212 180 c 2,88,-1
 161 0 l 1,89,-1
 22 0 l 1,90,-1
 150 460 l 1,91,-1
 59 460 l 1,92,-1
 67 490 l 1,0,-1
EndSplineSet
Substitution2: "sous-table 'smcp' Bas-de-casse vers petites capitales dans Latin lookup 0" m.sc
EndChar

StartChar: n
Encoding: 78 110 81
Width: 680
Flags: W
TeX: 502 0
HStem: -12 60<436 524.547> 0 21G<22 166.667> 442 60<391.597 484> 460 30<67 150>
VStem: 354 136<53.8031 157.711> 448 136<317.305 433.213>
LayerCount: 2
Fore
SplineSet
150 460 m 1,0,-1
 59 460 l 1,1,-1
 67 490 l 1,2,-1
 139 490 l 2,3,4
 179 490 179 490 218 492.5 c 128,-1,5
 257 495 257 495 297 496 c 1,6,-1
 264 362 l 1,7,-1
 266 362 l 1,8,9
 283 389 283 389 306 414 c 128,-1,10
 329 439 329 439 356 458.5 c 128,-1,11
 383 478 383 478 413 490 c 128,-1,12
 443 502 443 502 473 502 c 0,13,14
 495 502 495 502 515 496.5 c 128,-1,15
 535 491 535 491 550.5 479.5 c 128,-1,16
 566 468 566 468 575 451 c 128,-1,17
 584 434 584 434 584 411 c 0,18,19
 584 401 584 401 582 386.5 c 128,-1,20
 580 372 580 372 574 354 c 2,21,-1
 505 137 l 2,22,23
 501 125 501 125 495.5 107.5 c 128,-1,24
 490 90 490 90 490 79 c 0,25,26
 490 70 490 70 494 59 c 128,-1,27
 498 48 498 48 512 48 c 256,28,29
 526 48 526 48 541.5 61 c 128,-1,30
 557 74 557 74 571.5 92.5 c 128,-1,31
 586 111 586 111 599 131.5 c 128,-1,32
 612 152 612 152 622 167 c 1,33,-1
 646 155 l 1,34,35
 631 126 631 126 611 96 c 128,-1,36
 591 66 591 66 566.5 42 c 128,-1,37
 542 18 542 18 511.5 3 c 128,-1,38
 481 -12 481 -12 445 -12 c 0,39,40
 427 -12 427 -12 411 -7 c 128,-1,41
 395 -2 395 -2 382 8.5 c 128,-1,42
 369 19 369 19 361.5 35 c 128,-1,43
 354 51 354 51 354 72 c 0,44,45
 354 90 354 90 359.5 108 c 128,-1,46
 365 126 365 126 370 143 c 2,47,-1
 434 336 l 2,48,49
 440 356 440 356 444 369 c 128,-1,50
 448 382 448 382 448 395 c 0,51,52
 448 418 448 418 435.5 430 c 128,-1,53
 423 442 423 442 404 442 c 256,54,55
 385 442 385 442 364.5 428 c 128,-1,56
 344 414 344 414 324.5 391.5 c 128,-1,57
 305 369 305 369 287 340.5 c 128,-1,58
 269 312 269 312 254.5 283 c 128,-1,59
 240 254 240 254 228.5 227 c 128,-1,60
 217 200 217 200 212 180 c 2,61,-1
 161 0 l 1,62,-1
 22 0 l 1,63,-1
 150 460 l 1,0,-1
EndSplineSet
Substitution2: "sous-table 'smcp' Bas-de-casse vers petites capitales dans Latin lookup 0" n.sc
EndChar

StartChar: o
Encoding: 79 111 82
Width: 607
Flags: W
TeX: 502 12
HStem: -15 29<195.71 313.422> 474 29<296.771 414.29>
VStem: 33 129<93.2941 235.336> 448 129<252.664 395.037>
LayerCount: 2
Fore
SplineSet
577 299 m 0,0,1
 577 174 577 174 483.5 79.5 c 128,-1,2
 390 -15 390 -15 249 -15 c 0,3,4
 148 -15 148 -15 90.5 43.5 c 128,-1,5
 33 102 33 102 33 189 c 0,6,7
 33 314 33 314 127 408.5 c 128,-1,8
 221 503 221 503 361 503 c 0,9,10
 462 503 462 503 519.5 445 c 128,-1,11
 577 387 577 387 577 299 c 0,0,1
448 381 m 0,12,13
 448 474 448 474 357 474 c 0,14,15
 305 474 305 474 269 441 c 0,16,17
 236 411 236 411 199 289.5 c 128,-1,18
 162 168 162 168 162 107 c 0,19,20
 162 14 162 14 253 14 c 0,21,22
 305 14 305 14 341 47 c 0,23,24
 374 77 374 77 411 198.5 c 128,-1,25
 448 320 448 320 448 381 c 0,12,13
EndSplineSet
Substitution2: "sous-table 'smcp' Bas-de-casse vers petites capitales dans Latin lookup 0" o.sc
EndChar

StartChar: p
Encoding: 80 112 83
Width: 674
Flags: W
TeX: 502 220
HStem: -220 21G<3 149.537> -12 42<279.478 376.886> 451 51<413.042 512.5> 460 30<117 200>
VStem: 504 144<253.778 430.665>
LayerCount: 2
Fore
SplineSet
255 124 m 0,0,1
 255 107 255 107 259 90 c 128,-1,2
 263 73 263 73 272 59.5 c 128,-1,3
 281 46 281 46 295 38 c 128,-1,4
 309 30 309 30 328 30 c 0,5,6
 353 30 353 30 376 50 c 128,-1,7
 399 70 399 70 418.5 101.5 c 128,-1,8
 438 133 438 133 454 172 c 128,-1,9
 470 211 470 211 481 249.5 c 128,-1,10
 492 288 492 288 498 320.5 c 128,-1,11
 504 353 504 353 504 373 c 0,12,13
 504 451 504 451 452 451 c 0,14,15
 423 451 423 451 397.5 435 c 128,-1,16
 372 419 372 419 349.5 393 c 128,-1,17
 327 367 327 367 309 333 c 128,-1,18
 291 299 291 299 279 262.5 c 128,-1,19
 267 226 267 226 260.5 190 c 128,-1,20
 254 154 254 154 255 124 c 0,0,1
117 490 m 1,21,-1
 195 490 l 2,22,23
 234 490 234 490 273 492 c 128,-1,24
 312 494 312 494 350 496 c 1,25,-1
 321 403 l 1,26,-1
 323 403 l 1,27,28
 337 421 337 421 356 438.5 c 128,-1,29
 375 456 375 456 397 470.5 c 128,-1,30
 419 485 419 485 443.5 493.5 c 128,-1,31
 468 502 468 502 494 502 c 0,32,33
 531 502 531 502 560 489.5 c 128,-1,34
 589 477 589 477 608.5 455.5 c 128,-1,35
 628 434 628 434 638 404 c 128,-1,36
 648 374 648 374 648 338 c 0,37,38
 648 280 648 280 627.5 218 c 128,-1,39
 607 156 607 156 569 105 c 128,-1,40
 531 54 531 54 477.5 21 c 128,-1,41
 424 -12 424 -12 359 -12 c 0,42,43
 308 -12 308 -12 274.5 12 c 128,-1,44
 241 36 241 36 231 87 c 1,45,-1
 229 87 l 1,46,-1
 144 -220 l 1,47,-1
 3 -220 l 1,48,-1
 200 460 l 1,49,-1
 109 460 l 1,50,-1
 117 490 l 1,21,-1
EndSplineSet
Substitution2: "sous-table 'smcp' Bas-de-casse vers petites capitales dans Latin lookup 0" p.sc
EndChar

StartChar: q
Encoding: 81 113 84
Width: 629
Flags: W
TeX: 502 220
HStem: -220 21G<277 421.69> -12 40<147.5 276.05> 469 34<317.934 410.652> 470 20G<511.333 618>
VStem: 31 146<53.5165 249.513>
LayerCount: 2
Fore
SplineSet
618 490 m 1,0,-1
 416 -220 l 1,1,-1
 277 -220 l 1,2,-1
 361 76 l 1,3,-1
 359 78 l 1,4,5
 290 -12 290 -12 188 -12 c 0,6,7
 107 -12 107 -12 69 30.5 c 128,-1,8
 31 73 31 73 31 149 c 0,9,10
 31 222 31 222 80 304.5 c 128,-1,11
 129 387 129 387 211 445 c 128,-1,12
 293 503 293 503 379 503 c 0,13,14
 421 503 421 503 453.5 485 c 128,-1,15
 486 467 486 467 497 433 c 1,16,-1
 499 433 l 1,17,-1
 518 490 l 1,18,-1
 618 490 l 1,0,-1
177 112 m 0,19,20
 177 74 177 74 194.5 51 c 128,-1,21
 212 28 212 28 244 28 c 0,22,23
 293 28 293 28 338 93.5 c 128,-1,24
 383 159 383 159 408 240 c 128,-1,25
 433 321 433 321 433 381 c 0,26,27
 433 422 433 422 416.5 445.5 c 128,-1,28
 400 469 400 469 367 469 c 0,29,30
 319 469 319 469 273.5 407.5 c 128,-1,31
 228 346 228 346 202.5 263 c 128,-1,32
 177 180 177 180 177 112 c 0,19,20
EndSplineSet
Substitution2: "sous-table 'smcp' Bas-de-casse vers petites capitales dans Latin lookup 0" q.sc
EndChar

StartChar: r
Encoding: 82 114 85
Width: 512
Flags: W
TeX: 502 0
HStem: 0 21G<25 163.357> 465 25<65 150> 472 34<386.428 480>
VStem: 423 129<405.183 471.735>
LayerCount: 2
Fore
SplineSet
150 465 m 1,0,-1
 61 465 l 1,1,-1
 65 490 l 1,2,-1
 160 490 l 2,3,4
 228 490 228 490 292 496 c 1,5,-1
 259 374 l 1,6,-1
 261 372 l 1,7,8
 287 404 287 404 301.5 419.5 c 128,-1,9
 316 435 316 435 343.5 459.5 c 128,-1,10
 371 484 371 484 400 495 c 128,-1,11
 429 506 429 506 460 506 c 0,12,13
 500 506 500 506 526 485 c 128,-1,14
 552 464 552 464 552 431 c 0,15,16
 552 395 552 395 529.5 373.5 c 128,-1,17
 507 352 507 352 470 352 c 0,18,19
 398 352 398 352 399 392 c 0,20,21
 399 407 399 407 411 425.5 c 128,-1,22
 423 444 423 444 423 454 c 0,23,24
 423 472 423 472 405 472 c 0,25,26
 357 472 357 472 291 376 c 128,-1,27
 225 280 225 280 188 112 c 2,28,-1
 158 0 l 1,29,-1
 25 0 l 1,30,-1
 150 465 l 1,0,-1
EndSplineSet
Substitution2: "sous-table 'smcp' Bas-de-casse vers petites capitales dans Latin lookup 0" r.sc
EndChar

StartChar: s
Encoding: 83 115 86
Width: 485
Flags: W
TeX: 502 12
HStem: -15 29<153.793 260.501> 474 29<241.427 314.872>
VStem: 0 129<44.0781 134.014> 125 95<358.286 430.384> 301 95<73.2448 169.5> 330 120<375.924 459.219>
LayerCount: 2
Fore
SplineSet
125 362 m 0,0,1
 125 423 125 423 179.5 463 c 128,-1,2
 234 503 234 503 305 503 c 0,3,4
 357 503 357 503 403.5 477 c 128,-1,5
 450 451 450 451 450 411 c 0,6,7
 450 388 450 388 433 374 c 0,8,9
 417 361 417 361 391 362 c 0,10,11
 352 362 352 362 341 375.5 c 128,-1,12
 330 389 330 389 330 411 c 0,13,14
 330 474 330 474 277 474 c 0,15,16
 254 474 254 474 237 456 c 128,-1,17
 220 438 220 438 220 411 c 0,18,19
 220 386 220 386 238 362.5 c 128,-1,20
 256 339 256 339 282.5 319 c 128,-1,21
 309 299 309 299 334.5 277 c 128,-1,22
 360 255 360 255 378 222 c 128,-1,23
 396 189 396 189 396 150 c 0,24,25
 396 81 396 81 339.5 33 c 128,-1,26
 283 -15 283 -15 193 -15 c 0,27,28
 122 -15 122 -15 61 15.5 c 128,-1,29
 0 46 0 46 0 98 c 0,30,31
 0 119 0 119 16.5 134.5 c 128,-1,32
 33 150 33 150 64 150 c 0,33,34
 101 150 101 150 115 136.5 c 128,-1,35
 129 123 129 123 129 91 c 0,36,37
 129 14 129 14 203 14 c 0,38,39
 244 14 244 14 272.5 36 c 128,-1,40
 301 58 301 58 301 96 c 0,41,42
 301 120 301 120 283 144 c 128,-1,43
 265 168 265 168 238.5 189.5 c 128,-1,44
 212 211 212 211 186.5 234.5 c 128,-1,45
 161 258 161 258 143 291 c 128,-1,46
 125 324 125 324 125 362 c 0,0,1
EndSplineSet
Substitution2: "sous-table 'smcp' Bas-de-casse vers petites capitales dans Latin lookup 0" s.sc
EndChar

StartChar: t
Encoding: 84 116 87
Width: 393
Flags: W
TeX: 623 12
HStem: -12 70<104 210.5> 460 30<56 142 286 372>
VStem: 34 143<58.3417 170.712>
LayerCount: 2
Fore
SplineSet
56 490 m 1,0,-1
 150 490 l 1,1,-1
 186 577 l 5,2,-1
 326 617 l 1,3,-1
 286 490 l 1,4,-1
 381 490 l 1,5,-1
 372 460 l 1,6,-1
 278 460 l 1,7,-1
 188 146 l 2,8,9
 184 132 184 132 180.5 116 c 128,-1,10
 177 100 177 100 177 89 c 0,11,12
 177 58 177 58 204 58 c 0,13,14
 217 58 217 58 233.5 72.5 c 128,-1,15
 250 87 250 87 266.5 106 c 128,-1,16
 283 125 283 125 297 144.5 c 128,-1,17
 311 164 311 164 319 174 c 1,18,-1
 342 158 l 1,19,20
 322 131 322 131 299.5 101 c 128,-1,21
 277 71 277 71 251 46 c 128,-1,22
 225 21 225 21 193.5 4.5 c 128,-1,23
 162 -12 162 -12 124 -12 c 0,24,25
 84 -12 84 -12 59 8 c 128,-1,26
 34 28 34 28 34 68 c 0,27,28
 34 101 34 101 42.5 126.5 c 0,29,30
 45 134 45 134 58 179 c 2,31,-1
 142 460 l 1,32,-1
 48 460 l 1,33,-1
 56 490 l 1,0,-1
EndSplineSet
Substitution2: "sous-table 'smcp' Bas-de-casse vers petites capitales dans Latin lookup 0" t.sc
EndChar

StartChar: u
Encoding: 85 117 88
Width: 691
Flags: W
TeX: 490 12
HStem: -12 68<131.63 224.003> 465 25<58 134>
VStem: 34 138<58.7138 179.617> 365 138<37 151.677>
LayerCount: 2
Fore
SplineSet
630 490 m 1,0,-1
 516 140 l 2,1,2
 503 109 503 109 503 91 c 0,3,4
 503 80 503 80 510 74 c 128,-1,5
 517 68 517 68 527 68 c 0,6,7
 543 68 543 68 569 94.5 c 128,-1,8
 595 121 595 121 611.5 144 c 128,-1,9
 628 167 628 167 641 188 c 1,10,-1
 660 175 l 1,11,12
 638 138 638 138 619.5 112.5 c 128,-1,13
 601 87 601 87 572.5 55 c 128,-1,14
 544 23 544 23 509.5 5.5 c 128,-1,15
 475 -12 475 -12 437 -12 c 0,16,17
 405 -12 405 -12 385 4.5 c 128,-1,18
 365 21 365 21 365 53 c 0,19,20
 365 91 365 91 392 169 c 1,21,-1
 390 171 l 1,22,23
 267 -12 267 -12 134 -12 c 0,24,25
 88 -12 88 -12 61 12.5 c 128,-1,26
 34 37 34 37 34 86 c 0,27,28
 34 111 34 111 51 166 c 2,29,-1
 134 465 l 1,30,-1
 49 465 l 1,31,-1
 58 490 l 1,32,-1
 144 490 l 2,33,34
 212 490 212 490 279 496 c 1,35,-1
 188 169 l 2,36,37
 172 122 172 122 172 99 c 0,38,39
 172 56 172 56 209 56 c 0,40,41
 267 56 267 56 341 145 c 128,-1,42
 415 234 415 234 458 372 c 2,43,-1
 496 490 l 1,44,-1
 630 490 l 1,0,-1
EndSplineSet
Substitution2: "sous-table 'smcp' Bas-de-casse vers petites capitales dans Latin lookup 0" u.sc
EndChar

StartChar: v
Encoding: 86 118 89
Width: 596
Flags: W
TeX: 490 6
HStem: -12 36<217.5 328.92> 442 60<143.497 243>
VStem: 96 130<39.0059 187.212> 180 136<328.526 436.29> 522 54<264.857 401>
LayerCount: 2
Fore
SplineSet
19 309 m 1,0,1
 34 343 34 343 52.5 377 c 128,-1,2
 71 411 71 411 95 439 c 128,-1,3
 119 467 119 467 150.5 484.5 c 128,-1,4
 182 502 182 502 224 502 c 0,5,6
 262 502 262 502 289 480 c 128,-1,7
 316 458 316 458 316 416 c 0,8,9
 316 402 316 402 309.5 377 c 128,-1,10
 303 352 303 352 293 321 c 128,-1,11
 283 290 283 290 271 256.5 c 128,-1,12
 259 223 259 223 249 191 c 128,-1,13
 239 159 239 159 232.5 131.5 c 128,-1,14
 226 104 226 104 226 87 c 0,15,16
 226 58 226 58 242.5 41 c 128,-1,17
 259 24 259 24 284 24 c 0,18,19
 324 24 324 24 366 53.5 c 128,-1,20
 408 83 408 83 442.5 126.5 c 128,-1,21
 477 170 477 170 499.5 218 c 128,-1,22
 522 266 522 266 522 304 c 0,23,24
 522 328 522 328 515 341 c 128,-1,25
 508 354 508 354 497.5 362 c 128,-1,26
 487 370 487 370 474.5 375 c 128,-1,27
 462 380 462 380 451.5 387.5 c 128,-1,28
 441 395 441 395 434 406.5 c 128,-1,29
 427 418 427 418 427 440 c 0,30,31
 427 451 427 451 432 462 c 128,-1,32
 437 473 437 473 445.5 482 c 128,-1,33
 454 491 454 491 464.5 496.5 c 128,-1,34
 475 502 475 502 487 502 c 0,35,36
 511 502 511 502 527.5 492.5 c 128,-1,37
 544 483 544 483 555 467.5 c 128,-1,38
 566 452 566 452 571 432 c 128,-1,39
 576 412 576 412 576 390 c 0,40,41
 576 348 576 348 565 302 c 128,-1,42
 554 256 554 256 533 211.5 c 128,-1,43
 512 167 512 167 482 126.5 c 128,-1,44
 452 86 452 86 413.5 55 c 128,-1,45
 375 24 375 24 329.5 6 c 128,-1,46
 284 -12 284 -12 232 -12 c 0,47,48
 203 -12 203 -12 178 -5.5 c 128,-1,49
 153 1 153 1 135 14.5 c 128,-1,50
 117 28 117 28 106.5 50 c 128,-1,51
 96 72 96 72 96 104 c 0,52,53
 96 141 96 141 109 186 c 128,-1,54
 122 231 122 231 138 274 c 128,-1,55
 154 317 154 317 167 352.5 c 128,-1,56
 180 388 180 388 180 407 c 0,57,58
 180 421 180 421 175 431.5 c 128,-1,59
 170 442 170 442 155 442 c 0,60,61
 137 442 137 442 120 425 c 128,-1,62
 103 408 103 408 88.5 384.5 c 128,-1,63
 74 361 74 361 62.5 337 c 128,-1,64
 51 313 51 313 43 300 c 1,65,-1
 19 309 l 1,0,1
EndSplineSet
Substitution2: "sous-table 'smcp' Bas-de-casse vers petites capitales dans Latin lookup 0" v.sc
EndChar

StartChar: w
Encoding: 87 119 90
Width: 852
Flags: W
TeX: 490 8
HStem: -12 51<110 221.56 469.5 576.871> 460 30<58 143> 482 20G<741.5 766>
VStem: 37 136<46.2212 170.031> 351 130<53.4395 146.624> 780 54<277.784 398.5>
LayerCount: 2
Fore
SplineSet
58 490 m 1,0,-1
 130 490 l 2,1,2
 172 490 172 490 212 492 c 128,-1,3
 252 494 252 494 294 496 c 1,4,-1
 190 154 l 2,5,6
 185 138 185 138 179 112 c 128,-1,7
 173 86 173 86 173 70 c 0,8,9
 173 53 173 53 180 46 c 128,-1,10
 187 39 187 39 195 39 c 0,11,12
 220 39 220 39 250 65 c 128,-1,13
 280 91 280 91 308.5 129.5 c 128,-1,14
 337 168 337 168 360.5 211.5 c 128,-1,15
 384 255 384 255 395 291 c 2,16,-1
 455 490 l 1,17,-1
 596 490 l 1,18,-1
 499 178 l 2,19,20
 494 163 494 163 487.5 136 c 128,-1,21
 481 109 481 109 481 89 c 0,22,23
 481 67 481 67 496 53 c 128,-1,24
 511 39 511 39 538 39 c 0,25,26
 576 39 576 39 618.5 68 c 128,-1,27
 661 97 661 97 697 139 c 128,-1,28
 733 181 733 181 756.5 227.5 c 128,-1,29
 780 274 780 274 780 310 c 0,30,31
 780 343 780 343 766 356 c 128,-1,32
 752 369 752 369 735.5 377.5 c 128,-1,33
 719 386 719 386 705 396.5 c 128,-1,34
 691 407 691 407 691 435 c 0,35,36
 691 466 691 466 709.5 484 c 128,-1,37
 728 502 728 502 755 502 c 0,38,39
 777 502 777 502 792.5 492 c 128,-1,40
 808 482 808 482 817 465.5 c 128,-1,41
 826 449 826 449 830 429 c 128,-1,42
 834 409 834 409 834 388 c 0,43,44
 834 346 834 346 820 300.5 c 128,-1,45
 806 255 806 255 781.5 210.5 c 128,-1,46
 757 166 757 166 723.5 125.5 c 128,-1,47
 690 85 690 85 651 54.5 c 128,-1,48
 612 24 612 24 568.5 6 c 128,-1,49
 525 -12 525 -12 481 -12 c 0,50,51
 458 -12 458 -12 435 -7 c 128,-1,52
 412 -2 412 -2 393 10 c 128,-1,53
 374 22 374 22 362.5 41 c 128,-1,54
 351 60 351 60 351 87 c 0,55,56
 351 103 351 103 353.5 119 c 128,-1,57
 356 135 356 135 360 147 c 1,58,-1
 358 147 l 1,59,60
 340 120 340 120 318 92 c 128,-1,61
 296 64 296 64 268.5 41 c 128,-1,62
 241 18 241 18 207.5 3 c 128,-1,63
 174 -12 174 -12 134 -12 c 0,64,65
 86 -12 86 -12 61.5 14.5 c 128,-1,66
 37 41 37 41 37 83 c 0,67,68
 37 93 37 93 39.5 106 c 128,-1,69
 42 119 42 119 45.5 133 c 128,-1,70
 49 147 49 147 52.5 160.5 c 128,-1,71
 56 174 56 174 59 183 c 2,72,-1
 143 460 l 1,73,-1
 49 460 l 1,74,-1
 58 490 l 1,0,-1
EndSplineSet
Substitution2: "sous-table 'smcp' Bas-de-casse vers petites capitales dans Latin lookup 0" w.sc
EndChar

StartChar: x
Encoding: 88 120 91
Width: 699
Flags: W
TeX: 490 0
HStem: -12 36<77 167.878 368 479.025> 451 51<232.458 330.5> 466 36<532.501 613>
VStem: 9 104<27.1724 113.421> 591 99<373.985 462.64>
LayerCount: 2
Fore
SplineSet
79 332 m 1,0,1
 100 361 100 361 125.5 391.5 c 128,-1,2
 151 422 151 422 181 446.5 c 128,-1,3
 211 471 211 471 245.5 486.5 c 128,-1,4
 280 502 280 502 318 502 c 0,5,6
 343 502 343 502 367 494.5 c 128,-1,7
 391 487 391 487 409 473 c 128,-1,8
 427 459 427 459 437.5 438.5 c 128,-1,9
 448 418 448 418 447 391 c 1,10,-1
 449 391 l 1,11,12
 459 410 459 410 474 430 c 128,-1,13
 489 450 489 450 507.5 466 c 128,-1,14
 526 482 526 482 547.5 492 c 128,-1,15
 569 502 569 502 592 502 c 0,16,17
 634 502 634 502 662 478.5 c 128,-1,18
 690 455 690 455 690 411 c 0,19,20
 690 379 690 379 671 358 c 128,-1,21
 652 337 652 337 623 337 c 0,22,23
 602 337 602 337 588 350 c 128,-1,24
 574 363 574 363 574 389 c 0,25,26
 574 399 574 399 576.5 406.5 c 128,-1,27
 579 414 579 414 582.5 420 c 128,-1,28
 586 426 586 426 588.5 431.5 c 128,-1,29
 591 437 591 437 591 445 c 0,30,31
 591 454 591 454 586 460 c 128,-1,32
 581 466 581 466 572 466 c 0,33,34
 548 466 548 466 525.5 446 c 128,-1,35
 503 426 503 426 482 394 c 128,-1,36
 461 362 461 362 443.5 322 c 128,-1,37
 426 282 426 282 413 242 c 128,-1,38
 400 202 400 202 393 167 c 128,-1,39
 386 132 386 132 386 109 c 0,40,41
 386 79 386 79 397.5 54.5 c 128,-1,42
 409 30 409 30 440 30 c 0,43,44
 465 30 465 30 490 44.5 c 128,-1,45
 515 59 515 59 537 80.5 c 128,-1,46
 559 102 559 102 578 126.5 c 128,-1,47
 597 151 597 151 611 170 c 1,48,-1
 634 155 l 1,49,50
 614 124 614 124 589.5 94 c 128,-1,51
 565 64 565 64 535.5 40.5 c 128,-1,52
 506 17 506 17 471.5 2.5 c 128,-1,53
 437 -12 437 -12 398 -12 c 0,54,55
 338 -12 338 -12 299.5 13 c 128,-1,56
 261 38 261 38 259 101 c 1,57,-1
 257 101 l 1,58,59
 241 78 241 78 225.5 57.5 c 128,-1,60
 210 37 210 37 191 21.5 c 128,-1,61
 172 6 172 6 149 -3 c 128,-1,62
 126 -12 126 -12 96 -12 c 0,63,64
 58 -12 58 -12 33.5 11.5 c 128,-1,65
 9 35 9 35 9 73 c 0,66,67
 9 105 9 105 25.5 129 c 128,-1,68
 42 153 42 153 75 153 c 0,69,70
 97 153 97 153 111 137.5 c 128,-1,71
 125 122 125 122 125 99 c 0,72,73
 125 86 125 86 119 71.5 c 128,-1,74
 113 57 113 57 113 46 c 0,75,76
 113 36 113 36 119 30 c 128,-1,77
 125 24 125 24 133 24 c 0,78,79
 155 24 155 24 177 44.5 c 128,-1,80
 199 65 199 65 219.5 98.5 c 128,-1,81
 240 132 240 132 258 173 c 128,-1,82
 276 214 276 214 289.5 255 c 128,-1,83
 303 296 303 296 311 332 c 128,-1,84
 319 368 319 368 319 392 c 0,85,86
 319 419 319 419 306 435 c 128,-1,87
 293 451 293 451 268 451 c 0,88,89
 245 451 245 451 221 436 c 128,-1,90
 197 421 197 421 174.5 400 c 128,-1,91
 152 379 152 379 132.5 356 c 128,-1,92
 113 333 113 333 100 317 c 1,93,-1
 79 332 l 1,0,1
EndSplineSet
Substitution2: "sous-table 'smcp' Bas-de-casse vers petites capitales dans Latin lookup 0" x.sc
EndChar

StartChar: y
Encoding: 89 121 92
Width: 574
Flags: W
TeX: 490 220
HStem: -198 42<6 94.4547> 384 118<462.222 572.857> 432 70<104.107 193>
VStem: -90 116<-152.318 -63.2616> -3 25<286.04 315.224>
LayerCount: 2
Fore
SplineSet
225 -25 m 2,0,1
 209 -55 209 -55 189 -86 c 128,-1,2
 169 -117 169 -117 143 -141.5 c 128,-1,3
 117 -166 117 -166 85.5 -182 c 128,-1,4
 54 -198 54 -198 15 -198 c 0,5,6
 -3 -198 -3 -198 -22 -193 c 128,-1,7
 -41 -188 -41 -188 -56 -177 c 128,-1,8
 -71 -166 -71 -166 -80.5 -148.5 c 128,-1,9
 -90 -131 -90 -131 -90 -105 c 0,10,11
 -90 -92 -90 -92 -86 -78 c 128,-1,12
 -82 -64 -82 -64 -73.5 -52.5 c 128,-1,13
 -65 -41 -65 -41 -51.5 -33.5 c 128,-1,14
 -38 -26 -38 -26 -19 -26 c 0,15,16
 5 -26 5 -26 21 -40.5 c 128,-1,17
 37 -55 37 -55 37 -80 c 0,18,19
 37 -96 37 -96 31.5 -107 c 128,-1,20
 26 -118 26 -118 26 -130 c 0,21,22
 26 -143 26 -143 34.5 -149.5 c 128,-1,23
 43 -156 43 -156 55 -156 c 0,24,25
 77 -156 77 -156 101.5 -136 c 128,-1,26
 126 -116 126 -116 146 -88.5 c 128,-1,27
 166 -61 166 -61 179 -32 c 128,-1,28
 192 -3 192 -3 192 15 c 0,29,30
 192 27 192 27 190.5 49.5 c 128,-1,31
 189 72 189 72 186 99.5 c 128,-1,32
 183 127 183 127 179 158 c 128,-1,33
 175 189 175 189 170 219 c 2,34,-1
 148 351 l 2,35,36
 146 364 146 364 143 378.5 c 128,-1,37
 140 393 140 393 136 405 c 128,-1,38
 132 417 132 417 126 424.5 c 128,-1,39
 120 432 120 432 112 432 c 0,40,41
 97 432 97 432 84.5 418 c 128,-1,42
 72 404 72 404 61 382 c 128,-1,43
 50 360 50 360 40.5 333 c 128,-1,44
 31 306 31 306 22 281 c 1,45,-1
 -3 288 l 1,46,47
 5 319 5 319 18.5 356 c 128,-1,48
 32 393 32 393 53 425.5 c 128,-1,49
 74 458 74 458 104 480 c 128,-1,50
 134 502 134 502 175 502 c 0,51,52
 211 502 211 502 232.5 482.5 c 128,-1,53
 254 463 254 463 266 433 c 128,-1,54
 278 403 278 403 283.5 367.5 c 128,-1,55
 289 332 289 332 292 300 c 2,56,-1
 304 187 l 1,57,-1
 306 187 l 1,58,-1
 406 395 l 2,59,60
 415 414 415 414 425.5 433.5 c 128,-1,61
 436 453 436 453 449.5 468 c 128,-1,62
 463 483 463 483 481 492.5 c 128,-1,63
 499 502 499 502 524 502 c 0,64,65
 553 502 553 502 573.5 486 c 128,-1,66
 594 470 594 470 594 438 c 0,67,68
 594 414 594 414 583.5 402 c 128,-1,69
 573 390 573 390 557.5 384 c 128,-1,70
 542 378 542 378 523 376.5 c 128,-1,71
 504 375 504 375 486 374 c 0,72,73
 466 372 466 372 450.5 362.5 c 128,-1,74
 435 353 435 353 422.5 338.5 c 128,-1,75
 410 324 410 324 400 306 c 128,-1,76
 390 288 390 288 380 270 c 2,77,-1
 225 -25 l 2,0,1
EndSplineSet
Substitution2: "sous-table 'smcp' Bas-de-casse vers petites capitales dans Latin lookup 0" y.sc
EndChar

StartChar: z
Encoding: 90 122 93
Width: 595
Flags: W
TeX: 490 0
HStem: -12 42<346.5 453.528> 368 122<159 389>
VStem: 462 76<44 138.5>
LayerCount: 2
Fore
SplineSet
159 490 m 1,0,-1
 573 490 l 1,1,-1
 208 181 l 1,2,3
 256 176 256 176 291.5 151.5 c 128,-1,4
 327 127 327 127 354 100 c 128,-1,5
 381 73 381 73 400.5 51.5 c 128,-1,6
 420 30 420 30 437 30 c 0,7,8
 462 30 462 30 462 58 c 0,9,10
 462 65 462 65 455.5 71.5 c 128,-1,11
 449 78 449 78 441.5 86.5 c 128,-1,12
 434 95 434 95 428 104.5 c 128,-1,13
 422 114 422 114 422 127 c 0,14,15
 422 150 422 150 437 167.5 c 128,-1,16
 452 185 452 185 477 185 c 0,17,18
 506 185 506 185 522 169 c 128,-1,19
 538 153 538 153 538 124 c 256,20,21
 538 95 538 95 522.5 70 c 128,-1,22
 507 45 507 45 483 27 c 128,-1,23
 459 9 459 9 429.5 -1.5 c 128,-1,24
 400 -12 400 -12 372 -12 c 0,25,26
 321 -12 321 -12 283.5 0 c 128,-1,27
 246 12 246 12 215.5 26.5 c 128,-1,28
 185 41 185 41 159 53 c 128,-1,29
 133 65 133 65 106 65 c 0,30,31
 80 65 80 65 55.5 48.5 c 128,-1,32
 31 32 31 32 13 14 c 1,33,-1
 -7 33 l 1,34,-1
 389 368 l 1,35,-1
 128 368 l 1,36,-1
 80 279 l 1,37,-1
 55 288 l 1,38,-1
 159 490 l 1,0,-1
EndSplineSet
Substitution2: "sous-table 'smcp' Bas-de-casse vers petites capitales dans Latin lookup 0" z.sc
EndChar

StartChar: braceleft
Encoding: 91 123 94
Width: 376
Flags: W
TeX: 715 249
HStem: 695 20G<457 504>
VStem: 157 115.5<65.5781 218.898>
LayerCount: 2
Fore
SplineSet
90 -93 m 2,0,-1
 147 106 l 2,1,2
 163 162 163 162 157 190 c 128,-1,3
 151 218 151 218 113 233 c 1,4,5
 159 248 159 248 181.5 276 c 128,-1,6
 204 304 204 304 220 360 c 2,7,-1
 277 559 l 2,8,9
 304 653 304 653 355.5 684 c 128,-1,10
 407 715 407 715 507 715 c 1,11,-1
 504 703 l 1,12,13
 463 690 463 690 438 657.5 c 128,-1,14
 413 625 413 625 396 565 c 2,15,-1
 342 377 l 2,16,17
 324 313 324 313 300 280.5 c 128,-1,18
 276 248 276 248 226 234 c 1,19,-1
 225 232 l 1,20,21
 267 218 267 218 272.5 185.5 c 128,-1,22
 278 153 278 153 260 89 c 2,23,-1
 206 -99 l 2,24,25
 189 -159 189 -159 195 -191.5 c 128,-1,26
 201 -224 201 -224 234 -237 c 1,27,-1
 231 -249 l 1,28,29
 131 -249 131 -249 97 -218 c 128,-1,30
 63 -187 63 -187 90 -93 c 2,0,-1
EndSplineSet
EndChar

StartChar: bar
Encoding: 92 124 95
Width: 222
Flags: W
TeX: 786 214
VStem: 59 104<-214 786>
LayerCount: 2
Fore
SplineSet
59 -214 m 1,0,-1
 59 786 l 1,1,-1
 163 786 l 1,2,-1
 163 -214 l 1,3,-1
 59 -214 l 1,0,-1
EndSplineSet
EndChar

StartChar: braceright
Encoding: 93 125 96
Width: 376
Flags: W
TeX: 715 249
HStem: 695 20G<276 330>
VStem: 237.5 116<247.102 403.438>
LayerCount: 2
Fore
SplineSet
420 559 m 2,0,-1
 363 360 l 2,1,2
 347 304 347 304 353.5 276 c 128,-1,3
 360 248 360 248 397 233 c 1,4,5
 351 218 351 218 328.5 190 c 128,-1,6
 306 162 306 162 290 106 c 2,7,-1
 233 -93 l 2,8,9
 206 -187 206 -187 155 -218 c 128,-1,10
 104 -249 104 -249 3 -249 c 1,11,-1
 7 -237 l 1,12,13
 48 -224 48 -224 72.5 -191.5 c 128,-1,14
 97 -159 97 -159 114 -99 c 2,15,-1
 168 89 l 2,16,17
 186 153 186 153 210.5 185.5 c 128,-1,18
 235 218 235 218 284 232 c 1,19,-1
 285 234 l 1,20,21
 243 248 243 248 237.5 280.5 c 128,-1,22
 232 313 232 313 251 377 c 2,23,-1
 305 565 l 2,24,25
 322 625 322 625 316 657.5 c 128,-1,26
 310 690 310 690 276 703 c 1,27,-1
 280 715 l 1,28,29
 380 715 380 715 413.5 684 c 128,-1,30
 447 653 447 653 420 559 c 2,0,-1
EndSplineSet
EndChar

StartChar: asciitilde
Encoding: 94 126 97
Width: 556
Flags: W
TeX: 320 -182
HStem: 171 96<314.887 435.021> 239 96<120.979 241.113>
LayerCount: 2
Fore
SplineSet
83 169 m 1,0,-1
 47 249 l 1,1,2
 92 335 92 335 172 335 c 0,3,4
 212 335 212 335 287 301 c 128,-1,5
 362 267 362 267 385 267 c 0,6,7
 412 267 412 267 431.5 285 c 128,-1,8
 451 303 451 303 473 337 c 1,9,-1
 509 257 l 1,10,11
 464 171 464 171 384 171 c 0,12,13
 344 171 344 171 269 205 c 128,-1,14
 194 239 194 239 171 239 c 0,15,16
 144 239 144 239 124.5 221 c 128,-1,17
 105 203 105 203 83 169 c 1,0,-1
EndSplineSet
EndChar

StartChar: exclamdown
Encoding: 95 161 98
Width: 272
Flags: W
TeX: 508 220
HStem: -220 21G<57.75 89.25> 357 162<227.724 295.822>
VStem: 186.5 150.5<397.052 478.948>
LayerCount: 2
Fore
SplineSet
60 -55 m 2,0,-1
 207 299 l 1,1,-1
 237 299 l 1,2,-1
 181 -55 l 2,3,4
 170 -125 170 -125 166 -141 c 0,5,6
 156 -175 156 -175 130.5 -197.5 c 128,-1,7
 105 -220 105 -220 73.5 -220 c 128,-1,8
 42 -220 42 -220 29 -197.5 c 128,-1,9
 16 -175 16 -175 26 -141 c 0,10,11
 31 -125 31 -125 60 -55 c 2,0,-1
337 438 m 128,-1,13
 327 404 327 404 298.5 380.5 c 128,-1,14
 270 357 270 357 238.5 357 c 128,-1,15
 207 357 207 357 192 380.5 c 128,-1,16
 177 404 177 404 186.5 438 c 128,-1,17
 196 472 196 472 225 495.5 c 128,-1,18
 254 519 254 519 285.5 519 c 128,-1,19
 317 519 317 519 332 495.5 c 128,-1,12
 347 472 347 472 337 438 c 128,-1,13
EndSplineSet
EndChar

StartChar: cent
Encoding: 96 162 99
Width: 515
Flags: W
TeX: 607 117
HStem: -12 42<298.189 380.684> 317 179.5<459.457 544.35> 472 30<433 453.575>
LayerCount: 2
Fore
SplineSet
268 42 m 1,0,-1
 390 469 l 1,1,2
 363 461 363 461 342.5 441.5 c 128,-1,3
 322 422 322 422 305.5 386 c 128,-1,4
 289 350 289 350 280 323.5 c 128,-1,5
 271 297 271 297 256 245 c 0,6,7
 209 78 209 78 268 42 c 1,0,-1
221 -121 m 1,8,-1
 252 -12 l 1,9,10
 156 -2 156 -2 118 67 c 128,-1,11
 80 136 80 136 111 245 c 0,12,13
 141 349 141 349 221 420 c 128,-1,14
 301 491 301 491 400 502 c 1,15,-1
 427 598 l 1,16,-1
 461 598 l 1,17,-1
 433 502 l 1,18,19
 464 502 464 502 489.5 496.5 c 128,-1,20
 515 491 515 491 539 478 c 128,-1,21
 563 465 563 465 571.5 438 c 128,-1,22
 580 411 580 411 569 373 c 0,23,24
 553 317 553 317 498 317 c 0,25,26
 460 317 460 317 451 337.5 c 128,-1,27
 442 358 442 358 454 401 c 0,28,29
 473 469 473 469 425 472 c 1,30,-1
 298 32 l 1,31,32
 304 30 304 30 318 30 c 0,33,34
 416 30 416 30 499 160 c 1,35,-1
 520 148 l 1,36,37
 426 -12 426 -12 286 -12 c 1,38,-1
 255 -121 l 1,39,-1
 221 -121 l 1,8,-1
EndSplineSet
EndChar

StartChar: sterling
Encoding: 97 163 100
Width: 515
Flags: W
TeX: 706 28
HStem: -24 96<234.303 398.101> -12 126<55.429 134.434> 338 42<149 227 365 488> 670 36<440.487 542.5>
VStem: 230 140.5<380 470.941> 514 34<195.262 234>
LayerCount: 2
Fore
SplineSet
137 338 m 1,0,-1
 149 380 l 1,1,-1
 230 380 l 1,2,3
 233 414 233 414 242 443 c 0,4,5
 272 546 272 546 353.5 626 c 128,-1,6
 435 706 435 706 519 706 c 0,7,8
 566 706 566 706 596 682.5 c 128,-1,9
 626 659 626 659 612 612 c 0,10,11
 605 587 605 587 588.5 572.5 c 128,-1,12
 572 558 572 558 548 558 c 128,-1,13
 524 558 524 558 516 575.5 c 128,-1,14
 508 593 508 593 510.5 614 c 128,-1,15
 513 635 513 635 505 652.5 c 128,-1,16
 497 670 497 670 473 670 c 0,17,18
 445 670 445 670 420.5 640.5 c 128,-1,19
 396 611 396 611 385 573 c 0,20,21
 375 539 375 539 370.5 464 c 128,-1,22
 366 389 366 389 365 380 c 1,23,-1
 500 380 l 1,24,-1
 488 338 l 1,25,-1
 362 338 l 1,26,27
 355 298 355 298 350 282 c 0,28,29
 325 194 325 194 209 80 c 1,30,31
 259 72 259 72 323 72 c 0,32,33
 391 72 391 72 440.5 115.5 c 128,-1,34
 490 159 490 159 514 234 c 1,35,-1
 548 234 l 1,36,37
 474 -24 474 -24 314 -24 c 0,38,39
 244 -24 244 -24 176 41 c 1,40,41
 158 28 158 28 143.5 16.5 c 128,-1,42
 129 5 129 5 109.5 -3.5 c 128,-1,43
 90 -12 90 -12 71 -12 c 0,44,45
 47 -12 47 -12 36 6.5 c 128,-1,46
 25 25 25 25 33 52 c 0,47,48
 41 81 41 81 61 97.5 c 128,-1,49
 81 114 81 114 106 114 c 0,50,51
 119 114 119 114 131 110 c 128,-1,52
 143 106 143 106 158 99 c 128,-1,53
 173 92 173 92 185 88 c 1,54,55
 205 114 205 114 215 149 c 0,56,57
 224 180 224 180 226.5 210.5 c 128,-1,58
 229 241 229 241 227.5 282.5 c 128,-1,59
 226 324 226 324 227 338 c 1,60,-1
 137 338 l 1,0,-1
EndSplineSet
EndChar

StartChar: fraction
Encoding: 224 8260 101
Width: 161
Flags: W
TeX: 715 21
HStem: 702 20G<451.28 520>
LayerCount: 2
Fore
SplineSet
-159 -28 m 1,0,-1
 468 722 l 1,1,-1
 520 722 l 1,2,-1
 -107 -28 l 1,3,-1
 -159 -28 l 1,0,-1
EndSplineSet
EndChar

StartChar: yen
Encoding: 99 165 102
Width: 518
Flags: W
TeX: 694 0
HStem: 0 30<102 199 333 421> 194 42<135 246 392 503> 311 42<169 280 426 536> 664 30<162 226 387 459 574 638 674 746>
LayerCount: 2
Fore
SplineSet
94 0 m 1,0,-1
 102 30 l 1,1,-1
 199 30 l 1,2,-1
 246 194 l 1,3,-1
 123 194 l 1,4,-1
 135 236 l 1,5,-1
 258 236 l 1,6,-1
 280 311 l 1,7,-1
 157 311 l 1,8,-1
 169 353 l 1,9,-1
 292 353 l 1,10,-1
 226 664 l 1,11,-1
 153 664 l 1,12,-1
 162 694 l 1,13,-1
 468 694 l 1,14,-1
 459 664 l 1,15,-1
 387 664 l 1,16,-1
 436 406 l 1,17,-1
 638 664 l 1,18,-1
 565 664 l 1,19,-1
 574 694 l 1,20,-1
 755 694 l 1,21,-1
 746 664 l 1,22,-1
 674 664 l 1,23,-1
 426 353 l 1,24,-1
 548 353 l 1,25,-1
 536 311 l 1,26,-1
 414 311 l 1,27,-1
 392 236 l 1,28,-1
 515 236 l 1,29,-1
 503 194 l 1,30,-1
 380 194 l 1,31,-1
 333 30 l 1,32,-1
 430 30 l 1,33,-1
 421 0 l 1,34,-1
 94 0 l 1,0,-1
EndSplineSet
EndChar

StartChar: florin
Encoding: 200 402 103
Width: 487
Flags: W
TeX: 706 193
HStem: -200 34<-13.5 72.1162> 352 41<208 278 417 496> 674 34<536.29 615.5>
LayerCount: 2
Fore
SplineSet
191 352 m 1,0,-1
 208 393 l 1,1,-1
 292 393 l 1,2,3
 317 467 317 467 359.5 536 c 128,-1,4
 402 605 402 605 466 656.5 c 128,-1,5
 530 708 530 708 595 708 c 0,6,7
 636 708 636 708 657.5 683 c 128,-1,8
 679 658 679 658 665 614 c 0,9,10
 645 544 645 544 588 544 c 0,11,12
 533 544 533 544 553 592 c 0,13,14
 558 610 558 610 570.5 628 c 128,-1,15
 583 646 583 646 585 654 c 0,16,17
 592 674 592 674 572 674 c 0,18,19
 524 674 524 674 478 558 c 2,20,-1
 417 393 l 1,21,-1
 512 393 l 1,22,-1
 496 352 l 1,23,-1
 402 352 l 1,24,-1
 304 95 l 2,25,26
 255 -32 255 -32 174 -116 c 128,-1,27
 93 -200 93 -200 10 -200 c 0,28,29
 -37 -200 -37 -200 -57 -175 c 128,-1,30
 -77 -150 -77 -150 -63 -107 c 0,31,32
 -55 -80 -55 -80 -35 -61.5 c 128,-1,33
 -15 -43 -15 -43 9 -43 c 128,-1,34
 33 -43 33 -43 43.5 -58 c 128,-1,35
 54 -73 54 -73 46 -98 c 0,36,37
 43 -108 43 -108 35.5 -122.5 c 128,-1,38
 28 -137 28 -137 26 -145 c 0,39,40
 23 -154 23 -154 27 -160 c 128,-1,41
 31 -166 31 -166 39 -166 c 0,42,43
 65 -166 65 -166 89 -127.5 c 128,-1,44
 113 -89 113 -89 142 -11 c 2,45,-1
 278 352 l 1,46,-1
 191 352 l 1,0,-1
EndSplineSet
EndChar

StartChar: section
Encoding: 101 167 104
Width: 514
Flags: W
TeX: 727 220
HStem: -220 42<131.012 261.169> 691 36<410.091 515.88>
VStem: 27 119<-111.223 -30.135> 441.5 66<64.6482 206.557>
LayerCount: 2
Fore
SplineSet
471 691 m 0,0,1
 430 691 430 691 392.5 661 c 128,-1,2
 355 631 355 631 341 584 c 0,3,4
 331 548 331 548 338.5 517 c 128,-1,5
 346 486 346 486 365 461.5 c 128,-1,6
 384 437 384 437 408 412 c 128,-1,7
 432 387 432 387 454 356 c 128,-1,8
 476 325 476 325 491.5 288 c 128,-1,9
 507 251 507 251 507.5 195 c 128,-1,10
 508 139 508 139 488 72 c 0,11,12
 449 -64 449 -64 362 -142 c 128,-1,13
 275 -220 275 -220 166 -220 c 0,14,15
 87 -220 87 -220 47.5 -178.5 c 128,-1,16
 8 -137 8 -137 27 -70 c 0,17,18
 36 -40 36 -40 58.5 -19 c 128,-1,19
 81 2 81 2 109 2 c 0,20,21
 165 2 165 2 146 -63 c 0,22,23
 143 -73 143 -73 133 -93 c 128,-1,24
 123 -113 123 -113 120 -122 c 0,25,26
 112 -149 112 -149 134.5 -163.5 c 128,-1,27
 157 -178 157 -178 187 -178 c 0,28,29
 237 -178 237 -178 282 -144.5 c 128,-1,30
 327 -111 327 -111 342 -58 c 0,31,32
 351 -26 351 -26 342.5 4 c 128,-1,33
 334 34 334 34 314.5 59 c 128,-1,34
 295 84 295 84 269 111 c 128,-1,35
 243 138 243 138 219.5 170.5 c 128,-1,36
 196 203 196 203 179.5 240 c 128,-1,37
 163 277 163 277 161 330.5 c 128,-1,38
 159 384 159 384 177 446 c 0,39,40
 213 570 213 570 295 648.5 c 128,-1,41
 377 727 377 727 483 727 c 0,42,43
 552 727 552 727 593.5 691 c 128,-1,44
 635 655 635 655 616 589 c 0,45,46
 608 562 608 562 586 544.5 c 128,-1,47
 564 527 564 527 538 527 c 0,48,49
 511 527 511 527 501 545 c 128,-1,50
 491 563 491 563 499 589 c 0,51,52
 502 599 502 599 511 617 c 128,-1,53
 520 635 520 635 523 643 c 0,54,55
 529 665 529 665 514.5 678 c 128,-1,56
 500 691 500 691 471 691 c 0,0,1
344 647 m 1,57,-1
 342 649 l 1,58,59
 262 589 262 589 233 484 c 0,60,61
 215 422 215 422 231.5 367.5 c 128,-1,62
 248 313 248 313 281.5 273 c 128,-1,63
 315 233 315 233 349 193 c 128,-1,64
 383 153 383 153 400.5 101.5 c 128,-1,65
 418 50 418 50 401 -9 c 0,66,67
 388 -53 388 -53 361 -101 c 1,68,-1
 362 -103 l 1,69,70
 411 -43 411 -43 428 19 c 0,71,72
 444 75 444 75 441.5 122 c 128,-1,73
 439 169 439 169 422.5 201.5 c 128,-1,74
 406 234 406 234 383 263 c 128,-1,75
 360 292 360 292 337 320 c 128,-1,76
 314 348 314 348 296 377.5 c 128,-1,77
 278 407 278 407 273.5 447.5 c 128,-1,78
 269 488 269 488 283 537 c 0,79,80
 302 600 302 600 344 647 c 1,57,-1
EndSplineSet
EndChar

StartChar: currency
Encoding: 98 164 105
Width: 556
Flags: W
TeX: 598 -96
HStem: 99 96<203.136 352.864> 499 96<203.136 352.864>
VStem: 29 104<266.006 427.994> 423 104<266.006 427.994>
LayerCount: 2
Fore
SplineSet
80 87 m 1,0,-1
 19 148 l 1,1,-1
 75 203 l 1,2,3
 29 266 29 266 29 347 c 128,-1,4
 29 428 29 428 75 491 c 1,5,-1
 19 546 l 1,6,-1
 80 607 l 1,7,-1
 138 552 l 1,8,9
 197 595 197 595 278 595 c 128,-1,10
 359 595 359 595 418 552 c 1,11,-1
 476 607 l 1,12,-1
 537 546 l 1,13,-1
 481 491 l 1,14,15
 527 428 527 428 527 347 c 128,-1,16
 527 266 527 266 481 203 c 1,17,-1
 537 148 l 1,18,-1
 476 87 l 1,19,-1
 418 142 l 1,20,21
 359 99 359 99 278 99 c 128,-1,22
 197 99 197 99 138 142 c 1,23,-1
 80 87 l 1,0,-1
133 347 m 128,-1,25
 133 284 133 284 175.5 239.5 c 128,-1,26
 218 195 218 195 278 195 c 128,-1,27
 338 195 338 195 380.5 239.5 c 128,-1,28
 423 284 423 284 423 347 c 128,-1,29
 423 410 423 410 380.5 454.5 c 128,-1,30
 338 499 338 499 278 499 c 128,-1,31
 218 499 218 499 175.5 454.5 c 128,-1,24
 133 410 133 410 133 347 c 128,-1,25
EndSplineSet
EndChar

StartChar: quotesingle
Encoding: 7 39 106
Width: 222
Flags: W
TeX: 727 -403
HStem: 396 331<87.0439 134.956>
VStem: 59 104<458.453 719.38>
LayerCount: 2
Fore
SplineSet
160 625 m 2,0,-1
 139 438 l 2,1,2
 135 396 135 396 111 396 c 128,-1,3
 87 396 87 396 83 438 c 2,4,-1
 62 625 l 2,5,6
 59 648 59 648 59 668 c 0,7,8
 59 727 59 727 111 727 c 128,-1,9
 163 727 163 727 163 668 c 0,10,11
 163 648 163 648 160 625 c 2,0,-1
EndSplineSet
EndChar

StartChar: quotedblleft
Encoding: 214 8220 107
Width: 446
Flags: W
TeX: 727 -403
HStem: 396 156<236.812 295.57 452.812 512.555> 707 20G<337 374.857 554 591.857>
VStem: 392 161<435.564 530.341>
LayerCount: 2
Fore
SplineSet
589 727 m 1,0,-1
 593 699 l 1,1,2
 543 678 543 678 503.5 635 c 128,-1,3
 464 592 464 592 452 542 c 1,4,5
 478 552 478 552 503 552 c 0,6,7
 532 552 532 552 547 531 c 128,-1,8
 562 510 562 510 553 477 c 0,9,10
 543 441 543 441 514 418.5 c 128,-1,11
 485 396 485 396 451 396 c 0,12,13
 404 396 404 396 392 431 c 128,-1,14
 380 466 380 466 395 518 c 0,15,16
 415 588 415 588 467 642 c 128,-1,17
 519 696 519 696 589 727 c 1,0,-1
372 727 m 1,18,-1
 376 699 l 1,19,20
 326 678 326 678 286.5 635 c 128,-1,21
 247 592 247 592 236 542 c 1,22,23
 262 552 262 552 286 552 c 0,24,25
 315 552 315 552 330.5 531 c 128,-1,26
 346 510 346 510 336 477 c 0,27,28
 326 441 326 441 297 418.5 c 128,-1,29
 268 396 268 396 235 396 c 0,30,31
 188 396 188 396 176 431 c 128,-1,32
 164 466 164 466 179 518 c 0,33,34
 199 588 199 588 250.5 642 c 128,-1,35
 302 696 302 696 372 727 c 1,18,-1
EndSplineSet
EndChar

StartChar: guillemotleft
Encoding: 105 171 108
Width: 395
Flags: W
TeX: 408 -64
LayerCount: 2
Fore
SplineSet
82 218 m 1,0,-1
 92 254 l 1,1,-1
 307 408 l 1,2,-1
 323 389 l 1,3,-1
 198 236 l 1,4,-1
 235 83 l 1,5,-1
 209 64 l 1,6,-1
 82 218 l 1,0,-1
246 218 m 1,7,-1
 257 254 l 1,8,-1
 472 408 l 1,9,-1
 488 389 l 1,10,-1
 363 236 l 1,11,-1
 400 83 l 1,12,-1
 373 64 l 1,13,-1
 246 218 l 1,7,-1
EndSplineSet
EndChar

StartChar: guilsinglleft
Encoding: 222 8249 109
Width: 239
Flags: W
TeX: 408 -64
VStem: 86 242
LayerCount: 2
Fore
SplineSet
86 218 m 1,0,-1
 96 254 l 1,1,-1
 312 408 l 1,2,-1
 328 389 l 1,3,-1
 203 236 l 1,4,-1
 240 83 l 1,5,-1
 213 64 l 1,6,-1
 86 218 l 1,0,-1
EndSplineSet
EndChar

StartChar: guilsinglright
Encoding: 223 8250 110
Width: 239
Flags: W
TeX: 408 -64
VStem: 47 242
LayerCount: 2
Fore
SplineSet
289 254 m 1,0,-1
 279 218 l 1,1,-1
 63 64 l 1,2,-1
 47 83 l 1,3,-1
 172 236 l 1,4,-1
 135 389 l 1,5,-1
 162 408 l 1,6,-1
 289 254 l 1,0,-1
EndSplineSet
EndChar

StartChar: f_i
Encoding: 227 64257 111
Width: 714
GlyphClass: 3
Flags: W
TeX: 727 0
HStem: -180 34<-118.5 -15.2142> -12 77<435.75 537.552> 465 25<112 193 348 505> 707 20G<466.75 544.25>
VStem: -200 119<-145.385 -60.4911> 370 138<40 142.273> 561 103<635.137 692.417>
LayerCount: 2
Fore
SplineSet
193 465 m 1,0,-1
 105 465 l 1,1,-1
 112 490 l 1,2,-1
 207 490 l 1,3,4
 219 526 219 526 241.5 564.5 c 128,-1,5
 264 603 264 603 297.5 641 c 128,-1,6
 331 679 331 679 379.5 703 c 128,-1,7
 428 727 428 727 505.5 727 c 128,-1,8
 583 727 583 727 623.5 705 c 128,-1,9
 664 683 664 683 664 648 c 0,10,11
 664 619 664 619 646 601.5 c 128,-1,12
 628 584 628 584 596 584 c 0,13,14
 571 584 571 584 554 595.5 c 128,-1,15
 537 607 537 607 537 624 c 0,16,17
 537 637 537 637 549 651.5 c 128,-1,18
 561 666 561 666 561 676.5 c 128,-1,19
 561 687 561 687 551 695 c 1,20,21
 402 727 402 727 348 490 c 5,22,-1
 457 490 l 1,23,-1
 511 490 l 2,24,25
 583 490 583 490 654 496 c 1,26,-1
 521 124 l 2,27,28
 508 88 508 88 508 84 c 0,29,30
 508 65 508 65 534 65 c 0,31,32
 576 65 576 65 679 178 c 1,33,-1
 699 165 l 1,34,35
 680 139 680 139 651.5 108.5 c 128,-1,36
 623 78 623 78 595.5 51 c 128,-1,37
 568 24 568 24 530 6 c 128,-1,38
 492 -12 492 -12 454.5 -12 c 128,-1,39
 417 -12 417 -12 393.5 7 c 128,-1,40
 370 26 370 26 370 54 c 0,41,42
 370 84.439453125 370 84.439453125 389 138 c 2,43,-1
 505 465 l 1,44,-1
 447 465 l 1,45,-1
 346 465 l 1,46,47
 333 403 333 403 308.5 328 c 128,-1,48
 284 253 284 253 243.5 160 c 128,-1,49
 203 67 203 67 155 -7 c 128,-1,50
 107 -81 107 -81 41 -130.5 c 128,-1,51
 -25 -180 -25 -180 -94 -180 c 0,52,53
 -143 -180 -143 -180 -171.5 -155.5 c 128,-1,54
 -200 -131 -200 -131 -200 -96 c 0,55,56
 -200 -34 -200 -34 -128 -34 c 0,57,58
 -102 -34 -102 -34 -85 -45.5 c 128,-1,59
 -68 -57 -68 -57 -68 -74 c 0,60,61
 -68 -82 -68 -82 -74.5 -99.5 c 128,-1,62
 -81 -117 -81 -117 -81 -124 c 0,63,64
 -81 -146 -81 -146 -53 -146 c 0,65,66
 12 -146 12 -146 48 -61 c 0,67,68
 82 20 82 20 141 277 c 2,69,-1
 193 465 l 1,0,-1
EndSplineSet
LCarets2: 1 0
Ligature2: "'liga' Ligatures standard dans Latin lookup 0" f i
EndChar

StartChar: f_l
Encoding: 228 64258 112
Width: 752
GlyphClass: 3
Flags: W
TeX: 727 0
HStem: -180 34<-119.5 -15.3868> -12 77<474 606.5> 465 25<101 189 348 442> 684 43<444.292 599.81> 700 20G<682.308 744.651>
VStem: -200 119<-145.385 -60.4911> 414 138<41.5 149.422>
LayerCount: 2
Fore
SplineSet
448 490 m 5,0,-1
 442 465 l 5,1,-1
 342 465 l 5,2,3
 330 403 330 403 306 328 c 132,-1,4
 282 253 282 253 241.5 160 c 132,-1,5
 201 67 201 67 153.5 -7 c 132,-1,6
 106 -81 106 -81 40.5 -130.5 c 132,-1,7
 -25 -180 -25 -180 -95 -180 c 4,8,9
 -144 -180 -144 -180 -172 -155.5 c 132,-1,10
 -200 -131 -200 -131 -200 -96 c 4,11,12
 -200 -34 -200 -34 -128 -34 c 4,13,14
 -102 -34 -102 -34 -85 -45.5 c 132,-1,15
 -68 -57 -68 -57 -68 -74 c 4,16,17
 -68 -82 -68 -82 -74.5 -99.5 c 132,-1,18
 -81 -117 -81 -117 -81 -124 c 4,19,20
 -81 -146 -81 -146 -53 -146 c 4,21,22
 12 -146 12 -146 48 -61 c 4,23,24
 82 20 82 20 141 277 c 6,25,-1
 189 465 l 5,26,-1
 94 465 l 5,27,-1
 101 490 l 5,28,-1
 196 490 l 5,29,30
 207 526 207 526 228.5 564.5 c 132,-1,31
 250 603 250 603 281.5 641 c 132,-1,32
 313 679 313 679 358.5 703 c 132,-1,33
 404 727 404 727 477 727 c 132,-1,34
 550 727 550 727 636 703 c 4,35,36
 651 699 651 699 662 694 c 5,37,-1
 750 720 l 5,38,-1
 727 634 l 6,39,40
 725 619 725 619 719 609 c 6,41,-1
 564 124 l 6,42,43
 552 94 552 94 552 84 c 4,44,45
 552 65 552 65 574 65 c 4,46,47
 611 65 611 65 683 186 c 5,48,-1
 704 176 l 5,49,50
 602 -12 602 -12 491 -12 c 4,51,52
 457 -12 457 -12 435.5 7.5 c 132,-1,53
 414 27 414 27 414 56 c 4,54,55
 414 79 414 79 433 144 c 6,56,-1
 600 663 l 5,57,58
 594 672 594 672 579 678 c 4,59,60
 565 683 565 683 526 684 c 4,61,62
 523 684 523 684 521 684 c 4,63,64
 387 684 387 684 348 490 c 5,65,-1
 448 490 l 5,0,-1
615 682 m 5,66,-1
 616 686 l 5,67,-1
 613 681 l 5,68,-1
 615 682 l 5,66,-1
EndSplineSet
LCarets2: 1 0
Ligature2: "'liga' Ligatures standard dans Latin lookup 0" f l
EndChar

StartChar: endash
Encoding: 209 8211 113
Width: 500
Flags: W
TeX: 263 -209
HStem: 191 90<0 500>
LayerCount: 2
Fore
SplineSet
0 191 m 1,0,-1
 0 281 l 1,1,-1
 500 281 l 1,2,-1
 500 191 l 1,3,-1
 0 191 l 1,0,-1
EndSplineSet
EndChar

StartChar: dagger
Encoding: 217 8224 114
Width: 515
Flags: W
TeX: 727 144
HStem: 364 138<195.288 269.512 494.665 570.473> 412 42<306.014 353 410 455.84> 707 20G<450.5 481.5>
VStem: 365 151<603.59 681.738>
LayerCount: 2
Fore
SplineSet
162 -60 m 0,0,1
 174 -17 174 -17 252 156 c 128,-1,2
 330 329 330 329 353 412 c 1,3,4
 332 412 332 412 275 388 c 128,-1,5
 218 364 218 364 200 364 c 0,6,7
 174 364 174 364 166.5 384.5 c 128,-1,8
 159 405 159 405 167 433 c 0,9,10
 175 460 175 460 195.5 481 c 128,-1,11
 216 502 216 502 241 502 c 0,12,13
 261 502 261 502 300 478 c 128,-1,14
 339 454 339 454 365 454 c 1,15,16
 374 487 374 487 368.5 554 c 128,-1,17
 363 621 363 621 371 649 c 0,18,19
 381 683 381 683 408 705 c 128,-1,20
 435 727 435 727 466 727 c 128,-1,21
 497 727 497 727 511.5 705 c 128,-1,22
 526 683 526 683 516 649 c 0,23,24
 508 621 508 621 464 554 c 128,-1,25
 420 487 420 487 410 454 c 1,26,27
 436 454 436 454 489.5 478 c 128,-1,28
 543 502 543 502 562 502 c 0,29,30
 586 502 586 502 595 481 c 128,-1,31
 604 460 604 460 597 433 c 0,32,33
 589 405 589 405 569.5 384.5 c 128,-1,34
 550 364 550 364 524 364 c 0,35,36
 506 364 506 364 462.5 388 c 128,-1,37
 419 412 419 412 398 412 c 1,38,39
 374 329 374 329 352.5 156 c 128,-1,40
 331 -17 331 -17 319 -60 c 0,41,42
 308 -99 308 -99 280 -123 c 128,-1,43
 252 -147 252 -147 215.5 -147 c 128,-1,44
 179 -147 179 -147 165 -123 c 128,-1,45
 151 -99 151 -99 162 -60 c 0,0,1
EndSplineSet
EndChar

StartChar: daggerdbl
Encoding: 218 8225 115
Width: 515
Flags: W
TeX: 727 144
HStem: 75 138<113.109 188.099 409.898 487.473> 123 42<224.014 271 327 373.233> 375 138<199.109 273.67 495.898 573.473> 423 42<310.767 357 413 459.233> 707 20G<450.5 481.5>
VStem: 164 145<-113.138 -28.5819>
LayerCount: 2
Fore
SplineSet
466 727 m 128,-1,1
 497 727 497 727 510.5 706.5 c 128,-1,2
 524 686 524 686 514 652 c 0,3,4
 506 624 506 624 465 562.5 c 128,-1,5
 424 501 424 501 413 465 c 1,6,7
 438 465 438 465 491 489 c 128,-1,8
 544 513 544 513 565 513 c 0,9,10
 589 513 589 513 598 492 c 128,-1,11
 607 471 607 471 600 444 c 0,12,13
 592 416 592 416 572.5 395.5 c 128,-1,14
 553 375 553 375 526 375 c 0,15,16
 505 375 505 375 465.5 399 c 128,-1,17
 426 423 426 423 401 423 c 1,18,19
 393 394 393 394 390 354 c 128,-1,20
 387 314 387 314 380 290 c 0,21,22
 373 265 373 265 353.5 227 c 128,-1,23
 334 189 334 189 327 165 c 1,24,25
 352 165 352 165 405 189 c 128,-1,26
 458 213 458 213 479 213 c 0,27,28
 503 213 503 213 512 192 c 128,-1,29
 521 171 521 171 514 144 c 0,30,31
 506 116 506 116 486.5 95.5 c 128,-1,32
 467 75 467 75 440 75 c 0,33,34
 419 75 419 75 379.5 99 c 128,-1,35
 340 123 340 123 315 123 c 1,36,37
 303 82 303 82 310 18.5 c 128,-1,38
 317 -45 317 -45 309 -72 c 0,39,40
 299 -106 299 -106 273.5 -126.5 c 128,-1,41
 248 -147 248 -147 215.5 -147 c 128,-1,42
 183 -147 183 -147 169 -126.5 c 128,-1,43
 155 -106 155 -106 164 -72 c 0,44,45
 172 -45 172 -45 215.5 18.5 c 128,-1,46
 259 82 259 82 271 123 c 1,47,48
 246 123 246 123 193 99 c 128,-1,49
 140 75 140 75 118 75 c 0,50,51
 91 75 91 75 83.5 95.5 c 128,-1,52
 76 116 76 116 84 144 c 0,53,54
 92 171 92 171 113.5 192 c 128,-1,55
 135 213 135 213 159 213 c 0,56,57
 179 213 179 213 218 189 c 128,-1,58
 257 165 257 165 283 165 c 1,59,60
 290 189 290 189 292.5 227 c 128,-1,61
 295 265 295 265 302 290 c 0,62,63
 309 314 309 314 328.5 354 c 128,-1,64
 348 394 348 394 357 423 c 1,65,66
 332 423 332 423 279 399 c 128,-1,67
 226 375 226 375 204 375 c 0,68,69
 177 375 177 375 169.5 395.5 c 128,-1,70
 162 416 162 416 170 444 c 0,71,72
 178 471 178 471 199.5 492 c 128,-1,73
 221 513 221 513 245 513 c 0,74,75
 265 513 265 513 304.5 489 c 128,-1,76
 344 465 344 465 369 465 c 1,77,78
 379 501 379 501 373 562.5 c 128,-1,79
 367 624 367 624 375 652 c 0,80,81
 385 686 385 686 410 706.5 c 128,-1,0
 435 727 435 727 466 727 c 128,-1,1
EndSplineSet
EndChar

StartChar: periodcentered
Encoding: 117 183 116
Width: 278
Flags: W
TeX: 368 -248
HStem: 197 168<82.6035 195.396>
VStem: 55 168<224.604 337.396>
LayerCount: 2
Fore
SplineSet
55 281 m 128,-1,1
 55 316 55 316 79.5 340.5 c 128,-1,2
 104 365 104 365 139 365 c 128,-1,3
 174 365 174 365 198.5 340.5 c 128,-1,4
 223 316 223 316 223 281 c 128,-1,5
 223 246 223 246 198.5 221.5 c 128,-1,6
 174 197 174 197 139 197 c 128,-1,7
 104 197 104 197 79.5 221.5 c 128,-1,0
 55 246 55 246 55 281 c 128,-1,1
EndSplineSet
EndChar

StartChar: paragraph
Encoding: 116 182 117
Width: 550
Flags: W
TeX: 712 184
HStem: -185 14<136 177.718> 698 14<492.88 557 656 719>
VStem: 54.5 86.5<-153.998 -107.366>
LayerCount: 2
Fore
SplineSet
496 712 m 2,0,-1
 723 712 l 1,1,-1
 719 698 l 1,2,-1
 656 698 l 1,3,-1
 498 147 l 2,4,5
 442 -48 442 -48 324 -125 c 0,6,7
 230 -185 230 -185 132 -185 c 0,8,9
 100 -185 100 -185 81.5 -175.5 c 128,-1,10
 63 -166 63 -166 58.5 -151 c 128,-1,11
 54 -136 54 -136 54.5 -125 c 128,-1,12
 55 -114 55 -114 58 -104 c 0,13,14
 66 -76 66 -76 87 -62 c 128,-1,15
 108 -48 108 -48 134 -48 c 0,16,17
 183 -48 183 -48 172 -85 c 0,18,19
 168 -100 168 -100 152 -126 c 0,20,21
 141 -144 141 -144 141 -146 c 0,22,23
 139 -154 139 -154 147 -154 c 0,24,25
 153 -154 153 -154 163 -150 c 128,-1,26
 173 -146 173 -146 194.5 -128 c 128,-1,27
 216 -110 216 -110 235 -81 c 0,28,29
 270 -27 270 -27 320 147 c 2,30,-1
 360 289 l 1,31,32
 275 291 275 291 229 313 c 0,33,34
 186 334 186 334 167.5 386 c 128,-1,35
 149 438 149 438 168 503 c 0,36,37
 185 562 185 562 225.5 609.5 c 128,-1,38
 266 657 266 657 315 678 c 0,39,40
 396 712 396 712 496 712 c 2,0,-1
399 147 m 2,41,-1
 557 698 l 1,42,-1
 492 698 l 1,43,-1
 334 147 l 2,44,45
 310 64 310 64 293.5 17 c 128,-1,46
 277 -30 277 -30 254 -74 c 128,-1,47
 231 -118 231 -118 203 -140 c 128,-1,48
 175 -162 175 -162 136 -171 c 1,49,50
 201 -168 201 -168 255 -126 c 0,51,52
 279 -107 279 -107 297.5 -85.5 c 128,-1,53
 316 -64 316 -64 344.5 -4 c 128,-1,54
 373 56 373 56 399 147 c 2,41,-1
EndSplineSet
EndChar

StartChar: bullet
Encoding: 219 8226 118
Width: 500
Flags: W
TeX: 536 -179
HStem: 179 358<164.011 336.194>
VStem: 71 358<272.011 443.989>
LayerCount: 2
Fore
SplineSet
71 358 m 128,-1,1
 71 432 71 432 123.5 484.5 c 128,-1,2
 176 537 176 537 250 537 c 128,-1,3
 324 537 324 537 377 484.5 c 128,-1,4
 430 432 430 432 429 358 c 0,5,6
 430 284 430 284 377 231.5 c 128,-1,7
 324 179 324 179 250 179 c 128,-1,8
 176 179 176 179 123.5 231.5 c 128,-1,0
 71 284 71 284 71 358 c 128,-1,1
EndSplineSet
EndChar

StartChar: quotesinglbase
Encoding: 213 8218 119
Width: 205
Flags: W
TeX: 132 192
HStem: -6 156<78.4448 137.188>
VStem: 38 160<15.6592 110.436>
LayerCount: 2
Fore
SplineSet
2 -181 m 1,0,-1
 -2 -153 l 1,1,2
 48 -132 48 -132 87.5 -89 c 128,-1,3
 127 -46 127 -46 138 4 c 1,4,5
 112 -6 112 -6 88 -6 c 0,6,7
 59 -6 59 -6 44 15 c 128,-1,8
 29 36 29 36 38 69 c 0,9,10
 48 105 48 105 77 127.5 c 128,-1,11
 106 150 106 150 139 150 c 0,12,13
 186 150 186 150 198 115 c 128,-1,14
 210 80 210 80 195 28 c 0,15,16
 175 -42 175 -42 123.5 -96 c 128,-1,17
 72 -150 72 -150 2 -181 c 1,0,-1
EndSplineSet
EndChar

StartChar: quotedblbase
Encoding: 216 8222 120
Width: 446
Flags: W
TeX: 132 192
HStem: -6 156<90.4301 149.188 306.6 366.188>
LayerCount: 2
Fore
SplineSet
13 -181 m 1,0,-1
 9 -153 l 1,1,2
 59 -132 59 -132 99 -89 c 128,-1,3
 139 -46 139 -46 150 4 c 1,4,5
 124 -6 124 -6 100 -6 c 0,6,7
 71 -6 71 -6 55.5 15 c 128,-1,8
 40 36 40 36 50 69 c 0,9,10
 60 105 60 105 89 127.5 c 128,-1,11
 118 150 118 150 151 150 c 0,12,13
 198 150 198 150 210 115 c 128,-1,14
 222 80 222 80 207 28 c 0,15,16
 187 -42 187 -42 135 -96 c 128,-1,17
 83 -150 83 -150 13 -181 c 1,0,-1
230 -181 m 1,18,-1
 226 -153 l 1,19,20
 276 -132 276 -132 315.5 -89 c 128,-1,21
 355 -46 355 -46 367 4 c 1,22,23
 341 -6 341 -6 317 -6 c 0,24,25
 288 -6 288 -6 272.5 15 c 128,-1,26
 257 36 257 36 267 69 c 0,27,28
 277 105 277 105 305.5 127.5 c 128,-1,29
 334 150 334 150 368 150 c 0,30,31
 415 150 415 150 427 115 c 128,-1,32
 439 80 439 80 424 28 c 0,33,34
 404 -42 404 -42 352 -96 c 128,-1,35
 300 -150 300 -150 230 -181 c 1,18,-1
EndSplineSet
EndChar

StartChar: quotedblright
Encoding: 215 8221 121
Width: 446
Flags: W
TeX: 727 -403
HStem: 571 156<255.445 315.188 472.43 531.188>
VStem: 215 161<592.659 687.436>
LayerCount: 2
Fore
SplineSet
179 396 m 1,0,-1
 175 424 l 1,1,2
 225 445 225 445 264.5 488 c 128,-1,3
 304 531 304 531 316 581 c 1,4,5
 290 571 290 571 265 571 c 0,6,7
 236 571 236 571 221 592 c 128,-1,8
 206 613 206 613 215 646 c 0,9,10
 225 682 225 682 254 704.5 c 128,-1,11
 283 727 283 727 317 727 c 0,12,13
 364 727 364 727 376 692 c 128,-1,14
 388 657 388 657 373 605 c 0,15,16
 353 535 353 535 301 481 c 128,-1,17
 249 427 249 427 179 396 c 1,0,-1
396 396 m 1,18,-1
 392 424 l 1,19,20
 442 445 442 445 481.5 488 c 128,-1,21
 521 531 521 531 532 581 c 1,22,23
 506 571 506 571 482 571 c 0,24,25
 453 571 453 571 437.5 592 c 128,-1,26
 422 613 422 613 432 646 c 0,27,28
 442 682 442 682 471 704.5 c 128,-1,29
 500 727 500 727 533 727 c 0,30,31
 580 727 580 727 592 692 c 128,-1,32
 604 657 604 657 589 605 c 0,33,34
 569 535 569 535 517.5 481 c 128,-1,35
 466 427 466 427 396 396 c 1,18,-1
EndSplineSet
EndChar

StartChar: guillemotright
Encoding: 121 187 122
Width: 395
Flags: W
TeX: 408 -64
LayerCount: 2
Fore
SplineSet
449 254 m 1,0,-1
 439 218 l 1,1,-1
 223 64 l 1,2,-1
 208 83 l 1,3,-1
 332 236 l 1,4,-1
 295 389 l 1,5,-1
 322 408 l 1,6,-1
 449 254 l 1,0,-1
284 254 m 1,7,-1
 274 218 l 1,8,-1
 59 64 l 1,9,-1
 43 83 l 1,10,-1
 168 236 l 1,11,-1
 131 389 l 1,12,-1
 157 408 l 1,13,-1
 284 254 l 1,7,-1
EndSplineSet
EndChar

StartChar: ellipsis
Encoding: 220 8230 123
Width: 1000
Flags: W
TeX: 132 6
HStem: -12 162<111.726 222.274 444.726 555.274 777.726 888.274>
VStem: 86 162<13.7262 124.274> 419 162<13.7262 124.274> 752 162<13.7262 124.274>
CounterMasks: 1 70
LayerCount: 2
Fore
SplineSet
86 69 m 128,-1,1
 86 103 86 103 109.5 126.5 c 128,-1,2
 133 150 133 150 167 150 c 128,-1,3
 201 150 201 150 224.5 126.5 c 128,-1,4
 248 103 248 103 248 69 c 128,-1,5
 248 35 248 35 224.5 11.5 c 128,-1,6
 201 -12 201 -12 167 -12 c 128,-1,7
 133 -12 133 -12 109.5 11.5 c 128,-1,0
 86 35 86 35 86 69 c 128,-1,1
419 69 m 128,-1,9
 419 103 419 103 442.5 126.5 c 128,-1,10
 466 150 466 150 500 150 c 128,-1,11
 534 150 534 150 557.5 126.5 c 128,-1,12
 581 103 581 103 581 69 c 128,-1,13
 581 35 581 35 557.5 11.5 c 128,-1,14
 534 -12 534 -12 500 -12 c 128,-1,15
 466 -12 466 -12 442.5 11.5 c 128,-1,8
 419 35 419 35 419 69 c 128,-1,9
752 69 m 128,-1,17
 752 103 752 103 775.5 126.5 c 128,-1,18
 799 150 799 150 833 150 c 128,-1,19
 867 150 867 150 890.5 126.5 c 128,-1,20
 914 103 914 103 914 69 c 128,-1,21
 914 35 914 35 890.5 11.5 c 128,-1,22
 867 -12 867 -12 833 -12 c 128,-1,23
 799 -12 799 -12 775.5 11.5 c 128,-1,16
 752 35 752 35 752 69 c 128,-1,17
EndSplineSet
EndChar

StartChar: perthousand
Encoding: 221 8240 124
Width: 963
Flags: W
TeX: 715 21
HStem: -12 30<388.882 451.606 712.877 775.606> 290 30<457.703 520.123 781.394 844.123> 374 30<198.877 261.297> 676 30<267.394 329.875> 702 20G<630.28 700>
LayerCount: 2
Fore
SplineSet
121 540 m 128,-1,1
 142 613 142 613 193.5 659.5 c 128,-1,2
 245 706 245 706 312 706 c 128,-1,3
 379 706 379 706 403.5 659.5 c 128,-1,4
 428 613 428 613 407 540 c 128,-1,5
 386 467 386 467 335 420.5 c 128,-1,6
 284 374 284 374 217 374 c 128,-1,7
 150 374 150 374 125 420.5 c 128,-1,0
 100 467 100 467 121 540 c 128,-1,1
210 540 m 128,-1,9
 202 513 202 513 199 496 c 128,-1,10
 196 479 196 479 193 454.5 c 128,-1,11
 190 430 190 430 198.5 417 c 128,-1,12
 207 404 207 404 225.5 404 c 128,-1,13
 244 404 244 404 259.5 417 c 128,-1,14
 275 430 275 430 286.5 454.5 c 128,-1,15
 298 479 298 479 304 496 c 128,-1,16
 310 513 310 513 318 540 c 128,-1,17
 326 567 326 567 329.5 584 c 128,-1,18
 333 601 333 601 335.5 625.5 c 128,-1,19
 338 650 338 650 330 663 c 128,-1,20
 322 676 322 676 303.5 676 c 128,-1,21
 285 676 285 676 269 663 c 128,-1,22
 253 650 253 650 242 625.5 c 128,-1,23
 231 601 231 601 224.5 584 c 128,-1,8
 218 567 218 567 210 540 c 128,-1,9
401 154 m 128,-1,25
 393 127 393 127 389.5 110 c 128,-1,26
 386 93 386 93 383 68.5 c 128,-1,27
 380 44 380 44 388.5 31 c 128,-1,28
 397 18 397 18 415.5 18 c 128,-1,29
 434 18 434 18 450 31 c 128,-1,30
 466 44 466 44 477 68.5 c 128,-1,31
 488 93 488 93 494.5 110 c 128,-1,32
 501 127 501 127 508.5 154 c 128,-1,33
 516 181 516 181 519.5 198 c 128,-1,34
 523 215 523 215 526 239.5 c 128,-1,35
 529 264 529 264 520.5 277 c 128,-1,36
 512 290 512 290 493.5 290 c 128,-1,37
 475 290 475 290 459.5 277 c 128,-1,38
 444 264 444 264 432.5 239.5 c 128,-1,39
 421 215 421 215 415 198 c 128,-1,24
 409 181 409 181 401 154 c 128,-1,25
312 154 m 128,-1,41
 333 227 333 227 384 273.5 c 128,-1,42
 435 320 435 320 502 320 c 128,-1,43
 569 320 569 320 594 273.5 c 128,-1,44
 619 227 619 227 598 154 c 128,-1,45
 577 81 577 81 525.5 34.5 c 128,-1,46
 474 -12 474 -12 407 -12 c 128,-1,47
 340 -12 340 -12 315.5 34.5 c 128,-1,40
 291 81 291 81 312 154 c 128,-1,41
724.5 154 m 128,-1,49
 717 127 717 127 713.5 110 c 128,-1,50
 710 93 710 93 707 68.5 c 128,-1,51
 704 44 704 44 712.5 31 c 128,-1,52
 721 18 721 18 739.5 18 c 128,-1,53
 758 18 758 18 774 31 c 128,-1,54
 790 44 790 44 801 68.5 c 128,-1,55
 812 93 812 93 818.5 110 c 128,-1,56
 825 127 825 127 832.5 154 c 128,-1,57
 840 181 840 181 843.5 198 c 128,-1,58
 847 215 847 215 850 239.5 c 128,-1,59
 853 264 853 264 844.5 277 c 128,-1,60
 836 290 836 290 817.5 290 c 128,-1,61
 799 290 799 290 783 277 c 128,-1,62
 767 264 767 264 756 239.5 c 128,-1,63
 745 215 745 215 738.5 198 c 128,-1,48
 732 181 732 181 724.5 154 c 128,-1,49
635 154 m 128,-1,65
 656 227 656 227 707.5 273.5 c 128,-1,66
 759 320 759 320 826 320 c 128,-1,67
 893 320 893 320 918 273.5 c 128,-1,68
 943 227 943 227 922 154 c 128,-1,69
 901 81 901 81 849.5 34.5 c 128,-1,70
 798 -12 798 -12 731 -12 c 128,-1,71
 664 -12 664 -12 639 34.5 c 128,-1,64
 614 81 614 81 635 154 c 128,-1,65
20 -28 m 1,72,-1
 647 722 l 1,73,-1
 700 722 l 1,74,-1
 72 -28 l 1,75,-1
 20 -28 l 1,72,-1
EndSplineSet
EndChar

StartChar: questiondown
Encoding: 125 191 125
Width: 445
Flags: W
TeX: 508 220
HStem: -220 30<134.965 218.132> 357 162<330.724 399.276>
VStem: 289.5 151<397.052 478.948>
LayerCount: 2
Fore
SplineSet
346 299 m 1,0,-1
 336 265 l 2,1,2
 327 235 327 235 315 213.5 c 128,-1,3
 303 192 303 192 289.5 179 c 128,-1,4
 276 166 276 166 261 155 c 128,-1,5
 246 144 246 144 230.5 130.5 c 128,-1,6
 215 117 215 117 200 99 c 128,-1,7
 185 81 185 81 170 49.5 c 128,-1,8
 155 18 155 18 143 -24 c 0,9,10
 132 -61 132 -61 128 -81.5 c 128,-1,11
 124 -102 124 -102 122.5 -131.5 c 128,-1,12
 121 -161 121 -161 134.5 -175.5 c 128,-1,13
 148 -190 148 -190 176 -190 c 0,14,15
 196 -190 196 -190 212.5 -179.5 c 128,-1,16
 229 -169 229 -169 235 -150 c 0,17,18
 237 -142 237 -142 239 -119 c 128,-1,19
 241 -96 241 -96 244 -84 c 0,20,21
 252 -56 252 -56 271 -40 c 128,-1,22
 290 -24 290 -24 317 -24 c 0,23,24
 343 -24 343 -24 352.5 -44 c 128,-1,25
 362 -64 362 -64 353 -95 c 0,26,27
 336 -153 336 -153 275.5 -186.5 c 128,-1,28
 215 -220 215 -220 159 -220 c 0,29,30
 -41 -220 -41 -220 16 -19 c 0,31,32
 30 31 30 31 56 67 c 128,-1,33
 82 103 82 103 109.5 121 c 128,-1,34
 137 139 137 139 168.5 154 c 128,-1,35
 200 169 200 169 225 179.5 c 128,-1,36
 250 190 250 190 271 209.5 c 128,-1,37
 292 229 292 229 300 256 c 2,38,-1
 312 299 l 1,39,-1
 346 299 l 1,0,-1
440.5 438 m 128,-1,41
 431 404 431 404 402 380.5 c 128,-1,42
 373 357 373 357 341.5 357 c 128,-1,43
 310 357 310 357 295 380.5 c 128,-1,44
 280 404 280 404 289.5 438 c 128,-1,45
 299 472 299 472 328 495.5 c 128,-1,46
 357 519 357 519 388.5 519 c 128,-1,47
 420 519 420 519 435 495.5 c 128,-1,40
 450 472 450 472 440.5 438 c 128,-1,41
EndSplineSet
EndChar

StartChar: grave
Encoding: 64 96 126
Width: 278
Flags: W
TeX: 738 -563
HStem: 555 182
VStem: -53 238
LayerCount: 2
Fore
SplineSet
185 555 m 1,0,-1
 129 555 l 1,1,-1
 -24 647 l 2,2,3
 -53 665 -53 665 -53 693 c 0,4,5
 -53 711 -53 711 -40.5 724 c 128,-1,6
 -28 737 -28 737 -5 737 c 0,7,8
 14 737 14 737 28 726.5 c 128,-1,9
 42 716 42 716 68 687 c 2,10,-1
 185 555 l 1,0,-1
EndSplineSet
EndChar

StartChar: acute
Encoding: 114 180 127
Width: 278
Flags: W
TeX: 738 -563
HStem: 555 182
VStem: 93 238
LayerCount: 2
Fore
SplineSet
149 555 m 1,0,-1
 93 555 l 1,1,-1
 210 687 l 2,2,3
 236 716 236 716 250 726.5 c 128,-1,4
 264 737 264 737 283 737 c 0,5,6
 306 737 306 737 318.5 724 c 128,-1,7
 331 711 331 711 331 693 c 0,8,9
 331 665 331 665 302 647 c 2,10,-1
 149 555 l 1,0,-1
EndSplineSet
EndChar

StartChar: circumflex
Encoding: 201 710 128
Width: 259
Flags: W
TeX: 733 -563
HStem: 555 176
VStem: 133 312
LayerCount: 2
Fore
SplineSet
133 555 m 1,0,-1
 297 731 l 1,1,-1
 382 731 l 1,2,-1
 445 555 l 1,3,-1
 393 555 l 1,4,-1
 317 653 l 1,5,-1
 185 555 l 1,6,-1
 133 555 l 1,0,-1
EndSplineSet
EndChar

StartChar: tilde
Encoding: 207 732 129
Width: 278
Flags: W
TeX: 700 -586
HStem: 580 78<163.675 269.184> 628 78<8.52948 113.325>
VStem: -44 43<581 618.998> 279 43<667.002 705>
LayerCount: 2
Fore
SplineSet
-1 581 m 1,0,-1
 -44 581 l 1,1,2
 -30 638 -30 638 -4.5 672 c 128,-1,3
 21 706 21 706 71 706 c 0,4,5
 101 706 101 706 158.5 682 c 128,-1,6
 216 658 216 658 233 658 c 0,7,8
 268 658 268 658 279 705 c 1,9,-1
 322 705 l 1,10,11
 307 648 307 648 281.5 614 c 128,-1,12
 256 580 256 580 206 580 c 0,13,14
 176 580 176 580 118.5 604 c 128,-1,15
 61 628 61 628 44 628 c 0,16,17
 26 628 26 628 14 614 c 128,-1,18
 2 600 2 600 -1 581 c 1,0,-1
EndSplineSet
EndChar

StartChar: macron
Encoding: 109 175 130
Width: 278
Flags: W
TeX: 664 -604
HStem: 593 72<-8 286>
VStem: -8 294<593 665>
LayerCount: 2
Fore
SplineSet
-8 593 m 1,0,-1
 -8 665 l 1,1,-1
 286 665 l 1,2,-1
 286 593 l 1,3,-1
 -8 593 l 1,0,-1
EndSplineSet
EndChar

StartChar: breve
Encoding: 203 728 131
Width: 259
Flags: W
TeX: 721 -564
HStem: 557 78<251.01 372.89> 701 20G<187 236 417 477>
VStem: 196 40<651.765 721>
LayerCount: 2
Fore
SplineSet
437 721 m 1,0,-1
 477 721 l 1,1,2
 452 646 452 646 404 601.5 c 128,-1,3
 356 557 356 557 289 557 c 128,-1,4
 222 557 222 557 200 601.5 c 128,-1,5
 178 646 178 646 196 721 c 1,6,-1
 236 721 l 1,7,8
 227 635 227 635 312 635 c 128,-1,9
 397 635 397 635 437 721 c 1,0,-1
EndSplineSet
EndChar

StartChar: dotaccent
Encoding: 204 729 132
Width: 278
Flags: W
TeX: 683 -575
HStem: 563 132<93.1112 184.889>
VStem: 73 132<583.111 674.889>
LayerCount: 2
Fore
SplineSet
73 629 m 128,-1,1
 73 656 73 656 92.5 675.5 c 128,-1,2
 112 695 112 695 139 695 c 128,-1,3
 166 695 166 695 185.5 675.5 c 128,-1,4
 205 656 205 656 205 629 c 128,-1,5
 205 602 205 602 185.5 582.5 c 128,-1,6
 166 563 166 563 139 563 c 128,-1,7
 112 563 112 563 92.5 582.5 c 128,-1,0
 73 602 73 602 73 629 c 128,-1,1
EndSplineSet
EndChar

StartChar: dieresis
Encoding: 102 168 133
Width: 278
Flags: W
TeX: 683 -575
HStem: 562 132<-11.8888 79.8888 198.111 289.889>
VStem: -32 132<582.111 673.889> 178 132<582.111 673.889>
LayerCount: 2
Fore
SplineSet
-32 628 m 128,-1,1
 -32 655 -32 655 -12.5 674.5 c 128,-1,2
 7 694 7 694 34 694 c 128,-1,3
 61 694 61 694 80.5 674.5 c 128,-1,4
 100 655 100 655 100 628 c 128,-1,5
 100 601 100 601 80.5 581.5 c 128,-1,6
 61 562 61 562 34 562 c 128,-1,7
 7 562 7 562 -12.5 581.5 c 128,-1,0
 -32 601 -32 601 -32 628 c 128,-1,1
178 628 m 128,-1,9
 178 655 178 655 197.5 674.5 c 128,-1,10
 217 694 217 694 244 694 c 128,-1,11
 271 694 271 694 290.5 674.5 c 128,-1,12
 310 655 310 655 310 628 c 128,-1,13
 310 601 310 601 290.5 581.5 c 128,-1,14
 271 562 271 562 244 562 c 128,-1,15
 217 562 217 562 197.5 581.5 c 128,-1,8
 178 601 178 601 178 628 c 128,-1,9
EndSplineSet
EndChar

StartChar: ring
Encoding: 205 730 134
Width: 278
Flags: W
TeX: 746 -546
HStem: 538 48<96.0731 181.927> 702 48<96.0731 181.927>
VStem: 33 48<601.073 686.927> 197 48<601.073 686.927>
LayerCount: 2
Fore
SplineSet
33 644 m 128,-1,1
 33 688 33 688 64 719 c 128,-1,2
 95 750 95 750 139 750 c 128,-1,3
 183 750 183 750 214 719 c 128,-1,4
 245 688 245 688 245 644 c 128,-1,5
 245 600 245 600 214 569 c 128,-1,6
 183 538 183 538 139 538 c 128,-1,7
 95 538 95 538 64 569 c 128,-1,0
 33 600 33 600 33 644 c 128,-1,1
197 644 m 128,-1,9
 197 668 197 668 180 685 c 128,-1,10
 163 702 163 702 139 702 c 128,-1,11
 115 702 115 702 98 685 c 128,-1,12
 81 668 81 668 81 644 c 128,-1,13
 81 620 81 620 98 603 c 128,-1,14
 115 586 115 586 139 586 c 128,-1,15
 163 586 163 586 180 603 c 128,-1,8
 197 620 197 620 197 644 c 128,-1,9
EndSplineSet
EndChar

StartChar: cedilla
Encoding: 118 184 135
Width: 278
Flags: W
TeX: 0 220
HStem: -220 42<50.2643 169.358> -20 20G<123.224 174>
VStem: 174 96<-172.148 -109.392>
LayerCount: 2
Fore
SplineSet
41 -202 m 1,0,-1
 57 -165 l 1,1,2
 91 -178 91 -178 121 -178 c 0,3,4
 174 -178 174 -178 174 -138 c 0,5,6
 174 -121 174 -121 160.5 -111.5 c 128,-1,7
 147 -102 147 -102 130 -102 c 128,-1,8
 113 -102 113 -102 100 -106 c 1,9,-1
 89 -98 l 1,10,-1
 132 0 l 1,11,-1
 174 0 l 1,12,-1
 146 -65 l 1,13,14
 163 -60 163 -60 184 -60 c 0,15,16
 221 -60 221 -60 245.5 -76.5 c 128,-1,17
 270 -93 270 -93 270 -130 c 0,18,19
 270 -220 270 -220 128 -220 c 0,20,21
 88 -220 88 -220 41 -202 c 1,0,-1
EndSplineSet
EndChar

StartChar: hungarumlaut
Encoding: 208 733 136
Width: 278
Flags: W
TeX: 738 -563
HStem: 555 182<197 202>
LayerCount: 2
Fore
SplineSet
45 555 m 1,0,-1
 -11 555 l 1,1,-1
 106 687 l 2,2,3
 132 716 132 716 146 726.5 c 128,-1,4
 160 737 160 737 179 737 c 0,5,6
 202 737 202 737 214.5 724 c 128,-1,7
 227 711 227 711 227 693 c 0,8,9
 227 665 227 665 198 647 c 2,10,-1
 45 555 l 1,0,-1
253 555 m 1,11,-1
 197 555 l 1,12,-1
 314 687 l 2,13,14
 340 716 340 716 354 726.5 c 128,-1,15
 368 737 368 737 387 737 c 0,16,17
 410 737 410 737 422.5 724 c 128,-1,18
 435 711 435 711 435 693 c 0,19,20
 435 665 435 665 406 647 c 2,21,-1
 253 555 l 1,11,-1
EndSplineSet
EndChar

StartChar: ogonek
Encoding: 206 731 137
Width: 278
Flags: W
TeX: 3 220
HStem: -220 42<103 187.552> -20 20G<110.5 191>
VStem: 17 90<-169.498 -72.5835>
LayerCount: 2
Fore
SplineSet
202 -142 m 1,0,-1
 232 -150 l 1,1,2
 207 -188 207 -188 180 -204 c 128,-1,3
 153 -220 153 -220 109 -220 c 0,4,5
 97 -220 97 -220 84.5 -217.5 c 128,-1,6
 72 -215 72 -215 55 -207 c 128,-1,7
 38 -199 38 -199 27.5 -180.5 c 128,-1,8
 17 -162 17 -162 17 -135 c 0,9,10
 17 -94 17 -94 50 -59 c 128,-1,11
 83 -24 83 -24 138 0 c 1,12,-1
 191 0 l 1,13,14
 107 -72 107 -72 107 -131 c 0,15,16
 107 -153 107 -153 117.5 -165.5 c 128,-1,17
 128 -178 128 -178 147 -178 c 0,18,19
 179 -178 179 -178 202 -142 c 1,0,-1
EndSplineSet
EndChar

StartChar: caron
Encoding: 202 711 138
Width: 259
Flags: W
TeX: 733 -563
HStem: 555 176
VStem: 183 313
LayerCount: 2
Fore
SplineSet
246 555 m 1,0,-1
 183 731 l 1,1,-1
 235 731 l 1,2,-1
 311 633 l 1,3,-1
 444 731 l 1,4,-1
 496 731 l 1,5,-1
 332 555 l 1,6,-1
 246 555 l 1,0,-1
EndSplineSet
EndChar

StartChar: emdash
Encoding: 210 8212 139
Width: 1000
Flags: W
TeX: 263 -209
HStem: 191 90<130 870>
LayerCount: 2
Fore
SplineSet
130 191 m 1,0,-1
 130 281 l 1,1,-1
 870 281 l 1,2,-1
 870 191 l 1,3,-1
 130 191 l 1,0,-1
EndSplineSet
EndChar

StartChar: AE
Encoding: 132 198 140
Width: 980
Flags: W
TeX: 715 0
HStem: 0 30<12 90 129 210 334 423 568 766.596> 262 30<322 490> 350 30<669 738.562> 489 21G<1012 1045.75> 685 30<510 580 608 609 756 927.333>
VStem: 967 28<216.551 241> 1012 28<489 513.338>
LayerCount: 2
Fore
SplineSet
4 0 m 1,0,-1
 12 30 l 1,1,-1
 90 30 l 1,2,-1
 580 685 l 1,3,-1
 501 685 l 1,4,-1
 510 715 l 1,5,-1
 1105 715 l 1,6,-1
 1040 489 l 1,7,-1
 1012 489 l 1,8,9
 1028 598 1028 598 979 641.5 c 128,-1,10
 930 685 930 685 823 685 c 2,11,-1
 756 685 l 1,12,-1
 669 380 l 1,13,14
 822 380 822 380 864 525 c 1,15,-1
 892 525 l 1,16,-1
 798 199 l 1,17,-1
 770 199 l 1,18,19
 794 283 794 283 765.5 316.5 c 128,-1,20
 737 350 737 350 660 350 c 1,21,-1
 568 30 l 1,22,-1
 666 30 l 2,23,24
 709 30 709 30 749 40 c 128,-1,25
 789 50 789 50 831 72.5 c 128,-1,26
 873 95 873 95 908.5 138 c 128,-1,27
 944 181 944 181 967 241 c 1,28,-1
 995 241 l 1,29,-1
 926 0 l 1,30,-1
 325 0 l 1,31,-1
 334 30 l 1,32,-1
 423 30 l 1,33,-1
 490 262 l 1,34,-1
 300 262 l 1,35,-1
 129 30 l 1,36,-1
 219 30 l 1,37,-1
 210 0 l 1,38,-1
 4 0 l 1,0,-1
498 292 m 1,39,-1
 609 679 l 1,40,-1
 608 679 l 1,41,-1
 322 292 l 1,42,-1
 498 292 l 1,39,-1
EndSplineSet
Substitution2: "sous-table 'c2sc' Capitales vers petites capitales dans Latin lookup 0" ae.sc
EndChar

StartChar: ordfeminine
Encoding: 104 170 141
Width: 421
Flags: W
TeX: 706 -398
HStem: 398 42<322.5 408.429> 398 30<142.5 229.038> 682 24<267.533 320.102>
VStem: 75 104<432.909 550.534> 286 94<429.5 497.352>
LayerCount: 2
Fore
SplineSet
330 629 m 0,0,1
 330 637 330 637 329 646 c 128,-1,2
 328 655 328 655 324.5 663 c 128,-1,3
 321 671 321 671 314 676.5 c 128,-1,4
 307 682 307 682 295 682 c 0,5,6
 273 682 273 682 252.5 653.5 c 128,-1,7
 232 625 232 625 215.5 587.5 c 128,-1,8
 199 550 199 550 189 513 c 128,-1,9
 179 476 179 476 179 458 c 0,10,11
 179 447 179 447 183.5 437.5 c 128,-1,12
 188 428 188 428 199 428 c 0,13,14
 224 428 224 428 247.5 449.5 c 128,-1,15
 271 471 271 471 289.5 502 c 128,-1,16
 308 533 308 533 319 568 c 128,-1,17
 330 603 330 603 330 629 c 0,0,1
395 509 m 2,18,19
 389 489 389 489 384.5 475.5 c 128,-1,20
 380 462 380 462 380 456 c 0,21,22
 380 440 380 440 395 440 c 0,23,24
 402 440 402 440 411 448 c 128,-1,25
 420 456 420 456 428.5 466.5 c 128,-1,26
 437 477 437 477 444.5 488 c 128,-1,27
 452 499 452 499 456 505 c 1,28,-1
 475 495 l 1,29,30
 462 475 462 475 448.5 457 c 128,-1,31
 435 439 435 439 418.5 426 c 128,-1,32
 402 413 402 413 381.5 405.5 c 128,-1,33
 361 398 361 398 334 398 c 0,34,35
 311 398 311 398 298.5 409.5 c 128,-1,36
 286 421 286 421 286 438 c 0,37,38
 286 446 286 446 287 452.5 c 128,-1,39
 288 459 288 459 289 465 c 1,40,-1
 288 466 l 1,41,-1
 286 466 l 1,42,43
 265 437 265 437 236.5 417.5 c 128,-1,44
 208 398 208 398 166 398 c 0,45,46
 119 398 119 398 97 422.5 c 128,-1,47
 75 447 75 447 75 485 c 0,48,49
 75 518 75 518 92.5 557 c 128,-1,50
 110 596 110 596 138.5 629 c 128,-1,51
 167 662 167 662 204.5 684 c 128,-1,52
 242 706 242 706 281 706 c 0,53,54
 310 706 310 706 327.5 690.5 c 128,-1,55
 345 675 345 675 348 649 c 1,56,-1
 350 649 l 1,57,-1
 362 700 l 1,58,-1
 457 700 l 1,59,-1
 395 509 l 2,18,19
EndSplineSet
EndChar

StartChar: Lslash
Encoding: 191 321 142
Width: 704
Flags: W
TeX: 715 0
HStem: 0 30<9 98 243 451.333> 685 30<205 286 431 520>
VStem: 656 28<225.694 250>
LayerCount: 2
Fore
SplineSet
0 0 m 1,0,-1
 9 30 l 1,1,-1
 98 30 l 1,2,-1
 164 259 l 1,3,-1
 55 192 l 1,4,-1
 77 269 l 1,5,-1
 186 336 l 1,6,-1
 286 685 l 1,7,-1
 197 685 l 1,8,-1
 205 715 l 1,9,-1
 529 715 l 1,10,-1
 520 685 l 1,11,-1
 431 685 l 1,12,-1
 362 445 l 1,13,-1
 575 577 l 1,14,-1
 553 500 l 1,15,-1
 340 368 l 1,16,-1
 243 30 l 1,17,-1
 352 30 l 2,18,19
 395 30 395 30 435 40 c 128,-1,20
 475 50 475 50 517 73.5 c 128,-1,21
 559 97 559 97 595 142 c 128,-1,22
 631 187 631 187 656 250 c 1,23,-1
 684 250 l 1,24,-1
 612 0 l 1,25,-1
 0 0 l 1,0,-1
EndSplineSet
Substitution2: "sous-table 'c2sc' Capitales vers petites capitales dans Latin lookup 0" lslash.sc
EndChar

StartChar: Oslash
Encoding: 150 216 143
Width: 889
Flags: W
TeX: 727 12
HStem: -12 30<283.01 423.177> 697 30<466.261 608.666>
LayerCount: 2
Fore
SplineSet
228 201 m 1,0,-1
 665 558 l 1,1,2
 665 697 665 697 543 697 c 0,3,4
 501 697 501 697 464.5 681.5 c 128,-1,5
 428 666 428 666 400 636.5 c 128,-1,6
 372 607 372 607 350.5 575 c 128,-1,7
 329 543 329 543 311 500.5 c 128,-1,8
 293 458 293 458 282.5 427 c 128,-1,9
 272 396 272 396 261 358 c 0,10,11
 234 265 234 265 228 201 c 1,0,-1
664 514 m 1,12,-1
 227 157 l 1,13,14
 227 18 227 18 349 18 c 0,15,16
 391 18 391 18 427 33.5 c 128,-1,17
 463 49 463 49 491 78.5 c 128,-1,18
 519 108 519 108 541 140 c 128,-1,19
 563 172 563 172 580.5 214.5 c 128,-1,20
 598 257 598 257 609 288 c 128,-1,21
 620 319 620 319 631 358 c 0,22,23
 658 450 658 450 664 514 c 1,12,-1
2 17 m 1,24,-1
 109 104 l 1,25,26
 54 206 54 206 97 358 c 0,27,28
 144 521 144 521 269 624 c 128,-1,29
 394 727 394 727 552 727 c 0,30,31
 696 727 696 727 765 639 c 1,32,-1
 873 727 l 1,33,-1
 889 698 l 1,34,-1
 783 611 l 1,35,36
 839 512 839 512 795 358 c 0,37,38
 748 194 748 194 623 91 c 128,-1,39
 498 -12 498 -12 340 -12 c 0,40,41
 194 -12 194 -12 127 76 c 1,42,-1
 19 -12 l 1,43,-1
 2 17 l 1,24,-1
EndSplineSet
Substitution2: "sous-table 'c2sc' Capitales vers petites capitales dans Latin lookup 0" oslash.sc
EndChar

StartChar: OE
Encoding: 193 338 144
Width: 1127
Flags: W
TeX: 721 6
HStem: -12 30<264.923 402.891> 0 30<606.549 804.145> 350 30<706.549 776.111> 489 21G<1050.55 1084.21> 685 30<793.549 965.049> 697 30<448.81 589.498>
VStem: 1005.55 27<216.551 241> 1050.55 28<489 513.719>
LayerCount: 2
Fore
SplineSet
793.548828125 685 m 1,0,-1
 706.548828125 380 l 1,1,2
 859.548828125 380 859.548828125 380 901.548828125 525 c 1,3,-1
 929.548828125 525 l 1,4,-1
 835.548828125 199 l 1,5,-1
 807.548828125 199 l 1,6,7
 831.548828125 283 831.548828125 283 803.048828125 316.5 c 128,-1,8
 774.548828125 350 774.548828125 350 697.548828125 350 c 1,9,-1
 606.548828125 30 l 1,10,-1
 703.548828125 30 l 2,11,12
 746.548828125 30 746.548828125 30 786.548828125 40 c 128,-1,13
 826.548828125 50 826.548828125 50 868.548828125 72.5 c 128,-1,14
 910.548828125 95 910.548828125 95 946.048828125 138 c 128,-1,15
 981.548828125 181 981.548828125 181 1005.54882812 241 c 1,16,-1
 1032.54882812 241 l 1,17,-1
 963.548828125 0 l 1,18,-1
 552.548828125 0 l 2,19,20
 507.548828125 0 507.548828125 0 430.048828125 -6 c 128,-1,21
 352.548828125 -12 352.548828125 -12 322.548828125 -12 c 0,22,23
 164.548828125 -12 164.548828125 -12 98.548828125 91 c 128,-1,24
 32.548828125 194 32.548828125 194 79.548828125 358 c 0,25,26
 126.548828125 521 126.548828125 521 251.548828125 624 c 128,-1,27
 376.548828125 727 376.548828125 727 534.548828125 727 c 0,28,29
 564.548828125 727 564.548828125 727 639.048828125 721 c 128,-1,30
 713.548828125 715 713.548828125 715 757.548828125 715 c 2,31,-1
 1142.54882812 715 l 1,32,-1
 1078.54882812 489 l 1,33,-1
 1050.54882812 489 l 1,34,35
 1066.54882812 598 1066.54882812 598 1017.04882812 641.5 c 128,-1,36
 967.548828125 685 967.548828125 685 860.548828125 685 c 2,37,-1
 793.548828125 685 l 1,0,-1
512.548828125 209 m 2,38,-1
 597.548828125 506 l 2,39,40
 608.548828125 544 608.548828125 544 613.548828125 567.5 c 128,-1,41
 618.548828125 591 618.548828125 591 619.048828125 618.5 c 128,-1,42
 619.548828125 646 619.548828125 646 611.048828125 661 c 128,-1,43
 602.548828125 676 602.548828125 676 581.548828125 686.5 c 128,-1,44
 560.548828125 697 560.548828125 697 525.548828125 697 c 0,45,46
 483.548828125 697 483.548828125 697 447.048828125 681.5 c 128,-1,47
 410.548828125 666 410.548828125 666 382.548828125 636.5 c 128,-1,48
 354.548828125 607 354.548828125 607 333.048828125 575 c 128,-1,49
 311.548828125 543 311.548828125 543 293.548828125 500.5 c 128,-1,50
 275.548828125 458 275.548828125 458 265.048828125 427 c 128,-1,51
 254.548828125 396 254.548828125 396 243.548828125 358 c 0,52,53
 232.548828125 319 232.548828125 319 225.548828125 288 c 128,-1,54
 218.548828125 257 218.548828125 257 211.548828125 214.5 c 128,-1,55
 204.548828125 172 204.548828125 172 208.048828125 140 c 128,-1,56
 211.548828125 108 211.548828125 108 222.548828125 78.5 c 128,-1,57
 233.548828125 49 233.548828125 49 261.548828125 33.5 c 128,-1,58
 289.548828125 18 289.548828125 18 331.548828125 18 c 0,59,60
 365.548828125 18 365.548828125 18 392.548828125 28.5 c 128,-1,61
 419.548828125 39 419.548828125 39 437.048828125 54 c 128,-1,62
 454.548828125 69 454.548828125 69 469.548828125 96.5 c 128,-1,63
 484.548828125 124 484.548828125 124 493.048828125 147.5 c 128,-1,64
 501.548828125 171 501.548828125 171 512.548828125 209 c 2,38,-1
EndSplineSet
Substitution2: "sous-table 'c2sc' Capitales vers petites capitales dans Latin lookup 0" oe.sc
EndChar

StartChar: ordmasculine
Encoding: 120 186 145
Width: 398
Flags: W
TeX: 706 -398
HStem: 398 24<162.001 235.796> 682 24<162.407 235.796>
VStem: 22 114<470.709 629.817> 262 114<472.057 631.943>
LayerCount: 2
Fore
SplineSet
262 552 m 128,-1,1
 262 584 262 584 261 600.5 c 128,-1,2
 260 617 260 617 254.5 639.5 c 128,-1,3
 249 662 249 662 235 672 c 128,-1,4
 221 682 221 682 199 682 c 128,-1,5
 177 682 177 682 163 672 c 128,-1,6
 149 662 149 662 143.5 639.5 c 128,-1,7
 138 617 138 617 137 600.5 c 128,-1,8
 136 584 136 584 136 552 c 128,-1,9
 136 520 136 520 137 503.5 c 128,-1,10
 138 487 138 487 143.5 464.5 c 128,-1,11
 149 442 149 442 163 432 c 128,-1,12
 177 422 177 422 199 422 c 128,-1,13
 221 422 221 422 235 432 c 128,-1,14
 249 442 249 442 254.5 464.5 c 128,-1,15
 260 487 260 487 261 503.5 c 128,-1,0
 262 520 262 520 262 552 c 128,-1,1
376 552 m 128,-1,17
 376 484 376 484 327.5 441 c 128,-1,18
 279 398 279 398 199 398 c 0,19,20
 118 398 118 398 70 440 c 128,-1,21
 22 482 22 482 22 552 c 0,22,23
 22 619 22 619 71 662.5 c 128,-1,24
 120 706 120 706 199 706 c 0,25,26
 279 706 279 706 327.5 663 c 128,-1,16
 376 620 376 620 376 552 c 128,-1,17
EndSplineSet
EndChar

StartChar: ae
Encoding: 164 230 146
Width: 832
Flags: W
TeX: 502 12
HStem: -12 51<508.116 618.5> -12 42<120.5 238.289> 470 20G<456.571 578> 472 30<314.762 388.48 628.602 703.525>
VStem: 20 144<45.0103 211.352> 357 130<60.6604 132> 702 110<359.617 461.739>
LayerCount: 2
Fore
SplineSet
702 418 m 0,0,1
 702 438 702 438 695 455 c 128,-1,2
 688 472 688 472 662 472 c 256,3,4
 636 472 636 472 613.5 447 c 128,-1,5
 591 422 591 422 572.5 387 c 128,-1,6
 554 352 554 352 539.5 314 c 128,-1,7
 525 276 525 276 516 249 c 1,8,9
 541 257 541 257 573.5 272 c 128,-1,10
 606 287 606 287 634.5 308 c 128,-1,11
 663 329 663 329 682.5 357 c 128,-1,12
 702 385 702 385 702 418 c 0,0,1
410 374 m 0,13,14
 410 391 410 391 408 408.5 c 128,-1,15
 406 426 406 426 400 440 c 128,-1,16
 394 454 394 454 382.5 463 c 128,-1,17
 371 472 371 472 353 472 c 0,18,19
 330 472 330 472 306.5 450.5 c 128,-1,20
 283 429 283 429 262 395 c 128,-1,21
 241 361 241 361 223 318 c 128,-1,22
 205 275 205 275 192 232.5 c 128,-1,23
 179 190 179 190 171.5 151.5 c 128,-1,24
 164 113 164 113 164 87 c 0,25,26
 164 60 164 60 171 45 c 128,-1,27
 178 30 178 30 201 30 c 0,28,29
 227 30 227 30 253 47 c 128,-1,30
 279 64 279 64 302 92.5 c 128,-1,31
 325 121 325 121 345 157 c 128,-1,32
 365 193 365 193 379 231.5 c 128,-1,33
 393 270 393 270 401.5 307 c 128,-1,34
 410 344 410 344 410 374 c 0,13,14
553 413 m 1,35,-1
 555 411 l 1,36,37
 578 449 578 449 611 475.5 c 128,-1,38
 644 502 644 502 694 502 c 0,39,40
 713 502 713 502 734 497.5 c 128,-1,41
 755 493 755 493 772 483 c 128,-1,42
 789 473 789 473 800.5 457 c 128,-1,43
 812 441 812 441 812 418 c 0,44,45
 812 391 812 391 795.5 367 c 128,-1,46
 779 343 779 343 752.5 323 c 128,-1,47
 726 303 726 303 692.5 287 c 128,-1,48
 659 271 659 271 625 258 c 128,-1,49
 591 245 591 245 559.5 235 c 128,-1,50
 528 225 528 225 506 219 c 1,51,52
 499 194 499 194 493 169.5 c 128,-1,53
 487 145 487 145 487 119 c 0,54,55
 487 81 487 81 507.5 60 c 128,-1,56
 528 39 528 39 570 39 c 0,57,58
 600 39 600 39 627 52.5 c 128,-1,59
 654 66 654 66 677 86 c 128,-1,60
 700 106 700 106 720 130.5 c 128,-1,61
 740 155 740 155 755 178 c 1,62,-1
 781 166 l 1,63,64
 758 131 758 131 731 99 c 128,-1,65
 704 67 704 67 671.5 42 c 128,-1,66
 639 17 639 17 601 2.5 c 128,-1,67
 563 -12 563 -12 519 -12 c 0,68,69
 448 -12 448 -12 406.5 23.5 c 128,-1,70
 365 59 365 59 357 132 c 1,71,-1
 355 132 l 1,72,73
 341 104 341 104 320.5 78 c 128,-1,74
 300 52 300 52 274.5 32 c 128,-1,75
 249 12 249 12 219 0 c 128,-1,76
 189 -12 189 -12 155 -12 c 0,77,78
 86 -12 86 -12 53 28.5 c 128,-1,79
 20 69 20 69 20 134 c 0,80,81
 20 171 20 171 32 212.5 c 128,-1,82
 44 254 44 254 66 295 c 128,-1,83
 88 336 88 336 117.5 373.5 c 128,-1,84
 147 411 147 411 181.5 439.5 c 128,-1,85
 216 468 216 468 254.5 485 c 128,-1,86
 293 502 293 502 332 502 c 0,87,88
 377 502 377 502 403.5 476.5 c 128,-1,89
 430 451 430 451 434 406 c 1,90,-1
 436 406 l 1,91,-1
 463 490 l 1,92,-1
 578 490 l 1,93,-1
 553 413 l 1,35,-1
EndSplineSet
Substitution2: "sous-table 'smcp' Bas-de-casse vers petites capitales dans Latin lookup 0" ae.sc
EndChar

StartChar: dotlessi
Encoding: 190 305 147
Width: 352
Flags: W
TeX: 490 0
HStem: -12 70<111 209.06> 460 30<66 146.254>
VStem: 38 136<58.1588 158.947>
LayerCount: 2
Fore
SplineSet
66 490 m 1,0,-1
 136 490 l 2,1,2
 218 490 218 490 301 496 c 1,3,-1
 182 116 l 2,4,5
 179 106 179 106 176.5 97.5 c 128,-1,6
 174 89 174 89 174 79 c 0,7,8
 174 58 174 58 196 58 c 0,9,10
 213 58 213 58 230.5 70.5 c 128,-1,11
 248 83 248 83 263.5 100 c 128,-1,12
 279 117 279 117 292.5 136 c 128,-1,13
 306 155 306 155 315 167 c 1,14,-1
 339 151 l 1,15,16
 322 125 322 125 300.5 96 c 128,-1,17
 279 67 279 67 253.5 43 c 128,-1,18
 228 19 228 19 197.5 3.5 c 128,-1,19
 167 -12 167 -12 132 -12 c 0,20,21
 90 -12 90 -12 64 8 c 128,-1,22
 38 28 38 28 38 68 c 0,23,24
 38 81 38 81 41 98 c 128,-1,25
 44 115 44 115 48.5 132 c 128,-1,26
 53 149 53 149 58 165.5 c 128,-1,27
 63 182 63 182 67 195 c 2,28,-1
 148 460 l 1,29,-1
 57 460 l 1,30,-1
 66 490 l 1,0,-1
EndSplineSet
EndChar

StartChar: lslash
Encoding: 192 322 148
Width: 394
Flags: W
TeX: 715 0
HStem: -12 77<91 222.5> 690 25<154 226>
VStem: 30 138<43 147.781>
LayerCount: 2
Fore
SplineSet
24 294 m 1,0,-1
 36 344 l 1,1,-1
 134 404 l 1,2,-1
 226 690 l 1,3,-1
 147 690 l 1,4,-1
 154 715 l 1,5,-1
 234 715 l 2,6,7
 304 715 304 715 374 721 c 1,8,-1
 294 473 l 1,9,-1
 394 538 l 1,10,-1
 382 486 l 1,11,-1
 277 422 l 1,12,-1
 181 124 l 2,13,14
 169 93 169 93 168 85 c 0,15,16
 168 65 168 65 190 65 c 0,17,18
 227 65 227 65 299 189 c 1,19,-1
 320 178 l 1,20,21
 218 -12 218 -12 108 -12 c 0,22,23
 74 -12 74 -12 52 8.5 c 128,-1,24
 30 29 30 29 30 57 c 0,25,26
 30 78 30 78 50 145 c 2,27,-1
 118 355 l 1,28,-1
 24 294 l 1,0,-1
EndSplineSet
Substitution2: "sous-table 'smcp' Bas-de-casse vers petites capitales dans Latin lookup 0" lslash.sc
EndChar

StartChar: oslash
Encoding: 182 248 149
Width: 613
Flags: W
TeX: 502 12
HStem: -15 29<197.926 315.813> 474 29<298.36 415.836>
VStem: 35 129<117.459 239.704> 450 129<250.572 372.317>
LayerCount: 2
Fore
SplineSet
164 117 m 1,0,-1
 447 414 l 1,1,2
 432 474 432 474 359 474 c 0,3,4
 308 474 308 474 271 441 c 0,5,6
 239 413 239 413 202.5 297.5 c 128,-1,7
 166 182 166 182 164 117 c 1,0,-1
20 4 m 1,8,-1
 91 62 l 1,9,10
 35 116 35 116 35 192 c 0,11,12
 35 316 35 316 125.5 409.5 c 128,-1,13
 216 503 216 503 352 503 c 0,14,15
 440 503 440 503 494 451 c 1,16,-1
 566 509 l 1,17,-1
 594 485 l 1,18,-1
 523 427 l 1,19,20
 579 375 579 375 579 296 c 0,21,22
 579 172 579 172 489 78.5 c 128,-1,23
 399 -15 399 -15 262 -15 c 0,24,25
 173 -15 173 -15 120 38 c 1,26,-1
 46 -21 l 1,27,-1
 20 4 l 1,8,-1
450 373 m 1,28,-1
 167 75 l 1,29,30
 182 14 182 14 255 14 c 0,31,32
 306 14 306 14 343 47 c 0,33,34
 375 76 375 76 411.5 192 c 128,-1,35
 448 308 448 308 450 373 c 1,28,-1
EndSplineSet
Substitution2: "sous-table 'smcp' Bas-de-casse vers petites capitales dans Latin lookup 0" oslash.sc
EndChar

StartChar: oe
Encoding: 194 339 150
Width: 852
Flags: W
TeX: 502 12
HStem: -12 51<518.703 629.5> -12 30<187.208 284.448> 472 30<291.33 393.59 635.328 714.525>
VStem: 29 130<92.0075 247.156> 713 110<359.617 461.739>
LayerCount: 2
Fore
SplineSet
713 418 m 0,0,1
 713 438 713 438 706 455 c 128,-1,2
 699 472 699 472 673 472 c 256,3,4
 647 472 647 472 624.5 447 c 128,-1,5
 602 422 602 422 583.5 387 c 128,-1,6
 565 352 565 352 550.5 314 c 128,-1,7
 536 276 536 276 527 249 c 1,8,9
 552 257 552 257 584.5 272 c 128,-1,10
 617 287 617 287 645.5 308 c 128,-1,11
 674 329 674 329 693.5 357 c 128,-1,12
 713 385 713 385 713 418 c 0,0,1
422 388 m 0,13,14
 422 427 422 427 402 449.5 c 128,-1,15
 382 472 382 472 342 472 c 0,16,17
 306 472 306 472 278 447.5 c 128,-1,18
 250 423 250 423 229.5 385 c 128,-1,19
 209 347 209 347 195.5 302 c 128,-1,20
 182 257 182 257 174 216 c 128,-1,21
 166 175 166 175 162.5 144 c 128,-1,22
 159 113 159 113 159 104 c 0,23,24
 159 60 159 60 180 39 c 128,-1,25
 201 18 201 18 228 18 c 0,26,27
 269 18 269 18 299.5 43 c 128,-1,28
 330 68 330 68 351.5 106.5 c 128,-1,29
 373 145 373 145 386.5 190.5 c 128,-1,30
 400 236 400 236 408 277 c 128,-1,31
 416 318 416 318 419 348.5 c 128,-1,32
 422 379 422 379 422 388 c 0,13,14
792 166 m 1,33,34
 769 131 769 131 742 99 c 128,-1,35
 715 67 715 67 682.5 42 c 128,-1,36
 650 17 650 17 612 2.5 c 128,-1,37
 574 -12 574 -12 530 -12 c 0,38,39
 492 -12 492 -12 459.5 3 c 128,-1,40
 427 18 427 18 405 48 c 1,41,42
 370 15 370 15 327 1.5 c 128,-1,43
 284 -12 284 -12 230 -12 c 0,44,45
 189 -12 189 -12 152.5 2.5 c 128,-1,46
 116 17 116 17 88.5 42.5 c 128,-1,47
 61 68 61 68 45 104 c 128,-1,48
 29 140 29 140 29 183 c 0,49,50
 29 249 29 249 54.5 307 c 128,-1,51
 80 365 80 365 123.5 408.5 c 128,-1,52
 167 452 167 452 225.5 477 c 128,-1,53
 284 502 284 502 351 502 c 0,54,55
 383 502 383 502 408 494 c 128,-1,56
 433 486 433 486 452 473 c 128,-1,57
 471 460 471 460 485 445 c 128,-1,58
 499 430 499 430 509 415 c 1,59,60
 523 428 523 428 540 443.5 c 128,-1,61
 557 459 557 459 580 472 c 128,-1,62
 603 485 603 485 633.5 493.5 c 128,-1,63
 664 502 664 502 705 502 c 0,64,65
 724 502 724 502 745 497.5 c 128,-1,66
 766 493 766 493 783 483 c 128,-1,67
 800 473 800 473 811.5 457 c 128,-1,68
 823 441 823 441 823 418 c 0,69,70
 823 391 823 391 806.5 367 c 128,-1,71
 790 343 790 343 763.5 323 c 128,-1,72
 737 303 737 303 703.5 287 c 128,-1,73
 670 271 670 271 636 258 c 128,-1,74
 602 245 602 245 570.5 235 c 128,-1,75
 539 225 539 225 517 219 c 1,76,77
 510 194 510 194 504 169.5 c 128,-1,78
 498 145 498 145 498 119 c 0,79,80
 498 81 498 81 518.5 60 c 128,-1,81
 539 39 539 39 581 39 c 0,82,83
 611 39 611 39 638 52.5 c 128,-1,84
 665 66 665 66 688 86 c 128,-1,85
 711 106 711 106 731 130.5 c 128,-1,86
 751 155 751 155 766 178 c 1,87,-1
 792 166 l 1,33,34
EndSplineSet
Substitution2: "sous-table 'smcp' Bas-de-casse vers petites capitales dans Latin lookup 0" oe.sc
EndChar

StartChar: germandbls
Encoding: 157 223 151
Width: 900
Flags: W
TeX: 727 6
HStem: -201 29<72.5 170.03> -9 29<474.741 551.966> 449 29<574 657.773> 699 29<619.549 734.425>
VStem: 2 116<-171.838 -90.0012> 436 24<37.6962 133.299> 685 129<259.062 401.759> 770 129<536.469 668.614>
LayerCount: 2
Fore
SplineSet
470 206 m 1,0,-1
 491 201 l 1,1,2
 483 180 483 180 471.5 138 c 128,-1,3
 460 96 460 96 460 82 c 0,4,5
 460 20 460 20 513 20 c 0,6,7
 548 20 548 20 581.5 65.5 c 128,-1,8
 615 111 615 111 636.5 172.5 c 128,-1,9
 658 234 658 234 671.5 291 c 128,-1,10
 685 348 685 348 685 377 c 0,11,12
 685 449 685 449 599 449 c 2,13,-1
 568 449 l 1,14,-1
 574 478 l 1,15,-1
 600 478 l 2,16,17
 685 478 685 478 727.5 507 c 128,-1,18
 770 536 770 536 770 607 c 0,19,20
 770 699 770 699 675 699 c 0,21,22
 624 699 624 699 578 655.5 c 128,-1,23
 532 612 532 612 505 503 c 2,24,-1
 430 196 l 2,25,26
 384 29 384 29 294.5 -86 c 128,-1,27
 205 -201 205 -201 97 -201 c 0,28,29
 48 -201 48 -201 25 -179.5 c 128,-1,30
 2 -158 2 -158 2 -122 c 0,31,32
 2 -96 2 -96 23.5 -78 c 128,-1,33
 45 -60 45 -60 76 -60 c 0,34,35
 104 -60 104 -60 121.5 -71 c 128,-1,36
 139 -82 139 -82 139 -101 c 0,37,38
 139 -115 139 -115 128.5 -131 c 128,-1,39
 118 -147 118 -147 118 -154 c 0,40,41
 118 -172 118 -172 134 -172 c 0,42,43
 153 -172 153 -172 171 -158 c 128,-1,44
 189 -144 189 -144 202 -124 c 128,-1,45
 215 -104 215 -104 228.5 -66 c 128,-1,46
 242 -28 242 -28 251.5 4.5 c 128,-1,47
 261 37 261 37 273.5 90.5 c 128,-1,48
 286 144 286 144 295 180 c 128,-1,49
 304 216 304 216 318 275 c 0,50,51
 340 369 340 369 369 443.5 c 128,-1,52
 398 518 398 518 445 586 c 128,-1,53
 492 654 492 654 562 691 c 128,-1,54
 632 728 632 728 723 728 c 0,55,56
 795 728 795 728 847 695.5 c 128,-1,57
 899 663 899 663 899 606 c 0,58,59
 899 545 899 545 847 506 c 128,-1,60
 795 467 795 467 709 457 c 1,61,-1
 709 455 l 1,62,63
 756 445 756 445 785 411.5 c 128,-1,64
 814 378 814 378 814 343 c 0,65,66
 814 274 814 274 780.5 194 c 128,-1,67
 747 114 747 114 680 52.5 c 128,-1,68
 613 -9 613 -9 532 -9 c 0,69,70
 487 -9 487 -9 461.5 13.5 c 128,-1,71
 436 36 436 36 436 78 c 0,72,73
 436 100 436 100 470 206 c 1,0,-1
EndSplineSet
EndChar

StartChar: divide
Encoding: 181 247 152
Width: 600
Flags: W
TeX: 514 12
HStem: -38 168<244.16 355.84> 201 104<47 553> 376 168<244.16 355.84>
VStem: 216 168<-9.83984 101.84 404.16 515.84>
CounterMasks: 1 e0
LayerCount: 2
Fore
SplineSet
47 201 m 1,0,-1
 47 305 l 1,1,-1
 553 305 l 1,2,-1
 553 201 l 1,3,-1
 47 201 l 1,0,-1
216 460 m 128,-1,5
 216 494 216 494 241 519 c 128,-1,6
 266 544 266 544 300 544 c 128,-1,7
 334 544 334 544 359 519 c 128,-1,8
 384 494 384 494 384 460 c 128,-1,9
 384 426 384 426 359 401 c 128,-1,10
 334 376 334 376 300 376 c 128,-1,11
 266 376 266 376 241 401 c 128,-1,4
 216 426 216 426 216 460 c 128,-1,5
216 46 m 128,-1,13
 216 80 216 80 241 105 c 128,-1,14
 266 130 266 130 300 130 c 128,-1,15
 334 130 334 130 359 105 c 128,-1,16
 384 80 384 80 384 46 c 128,-1,17
 384 12 384 12 359 -13 c 128,-1,18
 334 -38 334 -38 300 -38 c 128,-1,19
 266 -38 266 -38 241 -13 c 128,-1,12
 216 12 216 12 216 46 c 128,-1,13
EndSplineSet
EndChar

StartChar: threequarters
Encoding: 124 190 153
Width: 834
Flags: W
TeX: 715 21
HStem: 0 21G<576 677.422> 109 60<527 613 725 756> 276 24<32.9583 83.0322> 525 26<150.192 157.844> 664 42<190.628 287> 702 20G<615.16 684>
VStem: 223 104<398.859 516.799>
LayerCount: 2
Fore
SplineSet
685 319 m 1,0,-1
 682 319 l 1,1,-1
 527 169 l 1,2,-1
 634 169 l 1,3,-1
 685 319 l 1,0,-1
627 722 m 1,4,-1
 684 722 l 1,5,-1
 240 -28 l 1,6,-1
 183 -28 l 1,7,-1
 627 722 l 1,4,-1
28 300 m 1,8,9
 62 303 62 303 97 316.5 c 128,-1,10
 132 330 132 330 160 351.5 c 128,-1,11
 188 373 188 373 205.5 401.5 c 128,-1,12
 223 430 223 430 223 464 c 0,13,14
 223 483 223 483 217.5 495.5 c 128,-1,15
 212 508 212 508 203.5 515 c 128,-1,16
 195 522 195 522 185 524.5 c 128,-1,17
 175 527 175 527 167 527 c 0,18,19
 163 527 163 527 158 527 c 256,20,21
 153 527 153 527 151 525 c 2,22,-1
 148 551 l 1,23,24
 190 555 190 555 219 575 c 128,-1,25
 248 595 248 595 248 625 c 0,26,27
 248 643 248 643 239.5 653.5 c 128,-1,28
 231 664 231 664 214 664 c 0,29,30
 195 664 195 664 179.5 653 c 128,-1,31
 164 642 164 642 154 633 c 1,32,-1
 141 650 l 1,33,34
 166 672 166 672 197.5 689 c 128,-1,35
 229 706 229 706 270 706 c 0,36,37
 304 706 304 706 328 691.5 c 128,-1,38
 352 677 352 677 352 646 c 0,39,40
 352 629 352 629 343.5 615.5 c 128,-1,41
 335 602 335 602 321.5 591.5 c 128,-1,42
 308 581 308 581 292 573.5 c 128,-1,43
 276 566 276 566 261 560 c 1,44,-1
 261 558 l 1,45,46
 289 550 289 550 308 526 c 128,-1,47
 327 502 327 502 327 470 c 0,48,49
 327 426 327 426 300.5 392.5 c 128,-1,50
 274 359 274 359 232 335 c 128,-1,51
 190 311 190 311 138 296 c 128,-1,52
 86 281 86 281 35 276 c 1,53,-1
 28 300 l 1,8,9
613 109 m 1,54,-1
 467 109 l 1,55,-1
 467 142 l 1,56,-1
 758 424 l 1,57,-1
 806 424 l 1,58,-1
 725 169 l 1,59,-1
 775 169 l 1,60,-1
 756 109 l 1,61,-1
 706 109 l 1,62,-1
 671 0 l 1,63,-1
 576 0 l 1,64,-1
 613 109 l 1,54,-1
EndSplineSet
EndChar

StartChar: onequarter
Encoding: 122 188 154
Width: 834
Flags: W
TeX: 715 21
HStem: 0 21G<576 677.422> 109 60<527 613 725 756> 282 24<34 94 198 255> 702 20G<615.16 684>
LayerCount: 2
Fore
SplineSet
685 319 m 1,0,-1
 682 319 l 1,1,-1
 527 169 l 1,2,-1
 634 169 l 1,3,-1
 685 319 l 1,0,-1
627 722 m 1,4,-1
 684 722 l 1,5,-1
 240 -28 l 1,6,-1
 183 -28 l 1,7,-1
 627 722 l 1,4,-1
34 306 m 1,8,-1
 94 306 l 1,9,-1
 191 606 l 1,10,-1
 189 606 l 1,11,-1
 105 551 l 1,12,-1
 94 571 l 1,13,14
 118 587 118 587 144.5 604.5 c 128,-1,15
 171 622 171 622 196.5 639.5 c 128,-1,16
 222 657 222 657 246 674 c 128,-1,17
 270 691 270 691 290 706 c 1,18,-1
 325 706 l 1,19,-1
 198 306 l 1,20,-1
 261 306 l 1,21,-1
 255 282 l 1,22,-1
 28 282 l 1,23,-1
 34 306 l 1,8,-1
613 109 m 1,24,-1
 467 109 l 1,25,-1
 467 142 l 1,26,-1
 758 424 l 1,27,-1
 806 424 l 1,28,-1
 725 169 l 1,29,-1
 775 169 l 1,30,-1
 756 109 l 1,31,-1
 706 109 l 1,32,-1
 671 0 l 1,33,-1
 576 0 l 1,34,-1
 613 109 l 1,24,-1
EndSplineSet
EndChar

StartChar: one.superior
Encoding: 119 185 155
Width: 380
Flags: W
TeX: 706 -282
HStem: 441 25<81 142 258 315>
VStem: 75 329
LayerCount: 2
Fore
SplineSet
75 441 m 1,0,-1
 81 466 l 1,1,-1
 142 466 l 1,2,-1
 255 815 l 1,3,4
 229 794 229 794 185 766 c 1,5,-1
 179 785 l 1,6,7
 227 812 227 812 284.5 851.5 c 128,-1,8
 342 891 342 891 370 915 c 1,9,-1
 404 915 l 1,10,-1
 258 466 l 1,11,-1
 321 466 l 1,12,-1
 315 441 l 1,13,-1
 75 441 l 1,0,-1
EndSplineSet
EndChar

StartChar: multiply
Encoding: 149 215 156
Width: 600
Flags: W
TeX: 479 -23
LayerCount: 2
Fore
SplineSet
228 253 m 1,0,-1
 66 415 l 1,1,-1
 138 487 l 1,2,-1
 300 325 l 1,3,-1
 462 487 l 1,4,-1
 534 415 l 1,5,-1
 371 253 l 1,6,-1
 534 91 l 1,7,-1
 462 19 l 1,8,-1
 300 182 l 1,9,-1
 138 19 l 1,10,-1
 66 91 l 1,11,-1
 228 253 l 1,0,-1
EndSplineSet
EndChar

StartChar: registered
Encoding: 108 174 157
Width: 490
Flags: W
TeX: 730 -358
HStem: 358 10<203.509 286.491> 446 4<317.5 342.272> 448 4<162 193 220 251> 551 4<220 257.41> 640 4<162 193 220 257.688> 720 10<203.509 286.491>
VStem: 59 10<502.509 585.491> 193 27<452 551 555 640> 279 31<568.435 630.761> 421 10<502.509 586.362>
LayerCount: 2
Fore
SplineSet
59 544 m 128,-1,1
 59 621 59 621 113.5 675.5 c 128,-1,2
 168 730 168 730 245 730 c 128,-1,3
 322 730 322 730 376.5 675 c 128,-1,4
 431 620 431 620 431 544 c 0,5,6
 431 467 431 467 376.5 412.5 c 128,-1,7
 322 358 322 358 245 358 c 128,-1,8
 168 358 168 358 113.5 412.5 c 128,-1,0
 59 467 59 467 59 544 c 128,-1,1
193 452 m 1,9,-1
 193 640 l 1,10,-1
 162 640 l 1,11,-1
 162 644 l 1,12,-1
 214 644 l 2,13,14
 218 644 218 644 227 644.5 c 128,-1,15
 236 645 236 645 241 645 c 0,16,17
 277 645 277 645 292 633 c 0,18,19
 310 619 310 619 310 598 c 0,20,21
 310 591 310 591 307 583.5 c 128,-1,22
 304 576 304 576 292.5 566.5 c 128,-1,23
 281 557 281 557 262 555 c 1,24,-1
 262 554 l 1,25,26
 306 546 306 546 313 522 c 0,27,28
 315 514 315 514 316.5 494.5 c 128,-1,29
 318 475 318 475 319 469 c 0,30,31
 323 450 323 450 335 450 c 0,32,33
 344 450 344 450 350 456 c 1,34,-1
 352 453 l 1,35,36
 343 446 343 446 328 446 c 0,37,38
 307 446 307 446 299 456 c 128,-1,39
 291 466 291 466 289 488 c 2,40,-1
 287 514 l 2,41,42
 284 551 284 551 248 551 c 2,43,-1
 220 551 l 1,44,-1
 220 452 l 1,45,-1
 251 452 l 1,46,-1
 251 448 l 1,47,-1
 162 448 l 1,48,-1
 162 452 l 1,49,-1
 193 452 l 1,9,-1
220 640 m 1,50,-1
 220 555 l 1,51,-1
 245 555 l 2,52,53
 279 555 279 555 279 598 c 0,54,55
 279 624 279 624 268 632.5 c 128,-1,56
 257 641 257 641 238 641 c 0,57,58
 224 641 224 641 220 640 c 1,50,-1
69 544 m 128,-1,60
 69 471 69 471 120.5 419.5 c 128,-1,61
 172 368 172 368 245 368 c 128,-1,62
 318 368 318 368 369.5 419.5 c 128,-1,63
 421 471 421 471 421 544 c 128,-1,64
 421 617 421 617 369.5 668.5 c 128,-1,65
 318 720 318 720 245 720 c 128,-1,66
 172 720 172 720 120.5 668.5 c 128,-1,59
 69 617 69 617 69 544 c 128,-1,60
EndSplineSet
EndChar

StartChar: Thorn
Encoding: 156 222 158
Width: 751
Flags: W
TeX: 715 0
HStem: 0 30<9 98 243 324> 208 30<303 466.656> 570 30<407 553.453> 685 30<205 286 431 520>
LayerCount: 2
Fore
SplineSet
398 570 m 1,0,-1
 303 238 l 1,1,-1
 384 238 l 2,2,3
 462 238 462 238 502 275 c 128,-1,4
 542 312 542 312 568.5 404 c 128,-1,5
 595 496 595 496 576 533 c 128,-1,6
 557 570 557 570 479 570 c 2,7,-1
 398 570 l 1,0,-1
0 0 m 1,8,-1
 9 30 l 1,9,-1
 98 30 l 1,10,-1
 286 685 l 1,11,-1
 197 685 l 1,12,-1
 205 715 l 1,13,-1
 529 715 l 1,14,-1
 520 685 l 1,15,-1
 431 685 l 1,16,-1
 407 600 l 1,17,-1
 538 600 l 2,18,19
 564 600 564 600 578 599.5 c 128,-1,20
 592 599 592 599 621 595.5 c 128,-1,21
 650 592 650 592 667 585 c 128,-1,22
 684 578 684 578 704 563.5 c 128,-1,23
 724 549 724 549 732.5 529 c 128,-1,24
 741 509 741 509 742.5 477 c 128,-1,25
 744 445 744 445 732 404 c 0,26,27
 718 354 718 354 690.5 317 c 128,-1,28
 663 280 663 280 632 259.5 c 128,-1,29
 601 239 601 239 560 227 c 128,-1,30
 519 215 519 215 484 211.5 c 128,-1,31
 449 208 449 208 406 208 c 2,32,-1
 294 208 l 1,33,-1
 243 30 l 1,34,-1
 333 30 l 1,35,-1
 324 0 l 1,36,-1
 0 0 l 1,8,-1
EndSplineSet
Substitution2: "sous-table 'c2sc' Capitales vers petites capitales dans Latin lookup 0" thorn.sc
EndChar

StartChar: brokenbar
Encoding: 100 166 159
Width: 222
Flags: W
TeX: 661 89
VStem: 59 104<-89 161 411 661>
LayerCount: 2
Fore
SplineSet
59 -89 m 1,0,-1
 59 161 l 1,1,-1
 163 161 l 1,2,-1
 163 -89 l 1,3,-1
 59 -89 l 1,0,-1
59 411 m 1,4,-1
 59 661 l 1,5,-1
 163 661 l 1,6,-1
 163 411 l 1,7,-1
 59 411 l 1,4,-1
EndSplineSet
EndChar

StartChar: Eth
Encoding: 142 208 160
Width: 864
Flags: W
TeX: 715 0
HStem: 0 30<9 98 243 432.092> 348 42<112 189 346 483> 685 30<205 286 431 622.398>
LayerCount: 2
Fore
SplineSet
0 0 m 1,0,-1
 9 30 l 1,1,-1
 98 30 l 1,2,-1
 189 348 l 1,3,-1
 100 348 l 1,4,-1
 112 390 l 1,5,-1
 201 390 l 1,6,-1
 286 685 l 1,7,-1
 197 685 l 1,8,-1
 205 715 l 1,9,-1
 565 715 l 2,10,11
 741 715 741 715 812 632.5 c 128,-1,12
 883 550 883 550 828 357 c 0,13,14
 800 258 800 258 754 187.5 c 128,-1,15
 708 117 708 117 646.5 76.5 c 128,-1,16
 585 36 585 36 515.5 18 c 128,-1,17
 446 0 446 0 360 0 c 2,18,-1
 0 0 l 1,0,-1
334 348 m 1,19,-1
 243 30 l 1,20,-1
 296 30 l 2,21,22
 331 30 331 30 354.5 31.5 c 128,-1,23
 378 33 378 33 411.5 39.5 c 128,-1,24
 445 46 445 46 469 58.5 c 128,-1,25
 493 71 493 71 522.5 95 c 128,-1,26
 552 119 552 119 575 153.5 c 128,-1,27
 598 188 598 188 621.5 239.5 c 128,-1,28
 645 291 645 291 664 357 c 128,-1,29
 683 423 683 423 689.5 475 c 128,-1,30
 696 527 696 527 693 561 c 128,-1,31
 690 595 690 595 676 619.5 c 128,-1,32
 662 644 662 644 647 656.5 c 128,-1,33
 632 669 632 669 607 675.5 c 128,-1,34
 582 682 582 682 564 683.5 c 128,-1,35
 546 685 546 685 519 685 c 2,36,-1
 431 685 l 1,37,-1
 346 390 l 1,38,-1
 495 390 l 1,39,-1
 483 348 l 1,40,-1
 334 348 l 1,19,-1
EndSplineSet
Substitution2: "sous-table 'c2sc' Capitales vers petites capitales dans Latin lookup 0" eth.sc
EndChar

StartChar: onehalf
Encoding: 123 189 161
Width: 834
Flags: W
TeX: 715 21
HStem: 0 85.5<565.8 681> 260.101 81<582.226 625.463> 282 19<74 136 207 271> 387 36.9004<624.786 748.065> 695 20G<608.908 669>
LayerCount: 2
Fore
SplineSet
580.200195312 340.200195312 m 1,0,1
 577.5 323.100585938 577.5 323.100585938 582 328.5 c 0,2,3
 589.200195312 333 589.200195312 333 600 337.5 c 0,4,5
 608.099609375 341.100585938 608.099609375 341.100585938 616.200195312 341.100585938 c 0,6,7
 653.099609375 341.100585938 653.099609375 341.100585938 636 303.299804688 c 0,8,9
 627.899414062 280.799804688 627.899414062 280.799804688 615.299804688 270.900390625 c 0,10,11
 601.799804688 260.100585938 601.799804688 260.100585938 584.700195312 260.100585938 c 0,12,13
 562.200195312 260.100585938 562.200195312 260.100585938 554.099609375 279 c 0,14,15
 544.200195312 298.799804688 544.200195312 298.799804688 555.899414062 326.700195312 c 0,16,17
 576.599609375 381.600585938 576.599609375 381.600585938 618 402.299804688 c 0,18,19
 661.200195312 423.900390625 661.200195312 423.900390625 720.599609375 423.900390625 c 0,20,21
 774.599609375 423.900390625 774.599609375 423.900390625 800.700195312 393.299804688 c 0,22,23
 828.599609375 364.5 828.599609375 364.5 808.799804688 313.200195312 c 0,24,25
 794.399414062 268.200195312 794.399414062 268.200195312 763.799804688 245.700195312 c 0,26,27
 711.599609375 207.900390625 711.599609375 207.900390625 685.5 186.299804688 c 0,28,29
 565.799804688 85.5 l 1,30,-1
 653.099609375 85.5 l 2,31,32
 686.399414062 85.5 686.399414062 85.5 710.700195312 100.799804688 c 128,-1,33
 735 116.100585938 735 116.100585938 750.299804688 136.799804688 c 1,34,-1
 763.799804688 132.299804688 l 1,35,-1
 681 0 l 1,36,-1
 439.799804688 0 l 1,37,-1
 443.399414062 21.6005859375 l 1,38,-1
 555.899414062 103.5 l 2,39,40
 579.299804688 119.700195312 579.299804688 119.700195312 607.200195312 143.100585938 c 0,41,42
 626.099609375 158.400390625 626.099609375 158.400390625 654 184.049804688 c 128,-1,43
 681.899414062 209.700195312 681.899414062 209.700195312 699 234.900390625 c 0,44,45
 715.200195312 259.200195312 715.200195312 259.200195312 724.200195312 288 c 0,46,47
 738.599609375 331.200195312 738.599609375 331.200195312 726.899414062 359.100585938 c 128,-1,48
 715.200195312 387 715.200195312 387 675.599609375 387 c 128,-1,49
 636 387 636 387 613.049804688 375.75 c 128,-1,50
 590.099609375 364.5 590.099609375 364.5 580.200195312 340.200195312 c 1,0,1
176 -21 m 1,51,-1
 621 715 l 1,52,-1
 669 715 l 1,53,-1
 224 -21 l 1,54,-1
 176 -21 l 1,51,-1
136 552 m 1,55,-1
 130 569 l 1,56,57
 245 636 245 636 319 706 c 1,58,-1
 337 706 l 1,59,-1
 207 301 l 1,60,-1
 276 301 l 1,61,-1
 271 282 l 1,62,-1
 69 282 l 1,63,-1
 74 301 l 1,64,-1
 136 301 l 1,65,-1
 238 614 l 1,66,-1
 136 552 l 1,55,-1
EndSplineSet
EndChar

StartChar: minus
Encoding: 226 8722 162
Width: 600
Flags: W
TeX: 284 -218
HStem: 201 104<47 553>
LayerCount: 2
Fore
SplineSet
47 201 m 1,0,-1
 47 305 l 1,1,-1
 553 305 l 1,2,-1
 553 201 l 1,3,-1
 47 201 l 1,0,-1
EndSplineSet
EndChar

StartChar: ccedilla
Encoding: 165 231 163
Width: 579
Flags: W
TeX: 502 220
HStem: -224 42<110.565 248.81> -16 37<261 362.385> 474 29<351.774 450.301>
VStem: 38 146<77.1771 229.507> 258 111<-170.522 -106.811> 461 129<343.722 439.948>
LayerCount: 2
Fore
SplineSet
88 -194 m 1,0,-1
 114 -165 l 1,1,2
 151 -182 151 -182 188 -182 c 0,3,4
 217 -182 217 -182 237.5 -170 c 128,-1,5
 258 -158 258 -158 258 -137.5 c 128,-1,6
 258 -117 258 -117 242 -108 c 128,-1,7
 226 -99 226 -99 206.5 -99 c 128,-1,8
 187 -99 187 -99 173 -106 c 1,9,-1
 159 -98 l 1,10,-1
 224 -13 l 1,11,12
 139 -4 139 -4 88.5 42 c 128,-1,13
 38 88 38 88 38 162 c 0,14,15
 38 217 38 217 69 278 c 128,-1,16
 100 339 100 339 150.5 389 c 128,-1,17
 201 439 201 439 272 471 c 128,-1,18
 343 503 343 503 415 503 c 0,19,20
 483 503 483 503 536.5 468 c 128,-1,21
 590 433 590 433 590 379 c 0,22,23
 590 313 590 313 513 312 c 0,24,25
 480 312 480 312 464.5 325.5 c 128,-1,26
 449 339 449 339 449 360 c 0,27,28
 449 367 449 367 455 393 c 128,-1,29
 461 419 461 419 461 432 c 0,30,31
 461 474 461 474 402 474 c 0,32,33
 356 474 356 474 313.5 430.5 c 128,-1,34
 271 387 271 387 244 327.5 c 128,-1,35
 217 268 217 268 200.5 212 c 128,-1,36
 184 156 184 156 184 124 c 0,37,38
 184 72 184 72 210.5 46.5 c 128,-1,39
 237 21 237 21 297 21 c 0,40,41
 360 21 360 21 417.5 63.5 c 128,-1,42
 475 106 475 106 505 161 c 1,43,-1
 536 149 l 1,44,45
 494 79 494 79 422 32 c 128,-1,46
 350 -15 350 -15 261 -16 c 1,47,-1
 225 -69 l 1,48,49
 242 -65 242 -65 264 -66 c 0,50,51
 309 -66 309 -66 339 -85.5 c 128,-1,52
 369 -105 369 -105 369 -139 c 0,53,54
 369 -182 369 -182 317 -203 c 128,-1,55
 265 -224 265 -224 205 -224 c 0,56,57
 139 -224 139 -224 88 -194 c 1,0,-1
EndSplineSet
Substitution2: "sous-table 'smcp' Bas-de-casse vers petites capitales dans Latin lookup 0" ccedilla.sc
EndChar

StartChar: eth
Encoding: 174 240 164
Width: 630
Flags: W
TeX: 774 12
HStem: -13 26<207.727 320.681> 476 26<308.185 420.264>
VStem: 54 117<92.7322 235.951> 457 125<253.641 450.201>
LayerCount: 2
Fore
SplineSet
197 610 m 1,0,-1
 326 662 l 1,1,2
 278 700 278 700 201 735 c 1,3,-1
 225 761 l 1,4,5
 320 721 320 721 378 683 c 1,6,-1
 533 738 l 1,7,-1
 564 704 l 1,8,-1
 413 653 l 1,9,10
 513 581 513 581 547.5 510.5 c 128,-1,11
 582 440 582 440 582 330 c 0,12,13
 582 191 582 191 492.5 89 c 128,-1,14
 403 -13 403 -13 261 -13 c 0,15,16
 164 -13 164 -13 109 45 c 128,-1,17
 54 103 54 103 54 190 c 0,18,19
 54 314 54 314 140.5 408 c 128,-1,20
 227 502 227 502 356 502 c 0,21,22
 403 502 403 502 440 482 c 1,23,24
 440 509 440 509 416.5 552.5 c 128,-1,25
 393 596 393 596 358 631 c 1,26,-1
 221 576 l 1,27,-1
 197 610 l 1,0,-1
457 382 m 0,28,29
 457 476 457 476 366 476 c 0,30,31
 314 476 314 476 278 443 c 0,32,33
 245 413 245 413 208 290.5 c 128,-1,34
 171 168 171 168 171 107 c 0,35,36
 171 13 171 13 262 13 c 0,37,38
 314 13 314 13 350 46 c 0,39,40
 383 76 383 76 420 198.5 c 128,-1,41
 457 321 457 321 457 382 c 0,28,29
EndSplineSet
Substitution2: "sous-table 'smcp' Bas-de-casse vers petites capitales dans Latin lookup 0" eth.sc
EndChar

StartChar: plusminus
Encoding: 111 177 165
Width: 600
Flags: W
TeX: 502 0
HStem: 0 104<47 553> 272 104<47 248 352 553>
VStem: 248 104<141 272 376 506>
LayerCount: 2
Fore
SplineSet
248 376 m 1,0,-1
 248 506 l 1,1,-1
 352 506 l 1,2,-1
 352 376 l 1,3,-1
 553 376 l 1,4,-1
 553 272 l 1,5,-1
 352 272 l 1,6,-1
 352 141 l 1,7,-1
 248 141 l 1,8,-1
 248 272 l 1,9,-1
 47 272 l 1,10,-1
 47 376 l 1,11,-1
 248 376 l 1,0,-1
47 0 m 1,12,-1
 47 104 l 1,13,-1
 553 104 l 1,14,-1
 553 0 l 1,15,-1
 47 0 l 1,12,-1
EndSplineSet
EndChar

StartChar: Ccedilla
Encoding: 133 199 166
Width: 702
Flags: W
TeX: 727 220
HStem: -220 42<266.655 384.429> -11 29<346.281 387> 697 30<534.984 677.312>
VStem: 699 27<223.193 248> 756 28<466 490.085>
LayerCount: 2
Fore
SplineSet
252 -202 m 1,0,-1
 278 -165 l 1,1,2
 306 -178 306 -178 334 -178 c 0,3,4
 383 -178 383 -178 394 -138 c 0,5,6
 399 -121 399 -121 389.5 -111.5 c 128,-1,7
 380 -102 380 -102 364 -102 c 128,-1,8
 348 -102 348 -102 335 -106 c 1,9,-1
 327 -98 l 1,10,-1
 387 -11 l 1,11,12
 236 -7 236 -7 173.5 95.5 c 128,-1,13
 111 198 111 198 157 358 c 0,14,15
 204 521 204 521 329 624 c 128,-1,16
 454 727 454 727 612 727 c 0,17,18
 719 727 719 727 843 669 c 1,19,-1
 784 466 l 1,20,-1
 756 466 l 1,21,22
 776 560 776 560 734.5 628.5 c 128,-1,23
 693 697 693 697 613 697 c 0,24,25
 410 697 410 697 313 358 c 0,26,27
 304 325 304 325 297.5 299 c 128,-1,28
 291 273 291 273 285 236 c 128,-1,29
 279 199 279 199 279 171 c 128,-1,30
 279 143 279 143 284.5 113 c 128,-1,31
 290 83 290 83 305 63 c 128,-1,32
 320 43 320 43 347 30.5 c 128,-1,33
 374 18 374 18 412 18 c 0,34,35
 493 18 493 18 578 87 c 128,-1,36
 663 156 663 156 699 248 c 1,37,-1
 726 248 l 1,38,-1
 669 46 l 1,39,40
 543 -4 543 -4 427 -10 c 1,41,-1
 389 -65 l 1,42,43
 406 -60 406 -60 426 -60 c 0,44,45
 460 -60 460 -60 478.5 -76.5 c 128,-1,46
 497 -93 497 -93 486 -130 c 0,47,48
 460 -220 460 -220 328 -220 c 0,49,50
 291 -220 291 -220 252 -202 c 1,0,-1
EndSplineSet
Substitution2: "sous-table 'c2sc' Capitales vers petites capitales dans Latin lookup 0" ccedilla.sc
EndChar

StartChar: thorn
Encoding: 188 254 167
Width: 679
Flags: W
TeX: 715 220
HStem: -220 30<9 71 199 252> -12 36<307.084 412.68> 442 36<438.445 521.763> 684 30<268 321> 701 20G<426 454.286>
LayerCount: 2
Fore
SplineSet
0 -220 m 1,0,-1
 9 -190 l 1,1,-1
 71 -190 l 1,2,-1
 321 684 l 1,3,-1
 260 684 l 1,4,-1
 268 714 l 1,5,-1
 323 714 l 2,6,7
 392 714 392 714 460 721 c 1,8,-1
 368 399 l 1,9,-1
 369 399 l 1,10,11
 426 478 426 478 516 478 c 0,12,13
 607 478 607 478 638.5 407 c 128,-1,14
 670 336 670 336 640.5 233 c 128,-1,15
 611 130 611 130 539 59 c 128,-1,16
 467 -12 467 -12 376 -12 c 0,17,18
 291 -12 291 -12 270 51 c 1,19,-1
 268 51 l 1,20,-1
 199 -190 l 1,21,-1
 260 -190 l 1,22,-1
 252 -220 l 1,23,-1
 0 -220 l 1,0,-1
502.5 233 m 128,-1,25
 513 270 513 270 517.5 287.5 c 128,-1,26
 522 305 522 305 528.5 334.5 c 128,-1,27
 535 364 535 364 533.5 379 c 128,-1,28
 532 394 532 394 528 410.5 c 128,-1,29
 524 427 524 427 510.5 434.5 c 128,-1,30
 497 442 497 442 477 442 c 0,31,32
 460 442 460 442 442 433 c 128,-1,33
 424 424 424 424 402 403.5 c 128,-1,34
 380 383 380 383 357.5 339 c 128,-1,35
 335 295 335 295 317 233 c 0,36,37
 302 181 302 181 296.5 142.5 c 128,-1,38
 291 104 291 104 292.5 82 c 128,-1,39
 294 60 294 60 303.5 46.5 c 128,-1,40
 313 33 313 33 325.5 28.5 c 128,-1,41
 338 24 338 24 357 24 c 0,42,43
 378 24 378 24 395 31 c 128,-1,44
 412 38 412 38 426 54.5 c 128,-1,45
 440 71 440 71 450 86 c 128,-1,46
 460 101 460 101 470.5 130.5 c 128,-1,47
 481 160 481 160 486.5 178 c 128,-1,24
 492 196 492 196 502.5 233 c 128,-1,25
EndSplineSet
Substitution2: "sous-table 'smcp' Bas-de-casse vers petites capitales dans Latin lookup 0" thorn.sc
EndChar

StartChar: copyright
Encoding: 103 169 168
Width: 800
Flags: W
TeX: 730 14
HStem: -12 78<287.23 515.755> 148 24<380.23 479.736> 543 24<380.24 482.739> 649 78<287.23 512.707>
VStem: 31 84<240.003 474.703> 194 120<255.979 450.769> 535 24<454 486.484> 685 84<239.687 474.387>
LayerCount: 2
Fore
SplineSet
115 357 m 0,0,1
 115 233 115 233 195.5 149.5 c 128,-1,2
 276 66 276 66 401 66 c 128,-1,3
 526 66 526 66 605.5 149 c 128,-1,4
 685 232 685 232 685 357 c 0,5,6
 685 481 685 481 604 565 c 128,-1,7
 523 649 523 649 401 649 c 0,8,9
 276 649 276 649 195.5 565.5 c 128,-1,10
 115 482 115 482 115 357 c 0,0,1
577 270 m 1,11,-1
 558 181 l 1,12,13
 499 148 499 148 420 148 c 0,14,15
 315 148 315 148 254.5 203 c 128,-1,16
 194 258 194 258 194 361 c 0,17,18
 194 396 194 396 207 431 c 128,-1,19
 220 466 220 466 245.5 497 c 128,-1,20
 271 528 271 528 316 547.5 c 128,-1,21
 361 567 361 567 418 567 c 0,22,23
 514 567 514 567 559 532 c 1,24,-1
 559 454 l 1,25,-1
 535 454 l 1,26,27
 514 543 514 543 431 543 c 0,28,29
 373 543 373 543 344 496.5 c 128,-1,30
 315 450 315 450 314 367 c 0,31,32
 312 172 312 172 430 172 c 0,33,34
 471 172 471 172 502.5 198.5 c 128,-1,35
 534 225 534 225 551 270 c 1,36,-1
 577 270 l 1,11,-1
31 357 m 0,37,38
 31 511 31 511 139 619 c 128,-1,39
 247 727 247 727 400 727 c 128,-1,40
 553 727 553 727 661 619 c 128,-1,41
 769 511 769 511 769 357 c 0,42,43
 769 204 769 204 661 96 c 128,-1,44
 553 -12 553 -12 400 -12 c 128,-1,45
 247 -12 247 -12 139 96 c 128,-1,46
 31 204 31 204 31 357 c 0,37,38
EndSplineSet
EndChar

StartChar: logicalnot
Encoding: 106 172 169
Width: 600
Flags: W
TeX: 384 -106
HStem: 305 104<47 449>
VStem: 449 104<108 305>
LayerCount: 2
Fore
SplineSet
449 108 m 1,0,-1
 449 305 l 1,1,-1
 47 305 l 1,2,-1
 47 409 l 1,3,-1
 553 409 l 1,4,-1
 553 108 l 1,5,-1
 449 108 l 1,0,-1
EndSplineSet
EndChar

StartChar: two.superior
Encoding: 112 178 170
Width: 360
Flags: W
TeX: 706 -282
HStem: 441 95<149 277> 730 90<167.251 213.251> 871 41<214.54 351.518>
LayerCount: 2
Fore
SplineSet
165 819 m 1,0,1
 162 800 162 800 167 806 c 0,2,3
 175 811 175 811 187 816 c 0,4,5
 196 820 196 820 205 820 c 0,6,7
 246 820 246 820 227 778 c 0,8,9
 218 753 218 753 204 742 c 0,10,11
 189 730 189 730 170 730 c 0,12,13
 145 730 145 730 136 751 c 0,14,15
 125 773 125 773 138 804 c 0,16,17
 161 865 161 865 207 888 c 0,18,19
 255 912 255 912 321 912 c 0,20,21
 381 912 381 912 410 878 c 0,22,23
 441 846 441 846 419 789 c 0,24,25
 403 739 403 739 369 714 c 0,26,27
 311 672 311 672 282 648 c 0,28,29
 149 536 l 5,30,-1
 246 536 l 2,31,32
 283 536 283 536 310 553 c 128,-1,33
 337 570 337 570 354 593 c 1,34,-1
 369 588 l 1,35,-1
 277 441 l 1,36,-1
 9 441 l 1,37,-1
 13 465 l 1,38,-1
 138 556 l 2,39,40
 164 574 164 574 195 600 c 0,41,42
 216 617 216 617 247 645.5 c 128,-1,43
 278 674 278 674 297 702 c 0,44,45
 315 729 315 729 325 761 c 0,46,47
 341 809 341 809 328 840 c 128,-1,48
 315 871 315 871 271 871 c 128,-1,49
 227 871 227 871 201.5 858.5 c 128,-1,50
 176 846 176 846 165 819 c 1,0,1
EndSplineSet
EndChar

